<svg width="102" height="90" viewBox="0 0 102 90" fill="none" xmlns="http://www.w3.org/2000/svg">
<path fill-rule="evenodd" clip-rule="evenodd" d="M92.8639 38.8378C94.2419 39.288 95.549 39.9593 96.714 40.8431C100.514 43.7239 102.539 48.635 101.875 53.3585C101.566 55.518 100.744 57.465 99.4867 58.9825C98.1087 60.6543 96.1753 61.7841 94.1835 62.0884C94.1543 62.0926 94.1292 62.0926 94.1041 62.0926C94.0457 62.0926 93.9914 62.0801 93.9371 62.0634C93.9441 62.0995 93.9515 62.1356 93.9589 62.1717C93.9738 62.244 93.9886 62.3163 93.9997 62.3886C94.4173 64.9108 93.3191 67.5248 91.2688 68.8964C91.1477 68.9756 91.0266 69.0507 90.9013 69.1216C90.9063 69.1265 90.9114 69.1314 90.9165 69.1364C90.9376 69.1568 90.9597 69.1782 90.9765 69.2049C92.2626 71.3603 92.676 73.9993 92.1081 76.4423C91.5444 78.8896 90.0077 81.0741 87.9031 82.4457C86.191 83.5589 84.0238 84.1884 81.6353 84.2676C81.4724 84.2718 81.3054 84.2759 81.13 84.2759C79.5599 84.2759 77.5221 84.0258 75.572 83.0628C75.3716 83.6631 75.2547 84.3009 75.1377 84.968C75.124 85.0441 75.1104 85.1204 75.0968 85.1969C75.0486 85.4679 75.0001 85.7403 74.9415 86.0102C74.6158 87.5319 74.0479 88.595 73.2043 89.2663C72.5863 89.754 71.8138 90 71.0538 90C70.3398 90 69.6382 89.7832 69.0787 89.3496C68.2686 88.7201 67.851 87.7612 67.4835 86.9149L67.3791 86.6773C64.9363 81.12 60.0715 76.5632 54.3632 74.4829C54.2755 74.4496 54.2087 74.3912 54.1544 74.3245C53.265 74.583 52.3421 74.7205 51.4068 74.7205C49.1811 74.7205 46.922 73.9951 45.0554 72.6152C43.0468 71.131 41.5519 68.9673 40.771 66.4867C40.4244 67.4956 39.8607 68.4587 39.1133 69.28C37.8188 70.6974 36.0148 71.7314 33.8893 72.2733C32.883 72.5318 31.8516 72.6569 30.8285 72.6569C28.5485 72.6569 26.3228 72.0315 24.5272 70.8308C21.9717 69.1257 20.3515 66.2741 20.2178 63.3808C18.9818 64.9692 16.848 65.5445 15.0315 65.5445C14.8895 65.5445 14.7517 65.5445 14.6181 65.5362C10.7012 65.3444 6.93466 62.843 5.24765 59.3118C3.61074 55.8891 3.9615 51.5616 6.09533 48.4224C5.76962 48.2723 5.44808 48.1139 5.1349 47.9263C2.10328 46.1211 0.0863773 42.6441 0.00286166 39.0713C-0.080654 35.5318 1.669 32.0131 4.57534 29.8952C7.25202 27.9441 10.8014 27.2688 14.0168 28.0609C12.3047 25.4552 11.8913 21.9866 12.952 18.8682C13.9917 15.8123 16.3678 13.1691 19.4745 11.6183C22.2807 10.2175 25.7132 9.70051 29.1373 10.1633C31.4507 10.476 33.4133 11.1847 34.9709 12.2645C36.6704 13.4443 37.873 15.1161 38.3449 16.9046C38.8293 16.8004 39.322 16.7462 39.819 16.742C40.9464 13.4985 43.4686 10.5635 46.7549 8.68327C49.6696 7.01567 53.265 6.09014 57.1485 6.00676C60.7188 5.92755 63.9592 6.54457 66.7695 7.83696C69.9472 9.30029 72.5112 11.6516 73.9894 14.4574C75.3799 17.0922 75.7683 20.1397 75.1085 22.8538C78.0107 21.3738 81.3012 20.861 84.3746 21.4488C88.1787 22.1784 91.582 24.6798 93.2606 27.9817C95.0145 31.4336 94.8558 35.6818 92.8639 38.8378ZM73.9435 85.7935C74.0145 85.4599 74.0729 85.1264 74.1314 84.7887C74.2608 84.0508 74.3986 83.2879 74.6742 82.55C74.6532 82.5371 74.6322 82.5248 74.6114 82.5126C74.5785 82.4934 74.5463 82.4745 74.5155 82.4541C72.2606 80.9824 70.8074 78.6519 70.6195 76.2214C70.617 76.2114 70.619 76.2014 70.621 76.1914C70.6224 76.1847 70.6237 76.178 70.6237 76.1714C70.3272 76.2005 70.0308 76.2172 69.7301 76.2172C69.0536 76.2172 68.3604 76.1505 67.6673 76.0088C65.0908 75.4918 62.7858 74.0702 61.3368 72.1191C60.6979 71.2561 60.2302 70.2805 59.9462 69.2675C59.0777 71.2227 57.4783 72.8778 55.474 73.8242C61.1113 76.113 65.8758 80.7114 68.3145 86.2687L68.4189 86.5105L68.4212 86.5159C68.7711 87.3185 69.1009 88.075 69.705 88.545C70.4901 89.1537 71.747 89.1162 72.5696 88.4658C73.2211 87.9488 73.6679 87.0733 73.9435 85.7935Z" fill="#C1E3DE"/>
<circle cx="79.5" cy="14.5" r="14.5" fill="#EF5558"/>
<path d="M88.725 11.6382H82.3616V5.27481C82.3616 4.71225 81.905 4.25977 81.3466 4.25977H77.6574C77.0948 4.25977 76.6423 4.71633 76.6423 5.27481V11.6382H70.279C69.7164 11.6382 69.2639 12.0947 69.2639 12.6532V16.3424C69.2639 16.905 69.7205 17.3575 70.279 17.3575H76.6423V23.7249C76.6423 24.2875 77.0989 24.7399 77.6574 24.7399H81.3466C81.9091 24.7399 82.3616 24.2834 82.3616 23.7249V17.3575H88.725C89.2875 17.3575 89.74 16.9009 89.74 16.3424V12.6532C89.74 12.0947 89.2875 11.6382 88.725 11.6382Z" fill="white"/>
<path fill-rule="evenodd" clip-rule="evenodd" d="M96.7114 40.8448C95.5464 39.9609 94.2394 39.2897 92.8614 38.8394C94.8532 35.6833 95.0119 31.4349 93.2581 27.9828C91.5795 24.6807 88.1763 22.1792 84.3723 21.4496C81.299 20.8617 78.0085 21.3745 75.1065 22.8546C75.7662 20.1404 75.3779 17.0927 73.9874 14.4578C72.5092 11.6519 69.9453 9.30045 66.7676 7.83705C63.9574 6.54459 60.7171 5.92755 57.1469 6.00676C53.2635 6.09015 49.6683 7.01572 46.7537 8.68341C43.4674 10.5637 40.9453 13.4989 39.8179 16.7425C39.321 16.7467 38.8282 16.8009 38.3439 16.9051C37.872 15.1165 36.6694 13.4447 34.9699 12.2648C33.4124 11.1849 31.4498 10.4762 29.1365 10.1635C25.7125 9.7007 22.2801 10.2177 19.474 11.6185C16.3673 13.1695 13.9914 15.8128 12.9516 18.8688C11.891 21.9874 12.3044 25.4562 14.0164 28.062C10.8011 27.2698 7.25182 27.9452 4.57522 29.8964C1.66895 32.0144 -0.0806518 35.5332 0.00286158 39.0729C0.086375 42.6459 2.10322 46.1231 5.13476 47.9283C5.44793 48.1118 5.76946 48.2744 6.09516 48.4245C3.9614 51.5639 3.61064 55.8916 5.2475 59.3145C6.93447 62.8458 10.7009 65.3474 14.6177 65.5391C14.7513 65.5475 14.8891 65.5475 15.0311 65.5475C16.8475 65.5475 18.9813 64.9721 20.2173 63.3837C20.3509 66.2771 21.9711 69.1289 24.5266 70.8341C26.3221 72.0348 28.5477 72.6602 30.8277 72.6602C31.8465 72.6602 32.8821 72.5351 33.8884 72.2766C36.0138 71.7346 37.8177 70.7007 39.1122 69.2789C39.8596 68.4576 40.4233 67.4945 40.7699 66.4856C41.5508 68.9663 43.0457 71.1301 45.0542 72.6143C46.9207 73.9943 49.1797 74.7198 51.4054 74.7198C52.3407 74.7198 53.2635 74.5822 54.1529 74.3237C54.2072 74.3904 54.274 74.4488 54.3617 74.4821C60.0699 76.5626 64.9345 81.1195 67.3773 86.6771L67.4817 86.9148C67.8491 87.7611 68.2667 88.72 69.0768 89.3496C69.6363 89.7832 70.3378 90 71.0519 90C71.8119 90 72.5844 89.754 73.2023 89.262C74.0458 88.5908 74.6137 87.5276 74.9394 86.0059C74.998 85.736 75.0465 85.4635 75.0947 85.1925C75.1083 85.116 75.1219 85.0397 75.1357 84.9636C75.2526 84.2965 75.3695 83.6586 75.57 83.0582C77.52 84.0213 79.5577 84.2715 81.1278 84.2715C81.3031 84.2715 81.4702 84.2673 81.633 84.2631C84.0215 84.1839 86.1887 83.5544 87.9007 82.4412C90.0052 81.0695 91.5419 78.8848 92.1098 76.4375C92.6777 73.9943 92.2643 71.3552 90.9782 69.1997C90.9614 69.173 90.9393 69.1516 90.9182 69.1312L90.903 69.1163C91.0283 69.0455 91.1494 68.9704 91.2705 68.8912C93.3207 67.5195 94.4189 64.9054 94.0014 62.383C93.9902 62.3108 93.9754 62.2385 93.9605 62.1662C93.9531 62.1301 93.9457 62.0939 93.9387 62.0578C93.993 62.0745 94.0473 62.087 94.1058 62.087C94.1308 62.087 94.1559 62.087 94.1851 62.0829C96.1769 61.7785 98.1102 60.6486 99.4882 58.9768C100.745 57.4592 101.568 55.5122 101.877 53.3525C102.536 48.6371 100.511 43.7258 96.7114 40.8448ZM74.1293 84.7926C74.0709 85.1303 74.0124 85.4639 73.9414 85.7974C73.6658 87.0774 73.219 87.9529 72.5676 88.4699C71.745 89.1203 70.4882 89.1578 69.7031 88.5491C69.099 88.079 68.7692 87.3225 68.4193 86.5198L68.417 86.5145L68.3126 86.2727C65.874 80.7151 61.1096 76.1165 55.4725 73.8276C57.4768 72.8812 59.0761 71.226 59.9446 69.2706C60.2285 70.2837 60.6962 71.2593 61.3351 72.1224C62.784 74.0736 65.089 75.4953 67.6654 76.0122C68.3586 76.154 69.0517 76.2207 69.7282 76.2207C70.0288 76.2207 70.3253 76.204 70.6218 76.1748C70.6218 76.1815 70.6204 76.1882 70.6191 76.1948C70.6171 76.2049 70.6151 76.2149 70.6176 76.2249C70.8055 78.6555 72.2586 80.9861 74.5135 82.4579C74.5442 82.4783 74.5765 82.4972 74.6094 82.5164C74.6302 82.5286 74.6512 82.5409 74.6722 82.5538C74.3966 83.2917 74.2588 84.0547 74.1293 84.7926ZM98.6948 58.3306C99.8306 56.9547 100.578 55.187 100.858 53.2107C101.467 48.9206 99.5508 44.2761 96.1184 41.6495C92.661 39.027 87.6627 38.435 83.6875 40.1694C83.4286 40.282 83.1279 40.1652 83.0152 39.9067C82.9024 39.6483 83.0193 39.3481 83.2782 39.2355C85.9924 38.0514 89.0574 37.843 91.901 38.5476C91.9135 38.4892 91.9344 38.4308 91.9678 38.3766C93.8218 35.5124 93.9805 31.61 92.3687 28.4372C90.8279 25.4103 87.6961 23.1131 84.1969 22.4419C81.015 21.8331 77.5743 22.5002 74.6597 24.268C74.6346 24.3097 74.6054 24.3472 74.572 24.3764C76.9855 26.14 78.3008 29.2919 77.7497 32.2562C77.7037 32.5022 77.4908 32.6731 77.2486 32.6731C77.2226 32.6731 77.1967 32.6699 77.1679 32.6662L77.1567 32.6648C76.8769 32.6148 76.6974 32.3479 76.7475 32.0728C77.2778 29.2294 75.7453 26.0607 73.1898 24.7016C70.6343 23.3424 67.1476 23.8511 65.0807 25.8773C64.8802 26.0774 64.5545 26.0733 64.3583 25.8731C64.1579 25.6688 64.162 25.3478 64.3625 25.1519C66.7426 22.8129 70.5967 22.2376 73.5656 23.7552C73.6199 23.7191 73.6757 23.6846 73.7321 23.6497C73.7669 23.6282 73.802 23.6065 73.8371 23.5842C74.81 20.8867 74.5427 17.6723 73.098 14.9289C71.7242 12.319 69.3273 10.126 66.3543 8.75845C63.686 7.5327 60.6044 6.94484 57.1845 7.01989C53.4723 7.0991 50.0441 7.97881 47.2756 9.56311C44.29 11.2725 41.985 13.8991 40.891 16.8092C41.4339 16.8843 41.9725 17.0177 42.4861 17.2178C44.6742 18.0642 46.3695 20.007 46.9082 22.2834C46.9708 22.5586 46.8038 22.8296 46.5282 22.8963C46.2526 22.9588 45.9812 22.7921 45.9143 22.5169C45.4467 20.5574 43.9935 18.8897 42.1145 18.1642C40.2354 17.4388 38.0349 17.6889 36.3688 18.823C34.7027 19.957 33.6629 21.9124 33.6546 23.9219C33.6546 24.2013 33.4249 24.4264 33.1451 24.4264H33.141C32.8612 24.4222 32.6357 24.1929 32.6357 23.9136C32.6441 21.5747 33.855 19.2983 35.7925 17.9808C36.2811 17.6472 36.8114 17.3804 37.3668 17.1803C36.9617 15.6168 35.9011 14.1493 34.3895 13.0986C32.9698 12.1105 31.1575 11.4643 29.0029 11.1724C25.7793 10.7388 22.5598 11.2225 19.9333 12.5316C17.0646 13.9616 14.8724 16.3923 13.9204 19.1982C12.9099 22.175 13.3734 25.5021 15.1271 27.8785C15.2775 28.0786 15.2482 28.3455 15.0854 28.5206C15.1564 28.6415 15.1772 28.7874 15.1313 28.9292C15.0436 29.196 14.7555 29.3419 14.4883 29.2544C11.3857 28.2371 7.81972 28.7999 5.18069 30.7261C2.54167 32.6523 0.950738 35.8417 1.0259 39.0562C1.10524 42.2874 2.92583 45.431 5.66507 47.0611C8.46277 48.7288 12.0747 48.7789 14.8682 47.1945C15.1104 47.057 15.4236 47.1404 15.5614 47.3863C15.6992 47.6282 15.6157 47.9408 15.3693 48.0784C13.8619 48.9373 12.1332 49.3625 10.4045 49.3625C9.27702 49.3625 8.14959 49.1791 7.07227 48.8164C5.02202 51.6765 4.65873 55.7039 6.1745 58.8809C7.70697 62.0829 11.1185 64.3551 14.672 64.526C16.4258 64.6094 18.6389 64.0966 19.6577 62.4206C18.8769 62.0328 18.1837 61.5158 17.6492 60.8738C16.2963 59.252 16.0207 56.9214 16.977 55.2036C17.1148 54.9577 17.4238 54.8701 17.6701 55.0077C17.9165 55.1453 18.0042 55.4538 17.8664 55.6998C17.1189 57.0339 17.3569 58.9351 18.4301 60.2234C19.4364 61.4283 21.1067 62.1454 22.8897 62.1412C24.4556 62.1329 26.1426 61.5909 27.7585 60.5736C27.9965 60.4235 28.3097 60.4944 28.46 60.732C28.6104 60.9697 28.5394 61.2824 28.3014 61.4325C26.5225 62.5498 24.6518 63.146 22.8939 63.1544H22.8647C22.3051 63.1544 21.7581 63.0876 21.2278 62.9709C21.2153 65.6684 22.6976 68.3867 25.0945 69.9877C27.4537 71.5678 30.6481 72.0556 33.6379 71.2927C35.567 70.8007 37.1997 69.871 38.3606 68.5994C39.63 67.211 40.2939 65.3682 40.1394 63.6797C40.1102 63.3962 40.319 63.1502 40.5987 63.1252C40.8827 63.096 41.129 63.3044 41.1541 63.5838C41.1591 63.6337 41.1596 63.6836 41.1601 63.7327C41.1604 63.7655 41.1608 63.798 41.1624 63.8298C41.2251 63.9006 41.271 63.984 41.2835 64.0841C41.6802 67.1818 43.3171 70.0669 45.6638 71.8013C48.165 73.6525 51.4513 74.2028 54.2365 73.2397C57.101 72.2516 59.3099 69.5499 59.6064 66.6773C59.6089 66.6595 59.6146 66.6448 59.6205 66.6295C59.6243 66.6196 59.6282 66.6095 59.6314 66.5981C59.6607 65.9978 59.7525 65.4099 59.9154 64.8429C59.9947 64.5761 60.2745 64.4176 60.5459 64.4968C60.8131 64.5761 60.9718 64.8554 60.8925 65.1264C60.2912 67.2068 60.7714 69.6542 62.1535 71.5178C63.4522 73.2731 65.5358 74.5447 67.8658 75.0158C70.413 75.5286 72.9017 74.9866 74.526 73.5607C76.3258 71.9848 76.8519 69.2331 75.6994 67.432C75.5491 67.1943 75.6159 66.8775 75.8539 66.7274C76.0877 66.5773 76.4051 66.644 76.5554 66.8816C77.971 69.0913 77.3613 72.4267 75.1983 74.3237C74.217 75.1784 72.9727 75.7538 71.5989 76.0289C71.6018 76.0375 71.6049 76.0461 71.608 76.0548C71.6184 76.0839 71.6291 76.1135 71.6323 76.1457C71.791 78.2303 73.1105 80.3232 75.0689 81.6032C77.307 83.0624 79.8542 83.3 81.5996 83.2417C83.8044 83.1666 85.7878 82.5955 87.3453 81.5823C89.2327 80.3566 90.6065 78.3929 91.116 76.204C91.6254 74.0152 91.2538 71.6471 90.1013 69.7167C90.0595 69.65 90.0428 69.5791 90.0345 69.5041C89.3664 69.7459 88.6565 69.8668 87.9508 69.8668C86.5979 69.8668 85.2575 69.429 84.2428 68.5702C84.0299 68.3867 84.0006 68.0657 84.1844 67.8531C84.3681 67.6363 84.6896 67.6113 84.9026 67.7947C86.4517 69.1122 88.9446 69.2164 90.6984 68.0449C92.3937 66.9108 93.3374 64.6469 92.9908 62.5456C92.6568 60.5194 91.1619 58.6391 89.1785 57.7635C89.1529 57.7494 89.1332 57.7333 89.1127 57.7166C89.103 57.7087 89.0931 57.7007 89.0824 57.6927C88.9864 57.8344 88.8862 57.9762 88.7776 58.1096C87.5541 59.6314 85.5874 60.5027 83.6373 60.5027C82.9567 60.5027 82.2761 60.3985 81.633 60.1775C81.3658 60.0858 81.2238 59.7981 81.3157 59.5313C81.4075 59.2645 81.6957 59.1227 81.9629 59.2144C84.0633 59.9357 86.5937 59.2019 87.98 57.4759C89.3705 55.7498 89.5376 53.1232 88.3767 51.2345C88.2306 50.9927 88.3057 50.68 88.5438 50.5341C88.7859 50.3882 89.0991 50.4632 89.2453 50.7009C90.356 52.5145 90.4395 54.8951 89.5626 56.8255C89.5681 56.8282 89.5753 56.8291 89.582 56.8306C89.5856 56.8314 89.589 56.8324 89.5919 56.8338C91.5461 57.6968 93.0451 59.3395 93.7091 61.2615C93.7842 61.1698 93.8928 61.0989 94.0222 61.0781C95.7677 60.8112 97.4713 59.8106 98.6948 58.3306Z" fill="#8C8F92"/>
<path d="M39.1456 35.4414C40.5653 37.0424 40.9662 39.5356 40.1144 41.4993C40.0016 41.7578 40.1227 42.058 40.3816 42.1664C40.4484 42.1956 40.5152 42.2081 40.5821 42.2081C40.7783 42.2081 40.9662 42.0913 41.0497 41.8996C42.0686 39.5481 41.6093 36.6797 39.9098 34.7618C38.2103 32.844 35.4126 32.0393 32.9531 32.7648C30.4936 33.4861 28.577 35.6749 28.1887 38.2056C28.1469 38.485 28.3348 38.7434 28.6146 38.7851C28.8944 38.8268 29.1532 38.6392 29.195 38.3599C29.5207 36.2461 31.1826 34.3449 33.2412 33.7404C35.2957 33.14 37.7259 33.8363 39.1456 35.4414Z" fill="#8C8F92"/>
<path d="M69.8159 44.5931C69.5361 44.6265 69.3357 44.8808 69.3691 45.1601C69.4025 45.4395 69.6531 45.6396 69.937 45.6062C72.7765 45.2685 75.7913 46.5652 77.4407 48.829C79.136 51.1596 79.3698 54.395 78.0253 56.884C76.664 59.4022 73.7536 60.9448 70.9517 60.6363C70.6719 60.6071 70.4214 60.8072 70.388 61.0866C70.3587 61.3659 70.5592 61.6161 70.839 61.6494C71.1145 61.6786 71.3901 61.6953 71.6657 61.6953C74.6012 61.6953 77.5033 59.9984 78.923 57.3718C80.4513 54.5451 80.1883 50.872 78.2675 48.2328C76.3759 45.6354 73.0604 44.2054 69.8159 44.5931Z" fill="#8C8F92"/>
<path d="M68.4337 54.307C68.2333 54.1111 67.9118 54.1111 67.7113 54.3112C66.1538 55.883 63.8238 56.6626 61.6316 56.3499C59.4393 56.0373 57.4225 54.6364 56.3702 52.6935C55.3973 50.9049 55.2595 48.6869 55.9735 46.7816C57.0341 47.2986 58.2117 47.5737 59.3934 47.5737C60.0156 47.5737 60.6336 47.4987 61.239 47.3444C63.377 46.8024 65.6026 44.8971 65.5149 42.4331C65.5066 42.1537 65.2727 41.9328 64.9888 41.9411C64.709 41.9494 64.4877 42.1871 64.4961 42.4664C64.5629 44.3968 62.7381 45.9102 60.9885 46.3563C58.9007 46.8858 56.5999 46.3355 54.9797 44.9179C53.3596 43.5004 52.5119 41.2949 52.7624 39.1602C52.7958 38.8809 52.5954 38.6307 52.3156 38.5974C52.0359 38.564 51.7811 38.7642 51.7519 39.0435C51.4638 41.5075 52.4409 44.0507 54.3116 45.6851C54.5538 45.8977 54.8127 46.0853 55.0799 46.2646C54.3367 48.1366 54.3241 50.2879 55.0256 52.1766L55.5476 53.2939C56.7711 55.4536 59.0343 57.0045 61.4938 57.3547C61.8612 57.4048 62.2287 57.4339 62.5961 57.4339C64.755 57.4339 66.918 56.5584 68.4379 55.0283C68.6383 54.8282 68.6342 54.5071 68.4337 54.307Z" fill="#8C8F92"/>
<path d="M45.2296 55.6327C45.1921 55.2533 44.7661 55.0448 44.4488 55.2575C43.409 55.9496 42.1605 56.3665 40.9162 56.4165C39.3837 56.479 37.7969 55.9871 36.5693 55.0657C35.9847 54.6279 35.2665 53.9191 35.1621 53.0186C35.1287 52.7392 34.8782 52.5391 34.5984 52.5725C34.3186 52.6058 34.1182 52.856 34.1516 53.1353C34.2977 54.3944 35.2164 55.3242 35.9597 55.8787C36.277 56.1163 36.6069 56.3248 36.9535 56.5082C38.1769 57.1628 39.5633 57.4838 40.9579 57.4296C42.4069 57.3713 43.8183 56.9043 45.0125 56.1038C45.167 55.9996 45.2463 55.8161 45.2296 55.6327V55.6327Z" fill="#8C8F92"/>
<path d="M47.9772 31.1306C48.211 31.2849 48.5284 31.2224 48.6829 30.9847C50.4868 28.2497 54.4244 27.0448 57.456 28.2956C60.4875 29.5463 62.4208 33.1777 61.7652 36.3839C61.711 36.659 61.8863 36.9259 62.1619 36.9842C62.1953 36.9926 62.2287 36.9926 62.2663 36.9926C62.5043 36.9926 62.7173 36.8258 62.7632 36.584C63.5232 32.8609 61.3644 28.8042 57.8443 27.3492C54.3242 25.8983 49.9272 27.2449 47.831 30.4177C47.6807 30.6595 47.7433 30.9764 47.9772 31.1306Z" fill="#8C8F92"/>
<circle cx="79.5" cy="14.5" r="14.5" fill="#F7AB1E"/>
<path d="M86.7075 12.2643H81.7361V7.29299C81.7361 6.8535 81.3795 6.5 80.9432 6.5H78.061C77.6215 6.5 77.268 6.85669 77.268 7.29299V12.2643H72.2967C71.8572 12.2643 71.5037 12.621 71.5037 13.0573V15.9395C71.5037 16.379 71.8603 16.7325 72.2967 16.7325H77.268V21.707C77.268 22.1465 77.6247 22.5 78.061 22.5H80.9432C81.3826 22.5 81.7361 22.1433 81.7361 21.707V16.7325H86.7075C87.147 16.7325 87.5005 16.3758 87.5005 15.9395V13.0573C87.5005 12.621 87.147 12.2643 86.7075 12.2643Z" fill="white"/>
</svg>
