<svg width="74" height="90" viewBox="0 0 74 90" fill="none" xmlns="http://www.w3.org/2000/svg">
<path d="M43.9873 5.38828C53.756 6.99962 62.5385 13.6575 66.6895 22.5995C68.5122 26.5304 69.4805 30.9572 68.7614 35.2281C68.0423 39.4991 65.4791 43.5681 61.5915 45.5124C58.2985 47.1627 54.4288 47.1839 50.762 46.7873C39.5124 45.5655 28.7078 40.6075 20.4735 32.8873C17.8711 30.4472 15.4539 27.6283 14.4428 24.2179C11.2317 13.406 26.2514 6.56757 34.7633 5.32453C37.8143 4.87832 40.9399 4.8854 43.9873 5.38828Z" fill="#C1E3DE"/>
<path fill-rule="evenodd" clip-rule="evenodd" d="M28.4988 89.9964C29.0154 90 29.5321 90 30.0487 90C33.4762 90 36.9394 89.9678 40.31 89.932C40.7984 89.9275 41.2871 89.9229 41.7759 89.9182C43.2516 89.9041 44.7283 89.8899 46.2031 89.8819C49.089 89.864 51.9715 89.5454 53.4928 87.3796C54.8361 85.4644 54.4299 83.1125 54.0344 80.8394C53.8954 80.0518 53.7565 79.2356 53.6959 78.466C53.3717 74.2776 55.6448 70.4115 57.6045 67.9021C58.9022 66.2384 60.4045 64.6847 61.8552 63.1844L61.8764 63.1625L61.8996 63.1386C63.1323 61.8644 64.4062 60.5477 65.5641 59.1567C73.4417 49.6954 76.0819 36.0744 72.2945 24.4473C68.4536 12.6591 58.2387 3.35527 46.2743 0.742036C34.3314 -1.86762 20.949 2.54982 12.9751 11.7319C5.53526 20.2983 2.85861 31.887 0.497112 42.1112L0.494121 42.1242C0.209086 43.352 -0.111578 44.7446 0.0380653 46.1228C0.176302 47.3728 0.670687 48.5023 1.14937 49.596L1.15683 49.613L5.26846 58.9813C6.79696 62.4608 8.42879 65.7041 11.5749 67.1682C12.9264 67.7974 14.4149 67.9995 15.8555 68.1951L15.886 68.1992L15.9003 68.2011C17.534 68.4224 19.0752 68.6311 20.4074 69.4128C23.6532 71.3172 24.2197 75.8957 24.2696 78.4588C24.2696 78.9567 24.2605 79.4568 24.2514 79.9574C24.2491 80.0831 24.2468 80.2089 24.2447 80.3346C24.2055 82.3286 24.1663 84.3905 24.5083 86.388C24.9679 89.0872 25.6093 89.9857 28.4988 89.9964ZM13.6414 12.3262C19.9193 5.09504 29.6425 0.899546 39.2838 0.899546C41.5677 0.899546 43.848 1.13581 46.0784 1.61908C57.7399 4.1643 67.6947 13.2354 71.4394 24.7265C75.1341 36.0672 72.5581 49.3553 64.8729 58.5839C63.7292 59.955 62.4608 61.2688 61.2315 62.5396C59.7565 64.0646 58.2315 65.6432 56.8954 67.3508C54.8361 69.9819 52.4525 74.0593 52.7981 78.534C52.8609 79.3266 53.0024 80.1501 53.1388 80.944L53.1472 80.9933C53.5285 83.1841 53.8883 85.2532 52.7553 86.8641C51.4655 88.7005 48.8361 88.969 46.1852 88.9869C44.236 89.0011 42.2902 89.0188 40.341 89.0366L40.2886 89.037C36.4228 89.0728 32.4252 89.1086 28.4988 89.0979C26.215 89.0907 25.8052 88.7149 25.3812 86.2341C25.0555 84.331 25.0922 82.3254 25.1276 80.3859L25.1283 80.3489C25.1425 79.7117 25.1532 79.0817 25.1532 78.4517V78.4445C25.1105 76.3432 24.7969 74.4853 24.2126 72.9173C23.4858 70.9592 22.3528 69.5201 20.8492 68.6395C19.3599 67.7696 17.6497 67.5369 15.9965 67.315C14.5499 67.1217 13.1817 66.9355 11.9418 66.3592C9.07724 65.0275 7.53449 61.9382 6.07725 58.6233L1.96562 49.2551L1.96525 49.2542C1.50931 48.2164 1.03922 47.1463 0.918111 46.0297C0.786282 44.8018 1.07488 43.5453 1.35635 42.3318L1.35894 42.3206C3.69916 32.1962 6.35072 20.7248 13.6414 12.3262Z" fill="#8C8F92"/>
<ellipse cx="39.5" cy="24.5" rx="15.2495" ry="15.2573" transform="rotate(-9.21836 39.5 24.5)" fill="#F7AB1E"/>
<path d="M47.597 21.985H42.0051V16.3901C42.0051 15.8962 41.6042 15.4981 41.1136 15.4981H37.8733C37.3797 15.4981 36.9817 15.8992 36.9817 16.3901V21.985H31.3899C30.8962 21.985 30.4983 22.3862 30.4983 22.8771V26.1191C30.4983 26.613 30.8992 27.0111 31.3899 27.0111H36.9817V32.606C36.9817 33.0999 37.3827 33.4981 37.8733 33.4981H41.1136C41.6072 33.4981 42.0051 33.0969 42.0051 32.606V27.0111H47.597C48.0907 27.0111 48.4886 26.61 48.4886 26.1191V22.8771C48.4916 22.3862 48.0907 21.985 47.597 21.985Z" fill="white"/>
</svg>
