<svg width="75" height="90" viewBox="0 0 75 90" fill="none" xmlns="http://www.w3.org/2000/svg">
<path d="M53.033 5.00503C62.9535 9.04366 70.1951 19.1017 70.9393 29.8861C71.1643 33.1434 70.805 36.5548 69.1642 39.3683C67.5235 42.1818 64.4018 44.2689 61.1821 43.9718C58.6629 43.7371 56.4923 42.1634 54.4559 40.6448C46.4882 34.6951 38.5242 28.7416 30.5566 22.7919C28.4658 21.2329 26.3386 19.63 24.8504 17.4804C23.6271 15.7087 22.2986 12.3927 23.4275 10.2615C24.393 8.44209 27.4821 7.04452 29.2317 6.1605C33.8925 3.80554 39.1849 2.73077 44.3829 3.05724C47.3449 3.24065 50.2779 3.88624 53.033 5.00503Z" fill="#C1E3DE"/>
<path d="M24.5854 82H23.676V79.2461C23.2738 71.0866 19.7628 67.6761 17.7083 66.3703C15.2264 64.7946 14.5814 64.656 12.661 64.2365C12.1248 64.1198 11.4581 63.9739 10.6356 63.7733C10.2696 63.6821 9.90005 63.5982 9.53047 63.5106C7.97243 63.1495 6.36005 62.7738 4.8781 62.0553C2.72221 61.0157 1.22578 59.3488 0.769236 57.4885C0.298202 55.5553 1.09896 53.5529 1.80189 51.7874C1.90334 51.5321 2.00479 51.2768 2.10262 51.0251C2.33452 50.4196 2.26205 49.7083 1.90696 49.1685C1.81276 49.0263 1.70043 48.8877 1.57724 48.7417C1.40332 48.5302 1.22215 48.315 1.07722 48.0487C0.707639 47.3703 0.696769 46.5168 1.04461 45.8274C1.21853 45.4809 1.52289 45.1562 1.8816 44.9082C1.64246 44.7185 1.43955 44.4814 1.29462 44.2079C0.859819 43.3835 0.928662 42.5592 1.46854 42.1032C2.35263 41.3591 3.10267 40.6697 3.33094 39.7688C3.40703 39.4588 3.41065 39.218 3.33456 38.9007C2.47945 38.3244 1.54101 37.6678 0.867066 36.7632C0.0409448 35.6544 -0.219936 34.2939 0.193125 33.2142C0.602562 32.1418 1.55912 31.467 2.33089 30.9235C2.96498 30.4749 3.62443 30.0518 4.26213 29.6432C6.03757 28.5052 7.71517 27.4292 8.97972 25.8316C9.98338 24.5659 10.5269 23.0376 11.1066 21.4217C11.3421 20.7651 11.5849 20.0867 11.8603 19.4338C13.2299 16.1765 15.4365 13.3971 17.567 10.7125C19.9584 7.69966 24.4441 4.86187 25.7594 4.06306C32.5169 -0.0331244 37.999 -0.168083 43.9558 0.0726541C50.8039 0.349867 57.3984 2.55663 62.5218 6.28806C66.1161 8.90699 69.167 12.4342 71.3446 16.4939C73.5186 20.5536 74.7723 25.0583 74.9716 29.5192C75.1709 33.9838 74.3194 38.5834 72.5149 42.8218C70.7105 47.0602 67.9821 50.85 64.6342 53.779C61.7645 56.2885 60.0362 58.0247 57.5107 60.9209C53.0794 66.0055 52.0757 73.7857 55.0686 79.8443L54.2569 80.2528C51.1046 73.8733 52.1627 65.6773 56.8295 60.319C59.384 57.3901 61.134 55.6319 64.04 53.0896C67.2865 50.2482 69.9279 46.5715 71.6816 42.4607C73.4353 38.3499 74.2578 33.889 74.0657 29.5593C73.8737 25.2334 72.6563 20.8636 70.5475 16.9243C68.4387 12.9849 65.4784 9.56355 61.9928 7.02486C57.0107 3.39921 50.5938 1.25081 43.9232 0.984539C36.8794 0.700031 32.2089 1.22163 26.2304 4.84728C24.9441 5.62785 20.5744 8.39269 18.2772 11.2852C16.1829 13.9224 14.0198 16.6471 12.6973 19.7912C12.4328 20.4223 12.1936 21.0861 11.9617 21.7317C11.382 23.3476 10.7841 25.0145 9.68989 26.4006C8.33114 28.1186 6.51223 29.2858 4.75128 30.4165C4.12082 30.8214 3.47225 31.2372 2.85265 31.6749C2.03016 32.2549 1.32723 32.7947 1.04099 33.5425C0.682276 34.4835 1.09171 35.5413 1.59536 36.2125C2.21495 37.0405 3.11354 37.6496 3.98314 38.2332C4.0701 38.2916 4.13532 38.3827 4.16793 38.4849C4.33098 39.0393 4.34547 39.477 4.21503 39.9913C3.89618 41.2534 2.83454 42.1506 2.05552 42.8036C1.83087 42.9932 1.92146 43.4419 2.099 43.7775C2.29466 44.1459 2.68236 44.4085 3.09542 44.4522C3.32369 44.4778 3.49761 44.6675 3.50123 44.9009C3.50486 45.1307 3.33456 45.3313 3.10991 45.3605C2.63888 45.4261 2.06277 45.8274 1.85624 46.2359C1.64608 46.6554 1.65333 47.1952 1.87798 47.6074C1.97943 47.7934 2.12436 47.9648 2.27654 48.1508C2.41061 48.3113 2.54829 48.4755 2.67149 48.6652C3.18238 49.4494 3.28746 50.478 2.95411 51.3534C2.85628 51.6087 2.75482 51.864 2.64975 52.1267C1.96494 53.8447 1.25476 55.621 1.65695 57.2697C2.04465 58.8637 3.36355 60.3081 5.27304 61.2309C6.66803 61.9021 8.22969 62.2668 9.74062 62.617C10.1138 62.7045 10.487 62.7921 10.8566 62.8833C11.6682 63.0839 12.2987 63.2188 12.8567 63.3428C14.8387 63.7733 15.5814 63.9374 18.1975 65.597C20.5744 67.1071 22.3317 69.5072 23.4223 72.7389C24.0745 74.6684 24.4767 76.908 24.5891 79.2133C24.5891 79.2206 24.5891 79.2279 24.5891 79.2352V82H24.5854Z" fill="#8C8F92"/>
<path d="M22.6949 33C21.6206 33 20.5463 32.779 19.5506 32.3332C17.6116 31.4679 15.9683 29.7634 15.04 27.6581C14.9352 27.4221 15.0437 27.1449 15.2796 27.04C15.5154 26.9351 15.7924 27.0438 15.8972 27.2798C16.7319 29.1753 18.1993 30.7037 19.9324 31.4754C21.6468 32.2396 23.6233 32.2583 25.3489 31.5241C25.5885 31.4229 25.8617 31.5353 25.9628 31.7713C26.0639 32.011 25.9516 32.2845 25.7157 32.3856C24.7537 32.794 23.7243 33 22.6949 33Z" fill="#8C8F92"/>
<path fill-rule="evenodd" clip-rule="evenodd" d="M49 82C49 86.4121 52.5879 90 57 90C61.4121 90 65 86.4121 65 82C65 77.5879 61.4121 74 57 74C52.5879 74 49 77.5879 49 82ZM50 82C50 78.14 53.14 75 57 75C60.86 75 64 78.14 64 82C64 85.86 60.86 89 57 89C53.14 89 50 85.86 50 82Z" fill="#8C8F92"/>
<path fill-rule="evenodd" clip-rule="evenodd" d="M51 82C51 85.3078 53.6922 88 57 88C60.3078 88 63 85.3078 63 82C63 78.6922 60.3078 76 57 76C53.6922 76 51 78.6922 51 82ZM52 82C52 79.2414 54.2414 77 57 77C59.7586 77 62 79.2414 62 82C62 84.7586 59.7586 87 57 87C54.2414 87 52 84.7586 52 82Z" fill="#8C8F92"/>
<circle cx="57" cy="82" r="4" fill="#8C8F92"/>
<path fill-rule="evenodd" clip-rule="evenodd" d="M67.0315 28.1069C66.7045 27.6168 66.302 27.1848 65.8492 26.8145C67.0602 25.8234 67.6927 24.1825 67.4699 22.5706C67.2507 20.9805 66.1978 19.4484 64.7208 18.5735C63.6067 17.9128 62.2735 17.6151 60.9439 17.7095C61.5117 16.7438 61.7381 15.5494 61.5584 14.3659C61.3499 13.0081 60.6276 11.6758 59.5244 10.6048C58.5505 9.6609 57.3071 8.92756 55.8265 8.41931C54.2166 7.86749 52.6031 7.69686 51.162 7.92558C49.5628 8.1797 48.1218 8.95298 47.1839 10.053C47.0401 10.0058 46.8964 9.96949 46.749 9.94044C46.7778 9.16717 46.5155 8.35033 46.0016 7.64241C45.5092 6.96715 44.7977 6.38266 43.8813 5.90708C42.5337 5.20278 41.0388 4.8942 39.6732 5.03216C38.1567 5.18463 36.7875 5.89256 35.9107 6.97078C35.0805 7.99092 34.7355 9.33054 34.9512 10.5721C33.7689 9.88962 32.3134 9.68269 31.0089 10.0385C29.4888 10.456 28.2454 11.6141 27.7675 13.0626C27.2824 14.5256 27.6202 16.2464 28.6228 17.4445C28.6911 17.528 28.7665 17.6078 28.842 17.6841C27.5698 18.6461 26.8475 20.2979 27.0272 21.8881C27.2177 23.5798 28.4251 25.1699 30.0315 25.8452C30.0565 25.8547 30.0809 25.8649 30.1055 25.8752L30.1056 25.8752C30.1374 25.8885 30.1695 25.9019 30.204 25.9142C30.8868 26.1647 31.7385 26.2627 32.4608 25.9614C32.2164 27.094 32.4967 28.3683 33.2514 29.3667C33.8263 30.1291 34.6637 30.7208 35.6124 31.0693C36.0364 31.2254 36.4856 31.3307 36.942 31.3815C37.9087 31.4868 38.8143 31.3416 39.5618 30.9604C39.8924 30.7934 40.1871 30.5792 40.435 30.336C40.4674 31.3343 40.7764 32.3037 41.3298 33.1169C41.9084 33.9627 42.7493 34.6017 43.6765 34.9429C44.043 35.0773 44.424 35.1608 44.8085 35.1971C44.8264 35.2225 44.8444 35.2443 44.8696 35.2661C46.8676 36.9143 48.1793 39.4011 48.3805 41.9242L48.3877 42.0331C48.4165 42.4361 48.4524 42.8971 48.7112 43.2929C48.8944 43.5724 49.1711 43.7793 49.4874 43.8955C49.8252 44.0189 50.2025 44.0371 50.5511 43.9282C51.0183 43.7793 51.4208 43.4272 51.7873 42.8463C51.8664 42.7192 51.9418 42.5886 52.0173 42.4579L52.0516 42.3993C52.154 42.2242 52.2527 42.0556 52.3659 41.8988C52.9085 42.4179 53.5949 42.8354 54.3891 43.1259L54.4258 43.1389L54.4259 43.139C54.4847 43.1599 54.5422 43.1804 54.6047 43.1985C55.6073 43.5288 56.6028 43.6051 57.4796 43.4127C58.5613 43.1767 59.5244 42.5232 60.1173 41.6156C60.6959 40.7298 60.9115 39.6262 60.7139 38.5733C60.7318 38.5697 60.7498 38.5661 60.7642 38.5625C61.8351 38.3156 62.6868 37.4116 62.888 36.3152C63.7613 36.4859 64.7244 36.3225 65.5401 35.8578C66.2876 35.4331 66.9129 34.7687 67.3549 33.941C68.3216 32.1403 68.1922 29.8495 67.0315 28.1069ZM51.198 42.4724C50.9212 42.9117 50.6373 43.173 50.3283 43.2711C49.9581 43.3909 49.5089 43.2384 49.3077 42.9334C49.146 42.6866 49.1208 42.3526 49.0957 42.0004L49.0885 41.8879C48.8872 39.3902 47.6726 36.9251 45.8003 35.168C46.5622 35.0519 47.2665 34.7288 47.8271 34.2459C47.8343 34.6017 47.8918 34.9575 47.9996 35.306C48.3195 36.3225 49.0777 37.2519 50.0767 37.8582C50.3463 38.0215 50.6266 38.1558 50.9105 38.2575C50.9776 38.2811 51.0471 38.3023 51.1151 38.323L51.162 38.3374C50.9284 39.3321 51.198 40.4539 51.8951 41.3651C51.7082 41.6011 51.5573 41.8588 51.4136 42.1057C51.3935 42.1402 51.3737 42.1746 51.354 42.209L51.354 42.209L51.3539 42.2091C51.303 42.2978 51.2523 42.3861 51.198 42.4724ZM65.1808 35.2624C65.8168 34.903 66.3559 34.333 66.7368 33.6142C67.5705 32.0495 67.4555 29.9838 66.4421 28.4591C65.4359 26.9488 63.5385 25.9977 61.7237 26.0884C61.5296 26.0957 61.3607 25.9505 61.3464 25.7617C61.332 25.5729 61.4757 25.4132 61.6698 25.4023C62.9311 25.3369 64.1961 25.7 65.2562 26.3752C66.3774 25.5475 66.9704 24.0772 66.7727 22.6323C66.5823 21.2491 65.6623 19.9131 64.3686 19.1471C63.2258 18.4719 61.8171 18.225 60.4551 18.4465C61.1236 19.5283 61.181 20.9442 60.5414 22.0224C60.4551 22.1676 60.279 22.2257 60.1209 22.1676C60.103 22.1603 60.0814 22.1495 60.0634 22.1386C59.8981 22.0405 59.837 21.83 59.9341 21.6666C60.5234 20.6719 60.3581 19.256 59.5495 18.3811C58.741 17.5062 57.3215 17.2012 56.2434 17.6732C56.0673 17.7494 55.8589 17.6732 55.7762 17.4989C55.6936 17.3247 55.7655 17.1214 55.9415 17.0451C57.2676 16.4643 58.9386 16.8019 59.9736 17.8402C59.9793 17.8402 59.985 17.8379 59.9908 17.8369C59.9922 17.8367 59.9937 17.8365 59.9952 17.8365C60.7318 16.9435 61.0553 15.6874 60.8648 14.4421C60.6779 13.2368 60.0311 12.0424 59.0357 11.0804C58.1408 10.2127 56.9873 9.53384 55.6073 9.06189C54.1088 8.55 52.6138 8.39027 51.2878 8.60083C49.9222 8.81865 48.6896 9.45034 47.8523 10.3543C48.0176 10.4523 48.1757 10.5612 48.323 10.6883C49.1244 11.3744 49.5557 12.4382 49.4479 13.4583C49.4263 13.6471 49.2574 13.7814 49.0633 13.756C48.8693 13.7306 48.7327 13.5599 48.7507 13.3712C48.8333 12.5834 48.4884 11.7302 47.8702 11.2002C47.2521 10.6665 46.3465 10.4451 45.5631 10.6338C44.7797 10.8226 44.1005 11.4216 43.831 12.1659C43.7663 12.3438 43.5687 12.4309 43.3854 12.3655C43.2021 12.2966 43.1051 12.1005 43.1698 11.9226C43.522 10.9606 44.3701 10.2127 45.3835 9.96949C45.5991 9.91866 45.8255 9.88962 46.0483 9.88599C46.0698 9.26882 45.8542 8.60809 45.4338 8.03086C45.0097 7.44637 44.3808 6.93448 43.5651 6.50972C42.3432 5.87441 40.992 5.59124 39.7666 5.71467C38.4334 5.84899 37.2295 6.46616 36.4677 7.40643C35.6627 8.39753 35.3896 9.73714 35.7525 10.8952C35.7921 11.0296 35.7489 11.1639 35.6519 11.2474C35.6447 11.3091 35.6232 11.3708 35.58 11.4253C35.4614 11.5705 35.2422 11.5959 35.0877 11.4761C34.0024 10.6375 32.5219 10.3398 31.2174 10.6956C29.9129 11.0513 28.8456 12.0424 28.4359 13.284C28.0226 14.5329 28.3065 15.9959 29.1618 17.0124C30.0171 18.0326 31.4617 18.5844 32.7554 18.3847C32.9459 18.3557 33.1292 18.4828 33.1651 18.6715C33.2011 18.8567 33.0753 19.0346 32.8848 19.0636C32.1302 19.1834 31.3467 19.0927 30.6208 18.8276C30.1824 18.6643 29.7655 18.4392 29.3882 18.156C28.2347 18.9656 27.5698 20.425 27.728 21.8263C27.8897 23.2712 28.921 24.6326 30.2974 25.2099C30.9407 25.4821 31.9109 25.6165 32.5183 25.1119C32.5794 25.061 32.6548 25.0392 32.7303 25.0356C32.4859 24.7706 32.2919 24.4729 32.1697 24.1498C31.8283 23.2604 32.0619 22.2402 32.7339 21.6702C32.8812 21.5468 33.1004 21.565 33.2298 21.7102C33.3592 21.8554 33.3448 22.0696 33.2011 22.193C32.7483 22.5778 32.5901 23.3075 32.8237 23.9247C33.0465 24.5165 33.5999 25.0247 34.2827 25.268C34.8972 25.4894 35.6339 25.5221 36.4102 25.366C36.597 25.3297 36.7875 25.4495 36.8306 25.6346C36.8737 25.8234 36.7552 26.0049 36.5683 26.0412C35.6627 26.2227 34.7966 26.1792 34.0563 25.9105C34.0527 25.9105 34.0492 25.9069 34.0456 25.9069C33.7904 25.8161 33.5496 25.6891 33.3304 25.5439L33.3196 25.5765C32.8633 26.6294 33.0573 27.9581 33.8156 28.9637C34.5271 29.9076 35.7202 30.5574 37.0067 30.6954C37.8332 30.7862 38.6023 30.6663 39.2312 30.3469C39.9104 30.002 40.4171 29.4066 40.586 28.7495C40.6327 28.568 40.8231 28.4591 41.01 28.5099C41.1969 28.5571 41.3119 28.7495 41.2652 28.931C41.2616 28.9419 41.258 28.9519 41.2544 28.9619C41.2508 28.9719 41.2472 28.9818 41.2436 28.9927C41.2544 29.0399 41.258 29.0908 41.2472 29.1416C40.9777 30.3904 41.2292 31.7337 41.9156 32.7393C42.6451 33.8066 43.8598 34.4892 45.0852 34.5218C46.3394 34.5581 47.5684 33.8502 48.0751 32.801C48.0859 32.7829 48.0966 32.7647 48.1074 32.7502C48.2045 32.5215 48.323 32.3037 48.4704 32.104C48.5818 31.9515 48.801 31.9225 48.9591 32.035C49.1172 32.1475 49.1532 32.3617 49.0418 32.5142C48.5279 33.2149 48.3841 34.2096 48.668 35.1136C48.9412 35.9704 49.5844 36.7545 50.4361 37.27C51.3633 37.8291 52.409 37.978 53.2319 37.673C54.1268 37.339 54.6945 36.3987 54.4969 35.5746C54.4502 35.3895 54.5688 35.208 54.7556 35.168C54.9425 35.1281 55.133 35.2479 55.1761 35.4331C55.4564 36.5948 54.7161 37.8582 53.4907 38.3156C52.9876 38.5044 52.4234 38.5552 51.8484 38.4826C51.6543 39.2813 51.8879 40.2288 52.4629 40.9767C53.1457 41.8588 54.1232 42.3199 54.8203 42.5486C55.7008 42.8391 56.5668 42.908 57.3179 42.7447C58.2271 42.545 59.0321 41.9968 59.5316 41.2344C60.0275 40.4757 60.2072 39.5245 60.0203 38.6242C59.7436 38.606 59.4705 38.5479 59.2117 38.4535C58.6296 38.2393 58.1229 37.8473 57.8174 37.3317C57.7204 37.1647 57.7779 36.9542 57.9432 36.8634C58.1085 36.7727 58.3241 36.8308 58.4211 36.9978C58.8344 37.6984 59.7688 38.0832 60.5917 37.8945C61.3931 37.7129 62.0579 37.0014 62.2052 36.1664C62.3454 35.3713 62.0363 34.4746 61.411 33.8647C61.4003 33.8715 61.3895 33.8788 61.3786 33.8862C61.3603 33.8987 61.3414 33.9114 61.3212 33.9228C60.5773 34.3621 59.6106 34.4165 58.7805 34.1116C58.4894 34.0063 58.2163 33.8575 57.9755 33.6651C57.8246 33.5452 57.7994 33.3274 57.918 33.1822C58.0366 33.037 58.2594 33.0188 58.4104 33.1386C59.1183 33.7014 60.1856 33.7849 60.9475 33.3347C61.7093 32.8881 62.1226 31.9334 61.9321 31.0657C61.889 30.8769 62.0076 30.699 62.198 30.6627C62.3885 30.6264 62.5754 30.7498 62.6149 30.935C62.8126 31.8136 62.5323 32.7611 61.9321 33.4218C62.5394 34.0317 62.8952 34.834 62.9347 35.6364C62.9527 35.6364 62.9671 35.6364 62.9851 35.64C63.7002 35.7852 64.5016 35.6509 65.1808 35.2624Z" fill="white"/>
<path d="M44.1831 17.5353C44.5137 18.334 44.334 19.3215 43.7447 19.935C43.6153 20.0729 43.6225 20.2871 43.7662 20.4215C43.8022 20.4541 43.8453 20.4795 43.8884 20.4977C44.0178 20.5449 44.1651 20.5159 44.2622 20.4142C45.042 19.601 45.272 18.3485 44.8335 17.2921C44.3951 16.2356 43.3278 15.4696 42.1743 15.3861C41.0243 15.3026 39.8851 15.9053 39.3461 16.8927C39.2562 17.0597 39.3209 17.2667 39.4934 17.361C39.6659 17.4554 39.8779 17.3937 39.9678 17.2303C40.3774 16.4861 41.2687 16.0105 42.1419 16.0723C43.0116 16.134 43.8525 16.733 44.1831 17.5353Z" fill="white"/>
<path d="M55.4957 25.5332C55.3053 25.486 55.1184 25.5986 55.0789 25.7837C55.0357 25.9689 55.1579 26.154 55.3448 26.2012C56.5019 26.4808 57.5046 27.4029 57.8388 28.4992C58.1766 29.6065 57.8208 30.8953 56.9727 31.6359C56.0994 32.3947 54.7626 32.5653 53.7133 32.0498C53.5372 31.9626 53.3288 32.0316 53.2461 32.1986C53.1634 32.3692 53.2353 32.5762 53.4114 32.6597C53.5228 32.7141 53.6378 32.765 53.7528 32.8049C54.989 33.2587 56.4624 33.0118 57.4471 32.1551C58.5036 31.2329 58.9312 29.6936 58.5108 28.3177C58.0975 26.9672 56.9152 25.8745 55.4957 25.5332Z" fill="white"/>
<path d="M53.1815 29.0691C52.3621 29.4394 51.3523 29.4031 50.5437 28.9747C49.7352 28.5463 49.1386 27.7295 48.9949 26.8436C48.8655 26.074 49.0811 25.2681 49.5555 24.6581C49.9077 24.9849 50.3245 25.2426 50.7773 25.4096C51.0397 25.504 51.3128 25.5694 51.5895 25.602C52.5849 25.711 53.8247 25.2608 54.1589 24.2116C54.2164 24.0301 54.1122 23.8377 53.9289 23.776C53.7457 23.7142 53.548 23.8123 53.4905 23.9902C53.2749 24.6727 52.3837 24.9958 51.6506 24.9159C50.7701 24.8179 49.9544 24.2842 49.516 23.5218C49.0847 22.7703 49.0524 21.7974 49.4333 21.0386C49.5195 20.8716 49.4441 20.6647 49.2716 20.5776C49.0955 20.4905 48.8871 20.5558 48.8044 20.7264C48.3193 21.6921 48.3588 22.8901 48.9086 23.8486C48.9625 23.943 49.0236 24.0337 49.0847 24.1245C48.5529 24.7525 48.2582 25.573 48.2618 26.3971C47.4029 27.1341 46.0086 27.2212 45.0347 26.5786C44.0285 25.9143 43.5685 24.542 43.9961 23.4529C44.0644 23.2786 43.9746 23.0753 43.7913 23.0063C43.6116 22.9337 43.4068 23.0208 43.3385 23.1951C43.166 23.6344 43.1085 24.11 43.1516 24.5819C42.7491 25.043 42.167 25.3697 41.5489 25.4714C40.9308 25.5766 40.2552 25.4641 39.6982 25.1591C39.4897 25.0466 39.1268 24.8034 39.0297 24.4621C38.9794 24.277 38.7854 24.168 38.5985 24.2116C38.4116 24.2588 38.3038 24.444 38.3541 24.6291C38.5123 25.1918 38.9938 25.5549 39.3711 25.7582C39.5257 25.8417 39.6874 25.9143 39.8527 25.976C40.4384 26.1902 41.0709 26.2519 41.6854 26.1466C42.2964 26.045 42.8606 25.7799 43.3205 25.3915C43.5577 26.0958 44.0177 26.7311 44.6502 27.1486C44.8586 27.2865 45.0814 27.3991 45.315 27.4826C46.3104 27.8456 47.4748 27.7367 48.3552 27.1958C48.5996 28.1905 49.2967 29.0909 50.2203 29.581C50.3676 29.6572 50.5186 29.7262 50.6731 29.7843C51.5823 30.1183 52.6244 30.0928 53.4869 29.7008C53.6594 29.6209 53.7313 29.4176 53.6486 29.247C53.566 29.0654 53.3539 28.9892 53.1815 29.0691Z" fill="white"/>
<path d="M48.3983 17.1724C48.5169 17.3248 48.7361 17.3611 48.8906 17.2486C49.9651 16.4717 51.6577 16.577 52.6675 17.4809C53.6774 18.3849 53.9361 20.0331 53.2461 21.1513C53.1455 21.311 53.203 21.5252 53.3683 21.6232C53.3899 21.6341 53.4114 21.645 53.433 21.6559C53.5875 21.714 53.7636 21.6595 53.8499 21.5179C54.7159 20.1093 54.4033 18.1163 53.1347 16.9799C51.8662 15.8436 49.8142 15.7166 48.4666 16.6931C48.3121 16.8057 48.2833 17.0199 48.3983 17.1724Z" fill="white"/>
<path fill-rule="evenodd" clip-rule="evenodd" d="M19.1233 5.39524L19.448 5.86368C19.588 5.76145 19.7323 5.66142 19.8759 5.56188C19.9174 5.53315 19.9588 5.50445 20 5.47575L19.6861 5C19.4985 5.12809 19.3073 5.26349 19.1233 5.39524ZM18.3692 6.67612L18.0229 6.22598C18.2032 6.08326 18.3873 5.94053 18.5676 5.80512L18.9032 6.26624C18.7753 6.36156 18.6474 6.46071 18.5181 6.56092L18.5181 6.56092L18.5179 6.56105C18.4686 6.5993 18.419 6.63771 18.3692 6.67612ZM16.9657 7.1043L17.3337 7.5398L17.3921 7.48943C17.5429 7.35918 17.6959 7.22704 17.8461 7.10064L17.4889 6.65782C17.3157 6.80421 17.1389 6.95425 16.9657 7.1043ZM16.3343 8.45105L15.9447 8.03385C16.1106 7.87649 16.2802 7.71912 16.4498 7.56176L16.8286 7.98628C16.7423 8.06809 16.656 8.14892 16.5703 8.22927L16.5702 8.22932L16.5702 8.22936L16.5701 8.22941C16.491 8.30356 16.4122 8.37731 16.3343 8.45105ZM14.9705 9.01098L15.3782 9.40988L15.8473 8.92315L15.4504 8.51693C15.2916 8.67795 15.1293 8.84629 14.9705 9.01098ZM14.469 10.4126L14.0433 10.032L14.1536 9.90641L14.1536 9.90639C14.2685 9.77524 14.384 9.64353 14.5015 9.51601L14.9164 9.90393C14.7649 10.0723 14.6133 10.2443 14.469 10.4126ZM13.163 11.097L13.6031 11.4556C13.7438 11.2763 13.8845 11.1006 14.0325 10.9286L13.5995 10.559C13.4516 10.7383 13.3037 10.9177 13.163 11.097ZM12.7841 12.5352L12.3295 12.1985C12.463 12.0119 12.6001 11.8253 12.7408 11.6423L13.1882 11.9899C13.1024 12.1021 13.0181 12.2172 12.9342 12.3316L12.9342 12.3316C12.884 12.4 12.8341 12.4681 12.7841 12.5352ZM11.543 13.3367L12.0156 13.6551C12.1419 13.4648 12.2682 13.2745 12.3945 13.0915L11.929 12.7621C11.7992 12.9524 11.6693 13.1427 11.543 13.3367ZM11.3013 14.8042L10.8178 14.5078C10.8948 14.376 10.9749 14.2443 11.0551 14.1125C11.0952 14.0467 11.1353 13.9808 11.175 13.9149L11.6512 14.2223C11.5322 14.4163 11.4131 14.6139 11.3013 14.8042ZM10.1359 15.7191L10.6338 15.9899C10.6879 15.8911 10.742 15.7914 10.7962 15.6917L10.7963 15.6913C10.8504 15.5917 10.9044 15.4921 10.9585 15.3934L10.4678 15.1116C10.356 15.3129 10.2441 15.5178 10.1359 15.7191ZM10.0241 17.2049L9.51533 16.9561C9.59331 16.7891 9.67591 16.6221 9.75758 16.457L9.75761 16.457L9.8184 16.3339L10.3235 16.5938C10.2225 16.7951 10.1215 17 10.0241 17.2049ZM8.9525 18.2223L9.47204 18.4456C9.55863 18.237 9.64883 18.0284 9.74263 17.8234L9.2267 17.5855L9.22668 17.5856C9.13288 17.7978 9.03908 18.0101 8.9525 18.2223ZM8.97414 19.7118L8.44378 19.5142C8.52315 19.2983 8.60613 19.0823 8.68911 18.8664L8.68912 18.8664L9.21587 19.0787C9.13289 19.2873 9.05352 19.4995 8.97414 19.7118ZM8.53758 21L8 20.828C8.06855 20.6084 8.14071 20.3852 8.21648 20.1693L8.75045 20.3559C8.67829 20.5645 8.60613 20.7841 8.53758 21Z" fill="#8C8F92"/>
<path fill-rule="evenodd" clip-rule="evenodd" d="M66.1332 48.4744L66.5204 48.8801C66.5737 48.8269 66.627 48.7734 66.6803 48.7199C66.7869 48.6129 66.8934 48.5058 67 48.402L66.6057 48C66.4528 48.1559 66.2999 48.3083 66.1436 48.464L66.1332 48.4744ZM65.5506 49.8217L65.1705 49.4088C65.3339 49.2531 65.4937 49.0974 65.6536 48.9417L65.6536 48.9416L65.6536 48.9416L66.0373 49.3509C65.8774 49.5102 65.714 49.6659 65.5506 49.8217ZM64.1936 50.3287L64.5702 50.7488C64.7336 50.5967 64.897 50.4446 65.0604 50.2852L64.6838 49.8688C64.5204 50.0245 64.357 50.1766 64.1936 50.3287ZM63.579 51.6651L63.206 51.245C63.373 51.0929 63.5364 50.9408 63.6998 50.7887L63.6998 50.7886L64.0728 51.2087C63.9912 51.2847 63.9087 51.3607 63.8261 51.4367L63.8261 51.4368L63.826 51.4368L63.8259 51.4369C63.7433 51.513 63.6607 51.589 63.579 51.6651ZM62.2114 52.154L62.5844 52.5777L63.0817 52.1214L62.7087 51.6977L62.2114 52.154ZM61.5933 53.4867L61.2202 53.0666C61.3837 52.9145 61.5506 52.7624 61.7176 52.6103L62.0906 53.0304C61.9236 53.1825 61.7567 53.3346 61.5933 53.4867ZM60.2327 53.9901L60.6128 54.4066C60.7658 54.2575 60.9221 54.1118 61.0817 53.9629L61.103 53.9431L60.7265 53.5266L60.6872 53.5632L60.6871 53.5633L60.6868 53.5635C60.5336 53.7064 60.3831 53.8468 60.2327 53.9901ZM59.643 55.3374L59.2593 54.9281L59.3766 54.8123C59.4973 54.6927 59.6217 54.5732 59.746 54.4573L60.1261 54.8702C60.0053 54.9861 59.881 55.1056 59.7602 55.2251L59.643 55.3374ZM58.3002 55.8879L58.6945 56.2863C58.8508 56.1269 59.0071 55.9676 59.167 55.8118L58.7762 55.4062C58.6163 55.5656 58.4565 55.7249 58.3002 55.8879ZM57.7744 57.2605L57.3694 56.873C57.5157 56.7134 57.6652 56.5539 57.8117 56.3976L57.8313 56.3768L58.2327 56.7715C58.0764 56.9309 57.9236 57.0939 57.7744 57.2605ZM56.4636 57.8906L56.8828 58.2637C57.014 58.1102 57.1482 57.9568 57.28 57.8061L57.2802 57.8059L57.2803 57.8057L57.3233 57.7566L56.9112 57.3764C56.7676 57.5364 56.6302 57.6965 56.4903 57.8595L56.4902 57.8596L56.4901 57.8597L56.49 57.8598L56.4636 57.8906ZM56.0337 59.2958L55.6004 58.9409L56.0266 58.4085L56.4529 58.7743C56.3108 58.9481 56.1723 59.122 56.0337 59.2958ZM54.7798 60.0346L55.2309 60.3678C55.3552 60.1904 55.4902 60.0093 55.6252 59.8282L55.1847 59.4841C55.0462 59.6688 54.9076 59.8535 54.7798 60.0346ZM54.4813 61.476L54.016 61.1682C54.1368 60.9762 54.2647 60.7843 54.3925 60.596L54.8508 60.9183C54.7229 61.103 54.5986 61.2913 54.4813 61.476ZM53.3126 62.3452L53.7957 62.6241L53.8846 62.4686L53.8847 62.4686C53.9654 62.3272 54.0466 62.1849 54.1297 62.0446L53.6536 61.7513C53.5364 61.9468 53.4227 62.146 53.3126 62.3452ZM53.1883 63.8156L52.6874 63.5693C52.7833 63.3629 52.8863 63.1565 52.9929 62.9536L53.4867 63.218C53.3801 63.4136 53.2806 63.6164 53.1883 63.8156ZM52.1403 64.8369L52.659 65.0433C52.7407 64.8369 52.8259 64.6304 52.9112 64.4276L52.3996 64.1995C52.3108 64.4095 52.222 64.6268 52.1403 64.8369ZM52.2256 66.3073L51.6927 66.1407C51.7602 65.9234 51.8313 65.6988 51.9059 65.4852L52.4316 65.6735C52.3606 65.8799 52.2895 66.0936 52.2256 66.3073ZM51.3481 67.477L51.8917 67.6002C51.9378 67.3829 51.9911 67.1656 52.0444 66.9483L51.508 66.8034C51.4512 67.0243 51.3979 67.2525 51.3481 67.477ZM51.6679 68.9184L51.1172 68.846C51.1456 68.6178 51.1812 68.3861 51.2202 68.1615L51.7673 68.2593C51.7282 68.4766 51.6963 68.6975 51.6679 68.9184ZM51.0036 70.2295L51.5613 70.2476C51.5684 70.0267 51.5826 69.8021 51.5968 69.5848L51.0426 69.5377C51.0249 69.7659 51.0107 70.0013 51.0036 70.2295ZM51.032 71.6165C51.0144 71.3907 51.0072 71.1577 51.0002 70.9282L51 70.9212L51.5577 70.9103C51.5613 71.1312 51.5719 71.3558 51.5861 71.5767L51.032 71.6165ZM51.2025 73C51.1599 72.7718 51.1279 72.5401 51.0995 72.3119L51.6501 72.2395C51.6785 72.4568 51.7105 72.6777 51.7496 72.895L51.2025 73Z" fill="#8C8F92"/>
<path fill-rule="evenodd" clip-rule="evenodd" d="M12.2519 65.632C12.3742 65.6721 12.4972 65.7124 12.6202 65.7514L12.7796 65.2016C12.5717 65.132 12.3638 65.066 12.1559 65L12 65.5498C12.0835 65.5768 12.1675 65.6043 12.2519 65.632ZM13.8503 66.1729C13.6459 66.0996 13.4414 66.0263 13.237 65.9567L13.4033 65.4105C13.6112 65.4802 13.8191 65.5535 14.027 65.6305L13.8503 66.1729ZM14.5178 66.4249C14.704 66.5004 14.8843 66.5734 15.0561 66.6495L15.264 66.118C15.0665 66.03 14.8621 65.9457 14.6473 65.8614L14.4567 66.4002L14.5178 66.4249ZM16.2169 67.2176C16.0333 67.115 15.8427 67.016 15.6452 66.9207L15.8739 66.4002C16.0783 66.4992 16.2793 66.6055 16.4699 66.7118L16.2169 67.2176ZM16.7678 67.5511C16.9515 67.6684 17.1317 67.7894 17.298 67.914L17.6098 67.4449C17.4331 67.3129 17.2426 67.1846 17.0485 67.06L16.7678 67.5511ZM18.2717 68.7571C18.1227 68.6068 17.9667 68.4565 17.8004 68.3136L18.1435 67.87C18.3167 68.0203 18.4865 68.1816 18.6459 68.3429L18.2717 68.7571ZM18.7048 69.2373C18.8399 69.4022 18.9716 69.5781 19.0998 69.7577L19.5364 69.4132C19.4012 69.2226 19.2592 69.0357 19.1137 68.8597L18.7048 69.2373ZM19.7824 70.883C19.6784 70.6851 19.5676 70.4908 19.4567 70.3076L19.9141 69.996C20.0319 70.1903 20.1462 70.3955 20.2571 70.6045L19.7824 70.883ZM20.0769 71.4805C20.167 71.6821 20.2571 71.8874 20.3403 72.0963L20.8392 71.8727C20.7526 71.6528 20.659 71.4402 20.5655 71.2313L20.0769 71.4805ZM20.7872 73.3645C20.7179 73.1446 20.6486 72.9284 20.5759 72.7231L21.0852 72.5215L21.1053 72.5801L21.1054 72.5803L21.1054 72.5804L21.1054 72.5805L21.1055 72.5806C21.172 72.7748 21.2406 72.975 21.3035 73.1813L20.7872 73.3645ZM20.9778 74.0133C21.0367 74.2223 21.0956 74.4349 21.1545 74.6694L21.6778 74.5192C21.6154 74.2809 21.5565 74.061 21.4976 73.8484L20.9778 74.0133ZM21.427 75.7988C21.4423 75.8657 21.4577 75.9327 21.4733 76L22 75.8644L21.8441 75.1936L21.3174 75.3329C21.3561 75.489 21.3914 75.6433 21.4269 75.7983L21.4269 75.7983L21.4269 75.7984L21.4269 75.7984L21.4269 75.7984L21.4269 75.7985L21.4269 75.7985L21.427 75.7985L21.427 75.7986L21.427 75.7986L21.427 75.7988Z" fill="#8C8F92"/>
<path d="M58.8029 81.4415H57.5585V80.1971C57.5585 80.0862 57.4682 80 57.3614 80H56.6386C56.5277 80 56.4415 80.0903 56.4415 80.1971V81.4415H55.1971C55.0862 81.4415 55 81.5318 55 81.6386V82.3614C55 82.4723 55.0903 82.5585 55.1971 82.5585H56.4415V83.8029C56.4415 83.9138 56.5318 84 56.6386 84H57.3614C57.4723 84 57.5585 83.9097 57.5585 83.8029V82.5585H58.8029C58.9138 82.5585 59 82.4682 59 82.3614V81.6386C59 81.5318 58.9138 81.4415 58.8029 81.4415Z" fill="white"/>
</svg>
