<svg width="47" height="30" viewBox="0 0 47 30" fill="none" xmlns="http://www.w3.org/2000/svg">
<path d="M10.8792 0C4.90198 0 0.182418 4.83568 0.182418 10.7999C0.182418 16.7641 5.09149 21.5998 11.0687 21.5998C11.1285 21.5998 11.2187 21.5917 11.2785 21.5907C8.91518 23.4685 5.94683 24.6001 2.69776 24.6001C1.20295 24.6001 0 25.8095 0 27.3C0 28.7906 0.961749 30 2.45656 30C13.0662 29.999 21.4493 21.3864 21.4493 10.7999C21.4493 10.7979 21.4493 10.7958 21.4493 10.7928C21.4493 4.83163 16.8544 0 10.8792 0Z" fill="#26ABA3"/>
<path d="M36.4149 0C30.4377 0 25.71 4.83568 25.71 10.7999C25.71 16.7641 30.615 21.5998 36.5933 21.5998C36.6531 21.5998 36.7413 21.5917 36.801 21.5907C34.4377 23.4685 31.4684 24.6001 28.2193 24.6001C26.7245 24.6001 25.5205 25.8095 25.5205 27.3C25.5205 28.7906 26.4975 30 27.9923 30C38.6019 29.999 47.0002 21.3864 47.0002 10.7999C47.0002 10.7979 47.0002 10.7958 47.0002 10.7928C47.0002 4.83163 42.3901 0 36.4149 0Z" fill="#26ABA3"/>
</svg>
