<svg width="102" height="90" viewBox="0 0 102 90" fill="none" xmlns="http://www.w3.org/2000/svg">
<path d="M87.699 12.1776H83.5693V8.04797C83.5693 7.68462 83.2724 7.3877 82.9091 7.3877H80.518C80.1547 7.3877 79.8578 7.68462 79.8578 8.04797V12.1776H75.7281C75.3648 12.1776 75.0679 12.4745 75.0679 12.8379V15.2289C75.0679 15.5922 75.3648 15.8892 75.7281 15.8892H79.8578V20.0188C79.8578 20.3821 80.1547 20.6791 80.518 20.6791H82.9091C83.2724 20.6791 83.5693 20.3821 83.5693 20.0188V15.8892H87.699C88.0623 15.8892 88.3592 15.5922 88.3592 15.2289V12.8379C88.3553 12.4745 88.0623 12.1776 87.699 12.1776Z" fill="#F7AB1E"/>
<path d="M6.94652 77.5952H4.67659V75.3253C4.67659 75.126 4.5125 74.9619 4.31325 74.9619H2.99661C2.79736 74.9619 2.63327 75.126 2.63327 75.3253V77.5952H0.363344C0.164091 77.5952 0 77.7593 0 77.9585V79.2752C0 79.4744 0.164091 79.6385 0.363344 79.6385H2.63327V81.9084C2.63327 82.1077 2.79736 82.2718 2.99661 82.2718H4.31325C4.5125 82.2718 4.67659 82.1077 4.67659 81.9084V79.6385H6.94652C7.14577 79.6385 7.30986 79.4744 7.30986 79.2752V77.9585C7.30596 77.7593 7.14577 77.5952 6.94652 77.5952Z" fill="#F7AB1E"/>
<path d="M15.944 64.152H12.8888V61.0968C12.8888 60.8272 12.67 60.6084 12.4004 60.6084H10.6306C10.361 60.6084 10.1422 60.8272 10.1422 61.0968V64.152H7.087C6.81742 64.152 6.59863 64.3708 6.59863 64.6403V66.4102C6.59863 66.6798 6.81742 66.8986 7.087 66.8986H10.1422V69.9538C10.1422 70.2233 10.361 70.4421 10.6306 70.4421H12.4004C12.67 70.4421 12.8888 70.2233 12.8888 69.9538V66.8986H15.944C16.2136 66.8986 16.4324 66.6798 16.4324 66.4102V64.6403C16.4324 64.3708 16.2136 64.152 15.944 64.152Z" fill="#F7AB1E"/>
<path d="M100.732 2.48871H98.5872V0.34381C98.5872 0.156277 98.4348 0 98.2434 0H97.001C96.8134 0 96.6572 0.15237 96.6572 0.34381V2.48871H94.5123C94.3247 2.48871 94.1685 2.64108 94.1685 2.83252V4.07493C94.1685 4.26246 94.3208 4.41874 94.5123 4.41874H96.6572V6.56364C96.6572 6.75117 96.8095 6.90745 97.001 6.90745H98.2434C98.4309 6.90745 98.5872 6.75508 98.5872 6.56364V4.41874H100.732C100.92 4.41874 101.076 4.26637 101.076 4.07493V2.83252C101.072 2.64108 100.92 2.48871 100.732 2.48871Z" fill="#F7AB1E"/>
<path d="M70.0475 8.06409H66.9923V5.00887C66.9923 4.7393 66.7735 4.52051 66.5039 4.52051H64.7341C64.4645 4.52051 64.2457 4.7393 64.2457 5.00887V8.06409H61.1905C60.9209 8.06409 60.7021 8.28288 60.7021 8.55246V10.3223C60.7021 10.5919 60.9209 10.8107 61.1905 10.8107H64.2457V13.8659C64.2457 14.1355 64.4645 14.3542 64.7341 14.3542H66.5039C66.7735 14.3542 66.9923 14.1355 66.9923 13.8659V10.8107H70.0475C70.3171 10.8107 70.5359 10.5919 70.5359 10.3223V8.55246C70.5359 8.28288 70.3171 8.06409 70.0475 8.06409Z" fill="#F7AB1E"/>
<path d="M91.1471 49.9227C91.1198 49.9032 91.0886 49.8992 91.0573 49.8875C91.4869 48.6421 91.6041 47.2287 91.3815 45.8192C91.1628 44.441 90.6433 43.2151 89.8974 42.2273C91.8579 41.2083 93.3225 39.1975 93.8497 36.773C94.744 32.6578 93.3303 28.406 90.0693 25.4036C86.8981 22.4832 82.5982 21.2651 78.6186 22.085C79.3567 19.4222 78.5639 16.2988 76.537 14.0265C74.6975 11.965 71.9247 10.5829 68.7301 10.1417C66.7969 9.87228 63.9694 9.85666 61.4777 11.2934C59.1891 12.6131 57.7559 14.9479 57.7637 17.3022C57.7637 17.31 57.7598 17.3178 57.7598 17.3256V44.2107V44.2107V75.0117C57.7363 75.0859 57.7363 75.164 57.7598 75.2382V81.8053C57.7598 81.8053 57.7598 81.8052 57.7598 81.8092C57.6426 83.7691 59.1032 86.7208 60.7747 87.8999C62.6884 89.2469 65.223 89.9418 67.9959 89.9418C69.5385 89.9418 71.1553 89.7271 72.78 89.2859C76.1855 88.3645 79.5442 85.5456 81.989 81.5476C83.4457 79.1659 84.0666 76.55 83.7425 74.184C83.7191 74.024 83.6917 73.8639 83.6605 73.7038C84.2033 73.8483 84.754 73.9146 85.2968 73.9146C88.0658 73.9146 90.6746 72.2787 91.5494 71.6736C95.0447 69.2373 97.0834 65.126 96.9975 60.6751C96.9037 56.232 94.7206 52.2145 91.1471 49.9227Z" fill="#C1E3DE"/>
<path d="M55.2286 81.8673V75.3002C55.2481 75.226 55.252 75.1479 55.2286 75.0738V44.2727V44.2727V17.3876C55.2286 17.3798 55.2247 17.372 55.2247 17.3642C55.2325 15.0099 53.7992 12.6751 51.5106 11.3555C49.0151 9.91868 46.1915 9.93429 44.2583 10.2037C41.0637 10.6488 38.2908 12.027 36.4514 14.0885C34.4245 16.3608 33.6277 19.4803 34.3698 22.147C30.3863 21.3271 26.0903 22.5452 22.9191 25.4656C19.6581 28.468 18.2443 32.7198 19.1387 36.835C19.6659 39.2595 21.1304 41.2703 23.0909 42.2893C22.3411 43.2771 21.8256 44.503 21.6069 45.8813C21.3843 47.2907 21.5014 48.7041 21.931 49.9495C21.8998 49.9613 21.8685 49.9652 21.8412 49.9847C18.2678 52.2765 16.0846 56.294 16.0026 60.7332C15.9167 65.1881 17.9553 69.2993 21.4507 71.7317C22.3216 72.3368 24.9304 73.9727 27.7032 73.9727C28.2461 73.9727 28.7967 73.9103 29.3396 73.7619C29.3084 73.922 29.281 74.0782 29.2576 74.2421C28.9295 76.6082 29.5544 79.224 31.0111 81.6057C33.4559 85.6037 36.8107 88.4226 40.2201 89.344C41.8447 89.7813 43.4616 89.9999 45.0042 89.9999C47.7771 89.9999 50.3156 89.305 52.2253 87.958C53.8851 86.7789 55.3458 83.8311 55.2286 81.8673V81.8673Z" fill="#FEF3DE"/>
<path fill-rule="evenodd" clip-rule="evenodd" d="M55.1156 75.0591C55.139 75.1333 55.1351 75.2114 55.1156 75.2857H55.1273V81.8536V81.8575C55.2441 83.8228 53.7916 86.7727 52.121 87.9527C50.2168 89.3006 47.6856 89.9961 44.9207 89.9961C43.3825 89.9961 41.7703 89.7773 40.1503 89.3397C36.7507 88.4176 33.4056 85.5966 30.9679 81.5957C29.5154 79.2124 28.8962 76.5946 29.2194 74.2268C29.2428 74.0627 29.27 73.9065 29.3012 73.7463C28.7599 73.8947 28.2108 73.9572 27.6695 73.9572C24.9047 73.9572 22.3034 72.3202 21.435 71.7145C17.9497 69.2804 15.9169 65.1662 16.0026 60.7081C16.0844 56.2657 18.2612 52.2452 21.8244 49.9517C21.843 49.9384 21.8634 49.9323 21.8844 49.9261C21.8942 49.9232 21.9041 49.9203 21.914 49.9166C21.4856 48.6702 21.3688 47.2558 21.5907 45.8453C21.8088 44.4661 22.3228 43.2392 23.0705 42.2507C21.1156 41.231 19.6553 39.2188 19.1296 36.7924C18.2379 32.6743 19.6475 28.4194 22.8992 25.4148C26.0612 22.4923 30.3448 21.2732 34.3169 22.0937C33.577 19.4252 34.3714 16.3034 36.3925 14.0294C38.2266 11.9664 40.9915 10.5872 44.1769 10.1418C46.1045 9.87219 48.92 9.85656 51.4084 11.2944C53.6904 12.615 55.1195 14.9515 55.1117 17.3075C55.1117 17.3114 55.1127 17.3153 55.1137 17.3192C55.1147 17.3231 55.1156 17.327 55.1156 17.3309V44.2356V75.0591ZM40.3489 88.5465C44.6442 89.7109 48.8616 89.2381 51.6342 87.2806C53.188 86.1827 54.3952 83.3969 54.294 81.8809C54.2912 81.8755 54.2923 81.8719 54.2932 81.869C54.2936 81.8677 54.294 81.8665 54.294 81.8653C54.294 81.8643 54.2937 81.8632 54.2933 81.8622C54.2921 81.8593 54.2901 81.8564 54.2901 81.8536V75.2818C52.7246 73.1485 49.6365 72.2459 47.1832 73.2344C44.6793 74.2425 43.0476 77.122 43.4682 79.7945C43.5032 80.0211 43.3513 80.2321 43.1255 80.2673C43.1021 80.2712 43.0788 80.2712 43.0593 80.2712C42.8607 80.2712 42.6854 80.1266 42.6543 79.9235C42.1753 76.8876 44.0328 73.6134 46.8756 72.4686C49.3523 71.4723 52.3897 72.1639 54.2901 74.0237V45.7593C53.0283 47.4043 50.9099 48.5295 48.9005 48.5295C48.7526 48.5295 48.6046 48.5217 48.4566 48.51C45.9098 48.2951 43.6551 46.4118 42.9347 43.966C41.9611 44.681 40.8162 45.1655 39.6052 45.3178C39.3209 45.353 39.0327 45.3725 38.7484 45.3725C36.3224 45.3725 33.9391 44.0988 32.6268 42.0319C32.5022 41.8405 32.5606 41.5865 32.7514 41.4615C32.9422 41.3365 33.1992 41.3951 33.32 41.5865C34.6011 43.5987 37.144 44.7982 39.5039 44.4973C41.8638 44.1965 44.0289 42.4031 44.7688 40.1331C45.5087 37.863 44.8155 35.1319 43.0865 33.4909C42.923 33.3346 42.9152 33.0728 43.071 32.9087C43.2267 32.7446 43.4876 32.7368 43.6512 32.8931C45.6333 34.7764 46.4005 37.7888 45.5515 40.3909C45.1777 41.5396 44.504 42.5633 43.6356 43.3838C44.1341 45.6421 46.233 47.4902 48.5306 47.6856C50.8242 47.877 53.3905 46.2946 54.294 44.1457V29.9706C53.4995 30.1464 52.7012 30.2402 51.9224 30.2402C50.6373 30.2402 49.3951 30.0018 48.2891 29.5251C46.1785 28.6187 44.5897 26.8566 44.0328 24.8131C43.4214 22.5782 44.1419 20.1402 45.8164 18.7531C45.9916 18.6086 46.2525 18.632 46.3966 18.8078C46.5407 18.9837 46.5173 19.2454 46.3421 19.39C44.9324 20.5543 44.3093 22.6955 44.8272 24.5943C45.3179 26.3955 46.7315 27.9545 48.6124 28.7633C50.2791 29.4822 52.2924 29.6033 54.294 29.1227V17.5497C54.294 17.5439 54.293 17.538 54.292 17.5322C54.291 17.5263 54.2901 17.5204 54.2901 17.5146C54.3874 15.4125 53.0673 13.1972 50.9995 12.0016C48.7136 10.6771 46.0889 10.7005 44.2898 10.9506C41.2952 11.3686 38.7095 12.6541 37.0038 14.5725C35.0879 16.7253 34.3753 19.7104 35.1931 22.1719C35.2086 22.2188 35.2086 22.2657 35.2086 22.3086V22.3086C35.232 22.3126 35.2515 22.3165 35.2748 22.3243C36.813 20.9919 39.1963 20.8044 40.9136 21.914C41.1044 22.0391 41.1628 22.293 41.0382 22.4845C40.9136 22.6759 40.6605 22.7345 40.4697 22.6095C39.021 21.6718 36.9143 21.8789 35.672 23.0744C34.4298 24.27 34.1416 26.376 35.0139 27.8646C35.1308 28.0639 35.0646 28.3139 34.8698 28.4311C34.8075 28.4702 34.7335 28.4898 34.6635 28.4898C34.5233 28.4898 34.387 28.4155 34.3091 28.2866C33.3511 26.6573 33.5186 24.5084 34.6401 23.0158C30.7927 22.0351 26.5519 23.1604 23.4521 26.0243C20.4147 28.8297 19.0985 32.7915 19.9279 36.6205C20.4147 38.8828 21.7893 40.7309 23.6157 41.6061C23.8026 41.4146 23.9973 41.2349 24.2037 41.0708C25.7731 39.8361 27.9304 39.5314 29.5777 40.3089C29.7841 40.4066 29.8736 40.6527 29.7763 40.8598C29.6789 41.0669 29.4336 41.1567 29.2272 41.0591C27.8526 40.4105 26.0379 40.6801 24.71 41.7233C23.5145 42.6649 22.6694 44.216 22.389 45.9821C22.1437 47.541 22.3462 49.1 22.9654 50.3698C23.6313 51.7373 24.8229 52.8118 26.1547 53.2376C27.5644 53.6909 29.1688 53.4095 30.2358 52.5226C30.411 52.3781 30.6719 52.4015 30.816 52.5773C30.9601 52.7532 30.9367 53.0149 30.7615 53.1595C29.8853 53.8862 28.7132 54.2769 27.5254 54.2769C26.9764 54.2769 26.4273 54.1949 25.9016 54.0269C24.34 53.5229 23.0004 52.3234 22.2255 50.7332C22.2216 50.7253 22.2187 50.7175 22.2157 50.7097C22.2128 50.7019 22.2099 50.6941 22.206 50.6863C18.9038 52.8352 16.8866 56.5861 16.8087 60.7315C16.7269 64.9122 18.6273 68.7686 21.8867 71.0464C22.8992 71.7497 26.4312 73.9651 29.5076 72.8203C29.5095 72.8183 29.5124 72.8183 29.5159 72.8183C29.5193 72.8183 29.5232 72.8183 29.527 72.8164C30.1968 70.7299 31.6572 68.9913 33.4952 68.1669C32.5139 67.1432 31.8246 65.8304 31.5871 64.4394C31.1899 62.1108 32.0583 59.5828 33.7912 57.9887C33.9586 57.8363 34.2195 57.8481 34.3714 58.0161C34.5233 58.1841 34.5116 58.4459 34.3441 58.5982C32.8098 60.0048 32.0466 62.2436 32.397 64.2988C32.7436 66.3539 34.2078 68.2098 36.1199 69.0264C38.0319 69.843 40.3801 69.6125 42.0974 68.4403C42.2882 68.3114 42.5414 68.3622 42.6699 68.5498C42.7984 68.7412 42.7477 68.9952 42.5608 69.1241C41.3926 69.9212 39.9634 70.3314 38.542 70.3314C37.5997 70.3314 36.6612 70.1517 35.8006 69.7844C35.1814 69.5187 34.6011 69.1554 34.0832 68.7178C34.0404 68.7881 33.9859 68.8467 33.9041 68.8819C31.8791 69.7571 30.3526 71.8982 30.0177 74.3441C29.7179 76.5242 30.302 78.9506 31.6533 81.1698C33.982 84.991 37.1518 87.6792 40.3489 88.5465Z" fill="#8C8F92"/>
<path d="M45.5673 62.2633C47.6467 62.2633 49.7145 61.0716 50.7231 59.2392C51.8135 57.2622 51.6149 54.6327 50.2441 52.8393C50.104 52.6595 49.8469 52.6244 49.6678 52.7611C49.4887 52.9018 49.4536 53.1597 49.5899 53.3394C50.766 54.8788 50.9334 57.141 49.9988 58.8367C49.0642 60.5364 47.0665 61.5952 45.1389 61.4155C43.2152 61.2357 41.4472 59.8213 40.8397 57.9811C40.7696 57.7662 40.536 57.6451 40.3218 57.7193C40.1076 57.7896 39.9869 58.0241 40.0609 58.2389C40.7657 60.384 42.8219 62.0289 45.0649 62.2399C45.2324 62.2594 45.3998 62.2633 45.5673 62.2633Z" fill="#8C8F92"/>
<path fill-rule="evenodd" clip-rule="evenodd" d="M91.1037 49.9261C91.1247 49.9323 91.1451 49.9384 91.1637 49.9517C94.723 52.2452 96.8999 56.2657 96.9972 60.712C97.0829 65.1662 95.0501 69.2804 91.5648 71.7184C90.6925 72.3241 88.0912 73.9612 85.3303 73.9612C84.789 73.9612 84.2399 73.8947 83.6986 73.7502C83.7298 73.9104 83.757 74.0705 83.7804 74.2307C84.1036 76.5985 83.4844 79.2163 82.0319 81.5996C79.5942 85.6006 76.2452 88.4215 72.8495 89.3436C71.2295 89.7851 69.6173 90 68.0791 90C65.3143 90 62.7869 89.3045 60.8788 87.9566C59.2121 86.7766 57.7557 83.8228 57.8725 81.8614V81.8575V75.2857C57.8491 75.2114 57.8491 75.1333 57.8725 75.0591V44.2356V17.3309C57.8725 17.327 57.8735 17.3231 57.8745 17.3192C57.8754 17.3153 57.8764 17.3114 57.8764 17.3075C57.8686 14.9515 59.2978 12.615 61.5798 11.2944C64.0642 9.85656 66.8836 9.87219 68.8112 10.1418C71.9967 10.5833 74.7615 11.9664 76.5957 14.0294C78.6167 16.3034 79.4073 19.4291 78.6713 22.0937C82.6394 21.2732 86.9269 22.4923 90.089 25.4148C93.3406 28.4194 94.7503 32.6743 93.8585 36.7924C93.3328 39.2188 91.8725 41.231 89.9176 42.2507C90.6614 43.2392 91.1793 44.4661 91.3974 45.8453C91.6194 47.2558 91.5025 48.6702 91.0742 49.9166C91.0841 49.9203 91.094 49.9232 91.1037 49.9261ZM83.465 72.8164C86.5414 73.9651 90.0773 71.7497 91.0859 71.0425C94.3453 68.7646 96.2417 64.9083 96.1677 60.7433C96.0899 56.5978 94.0727 52.8469 90.7704 50.698C90.7626 50.7136 90.7588 50.7292 90.751 50.7449C89.9799 52.3351 88.6364 53.5346 87.0749 54.0386C86.5453 54.2066 85.9962 54.2887 85.451 54.2887C84.2633 54.2887 83.0911 53.8979 82.2149 53.1712C82.0397 53.0227 82.0163 52.7649 82.1604 52.5891C82.3084 52.4132 82.5654 52.3898 82.7407 52.5343C83.8077 53.4213 85.4121 53.7026 86.8217 53.2494C88.1536 52.8235 89.3452 51.749 90.0111 50.3815C90.6302 49.1117 90.8327 47.5527 90.5874 45.9938C90.307 44.2238 89.462 42.6727 88.2665 41.735C86.9347 40.6918 85.12 40.4222 83.7492 41.0708C83.5468 41.1685 83.3014 41.0786 83.2041 40.8715C83.1106 40.6644 83.1963 40.4183 83.4027 40.3206C85.0499 39.5431 87.2073 39.8517 88.7766 41.0825C88.983 41.2466 89.1777 41.4263 89.3646 41.6178C91.1871 40.7426 92.5618 38.8945 93.0524 36.6323C93.8819 32.7993 92.5617 28.8414 89.5282 26.0361C86.4284 23.1721 82.1877 22.0469 78.3403 23.0276C79.4618 24.5201 79.6253 26.669 78.6713 28.2983C78.5934 28.4272 78.4571 28.5015 78.3169 28.5015C78.2468 28.5015 78.1767 28.4819 78.1105 28.4429C77.9158 28.3257 77.8496 28.0717 77.9664 27.8763C78.8387 26.3877 78.5505 24.2818 77.3083 23.0862C76.0661 21.8906 73.9593 21.6835 72.5107 22.6212C72.3199 22.7423 72.0667 22.6876 71.9421 22.4962C71.8214 22.3047 71.8759 22.0508 72.0667 21.9257C73.788 20.8122 76.1673 20.9997 77.7094 22.336C77.7328 22.3321 77.7522 22.3282 77.7756 22.3204C77.7756 22.2735 77.7756 22.2266 77.7912 22.1836C78.6089 19.7221 77.8963 16.737 75.9804 14.5842C74.2708 12.6658 71.6851 11.3803 68.6944 10.9623C66.8953 10.7122 64.2706 10.6927 61.9847 12.0133C59.9169 13.2089 58.5968 15.4242 58.6942 17.5263C58.6942 17.5322 58.6932 17.538 58.6922 17.5439C58.6913 17.5497 58.6903 17.5556 58.6903 17.5615V29.1266C60.6919 29.6072 62.7052 29.4822 64.3719 28.7672C66.2528 27.9623 67.6663 26.4033 68.157 24.5982C68.6749 22.7033 68.0519 20.5621 66.6422 19.3939C66.4669 19.2493 66.4436 18.9876 66.5877 18.8117C66.7317 18.6359 66.9926 18.6125 67.1679 18.757C68.8424 20.1441 69.5589 22.5821 68.9514 24.817C68.3945 26.8605 66.8018 28.6226 64.6951 29.5291C63.5891 30.0057 62.3508 30.2441 61.0618 30.2441C60.283 30.2441 59.4847 30.1503 58.6903 29.9745V44.1496C59.5937 46.3024 62.16 47.8848 64.4536 47.6895C66.7512 47.4941 68.8541 45.646 69.3486 43.3877C68.4802 42.5711 67.8065 41.5435 67.4327 40.3948C66.5838 37.7888 67.3509 34.7764 69.333 32.897C69.4966 32.7407 69.7575 32.7485 69.9133 32.9126C70.069 33.0767 70.0612 33.3385 69.8977 33.4948C68.1687 35.1358 67.4755 37.8669 68.2154 40.137C68.9553 42.407 71.1205 44.2004 73.4803 44.5013C75.8441 44.8021 78.387 43.6026 79.6643 41.5904C79.785 41.399 80.042 41.3443 80.2328 41.4654C80.4236 41.5904 80.4781 41.8444 80.3574 42.0358C79.0451 44.1027 76.6619 45.3765 74.2358 45.3765C73.9515 45.3765 73.6634 45.3569 73.3791 45.3218C72.168 45.1694 71.0231 44.6849 70.0496 43.9699C69.3291 46.4158 67.0744 48.299 64.5276 48.5139C64.3797 48.5256 64.2317 48.5334 64.0837 48.5334C62.0704 48.5334 59.9559 47.4082 58.6942 45.7633V74.0276C60.5906 72.1678 63.632 71.4762 66.1048 72.4725C68.9475 73.6173 70.805 76.8915 70.3261 79.9274C70.2949 80.1305 70.1197 80.2751 69.9211 80.2751C69.8977 80.2751 69.8782 80.2751 69.8549 80.2712C69.629 80.236 69.4771 80.025 69.5122 79.7984C69.9327 77.1259 68.3011 74.2464 65.7971 73.2383C63.3438 72.2537 60.2557 73.1524 58.6903 75.2857V81.8575C58.6903 81.8595 58.6893 81.8614 58.6883 81.8634C58.6874 81.8653 58.6864 81.8673 58.6864 81.8692C58.6837 81.8747 58.6847 81.8782 58.6856 81.8812C58.686 81.8825 58.6864 81.8837 58.6864 81.8848C58.5851 83.393 59.7923 86.1788 61.3461 87.2767C64.1187 89.2342 68.3361 89.707 72.6314 88.5426C75.8246 87.6752 78.9945 84.9871 81.3232 81.1659C82.6784 78.9428 83.2586 76.5203 82.9587 74.3401C82.6238 71.8943 81.0973 69.7492 79.0724 68.878C78.9945 68.8428 78.9361 68.7842 78.8932 68.7139C78.3753 69.1515 77.7951 69.5148 77.1759 69.7805C76.3153 70.1478 75.3768 70.3275 74.4344 70.3275C73.0091 70.3314 71.5839 69.9173 70.4117 69.1202C70.2248 68.9913 70.1742 68.7334 70.3027 68.5458C70.4312 68.3583 70.6882 68.3075 70.8751 68.4364C72.5925 69.6086 74.9406 69.8391 76.8527 69.0225C78.7647 68.2059 80.225 66.35 80.5755 64.2949C80.926 62.2397 80.1627 60.0009 78.6284 58.5943C78.461 58.442 78.4493 58.1802 78.6012 58.0122C78.753 57.8442 79.0139 57.8324 79.1814 57.9848C80.9182 59.5789 81.7827 62.1108 81.3855 64.4355C81.1479 65.8265 80.4548 67.1354 79.4773 68.1629C81.3154 68.9913 82.7757 70.7299 83.4455 72.8125C83.4494 72.8164 83.4572 72.8125 83.465 72.8164Z" fill="#8C8F92"/>
<path d="M72.6548 57.719C72.4406 57.6487 72.207 57.7659 72.1369 57.9808C71.5333 59.825 69.7653 61.2354 67.8377 61.4152C65.914 61.5949 63.9124 60.5361 62.9778 58.8365C62.0432 57.1368 62.2106 54.8785 63.3867 53.3391C63.523 53.1594 63.4918 52.8976 63.3127 52.7608C63.1335 52.6241 62.8726 52.6553 62.7363 52.839C61.3656 54.6324 61.1709 57.2619 62.2574 59.2389C63.2659 61.0674 65.3337 62.263 67.4132 62.263C67.5807 62.263 67.7481 62.2552 67.9117 62.2396C70.1547 62.0286 72.2108 60.3837 72.9157 58.2387C72.9858 58.0238 72.869 57.7932 72.6548 57.719Z" fill="#8C8F92"/>
<path d="M98.2668 30.9465H92.3283V25.008C92.3283 24.4844 91.9024 24.0586 91.3789 24.0586H87.9369C87.4134 24.0586 86.9875 24.4844 86.9875 25.008V30.9465H81.049C80.5255 30.9465 80.0996 31.3724 80.0996 31.8959V35.3379C80.0996 35.8614 80.5255 36.2873 81.049 36.2873H86.9875V42.2258C86.9875 42.7493 87.4134 43.1752 87.9369 43.1752H91.3789C91.9024 43.1752 92.3283 42.7493 92.3283 42.2258V36.2873H98.2668C98.7904 36.2873 99.2162 35.8614 99.2162 35.3379V31.8959C99.2162 31.3724 98.7904 30.9465 98.2668 30.9465Z" fill="#F7AB1E"/>
<path d="M26.8054 72.7118H22.6758V68.5821C22.6758 68.2188 22.3789 67.9219 22.0155 67.9219H19.6245C19.2611 67.9219 18.9642 68.2188 18.9642 68.5821V72.7118H14.8346C14.4712 72.7118 14.1743 73.0087 14.1743 73.372V75.7631C14.1743 76.1264 14.4712 76.4234 14.8346 76.4234H18.9642V80.553C18.9642 80.9163 19.2611 81.2132 19.6245 81.2132H22.0155C22.3789 81.2132 22.6758 80.9163 22.6758 80.553V76.4234H26.8054C27.1688 76.4234 27.4657 76.1264 27.4657 75.7631V73.372C27.4657 73.0048 27.1688 72.7118 26.8054 72.7118Z" fill="#F7AB1E"/>
</svg>
