<svg width="120" height="90" viewBox="0 0 120 90" fill="none" xmlns="http://www.w3.org/2000/svg">
<path d="M58.5391 4.24707C69.2865 8.77726 77.1302 20.0627 77.9348 32.162C78.1775 35.8172 77.7865 39.6418 76.011 42.803C74.2355 45.9596 70.8508 48.3023 67.3627 47.9683C64.6342 47.7048 62.2789 45.9407 60.0763 44.2378C51.446 37.5625 42.8157 30.8872 34.1854 24.2072C31.9244 22.4572 29.6185 20.6602 28.0048 18.2469C26.6788 16.2617 25.2404 12.5359 26.463 10.1462C27.5058 8.10455 30.8546 6.53334 32.7515 5.54544C37.8038 2.90637 43.5349 1.69738 49.1671 2.06431C52.3765 2.26659 55.5544 2.99104 58.5391 4.24707Z" fill="#C1E3DE"/>
<path d="M92.7934 90H93.7971V86.9795C94.2416 78.0232 98.1281 74.2796 100.401 72.8472C103.147 71.1172 103.861 70.9662 105.988 70.504C106.579 70.3759 107.317 70.2157 108.229 69.996C108.637 69.8953 109.045 69.8038 109.453 69.7077C111.176 69.3095 112.959 68.8976 114.604 68.1105C116.992 66.9663 118.646 65.1403 119.151 63.0946C119.673 60.9711 118.788 58.7744 118.005 56.8385C117.89 56.5547 117.78 56.2756 117.67 56.001C117.414 55.3374 117.496 54.5548 117.886 53.9599C117.986 53.8042 118.115 53.6532 118.252 53.4885C118.445 53.2551 118.646 53.0171 118.807 52.7288C119.215 51.9828 119.228 51.0492 118.843 50.2895C118.651 49.9096 118.312 49.5527 117.918 49.2826C118.184 49.0767 118.408 48.8158 118.568 48.5138C119.05 47.6122 118.976 46.7061 118.376 46.2026C117.395 45.3834 116.566 44.6283 116.314 43.6398C116.227 43.3011 116.222 43.0357 116.309 42.6879C117.253 42.0563 118.294 41.3332 119.041 40.3447C119.957 39.1273 120.241 37.6354 119.788 36.4501C119.334 35.2739 118.275 34.5325 117.423 33.9375C116.722 33.4479 115.988 32.9811 115.282 32.5326C113.316 31.2832 111.46 30.1024 110.062 28.345C108.953 26.9538 108.348 25.2788 107.707 23.5076C107.445 22.7891 107.18 22.0431 106.873 21.3292C105.356 17.7504 102.917 14.7024 100.557 11.7597C97.9081 8.45544 92.9492 5.33882 91.4918 4.46013C84.0169 -0.0385947 77.9489 -0.185043 71.3539 0.0803953C63.7781 0.382446 56.4819 2.80343 50.808 6.89942C46.83 9.77348 43.4522 13.6452 41.0461 18.1028C38.64 22.5557 37.2514 27.5029 37.0314 32.3998C36.8114 37.2967 37.7509 42.3492 39.7491 46.999C41.7474 51.6487 44.763 55.8088 48.4707 59.0261C51.6467 61.7811 53.5625 63.685 56.3535 66.8657C61.2574 72.449 62.3665 80.9888 59.0575 87.6339L59.9558 88.0824C63.4435 81.0803 62.2748 72.0829 57.1097 66.2021C54.2866 62.9848 52.348 61.058 49.1306 58.2664C45.5375 55.1497 42.6135 51.1132 40.6749 46.6008C38.7363 42.0883 37.8243 37.1915 38.0351 32.441C38.2459 27.6906 39.5933 22.899 41.9307 18.5741C44.268 14.2493 47.5403 10.492 51.3947 7.70947C56.9081 3.72789 64.0072 1.37555 71.3905 1.07808C79.1817 0.766874 84.3514 1.33894 90.9693 5.31594C92.3901 6.17175 97.2252 9.20599 99.7688 12.3821C102.088 15.2745 104.48 18.2675 105.942 21.7182C106.235 22.4093 106.501 23.1415 106.753 23.8463C107.395 25.6174 108.055 27.448 109.265 28.972C110.768 30.8575 112.785 32.139 114.732 33.3792C115.429 33.8231 116.149 34.2808 116.836 34.7567C117.744 35.3929 118.523 35.9833 118.839 36.807C119.238 37.8413 118.784 38.9992 118.225 39.7406C117.537 40.6513 116.543 41.3149 115.58 41.9602C115.484 42.0243 115.411 42.125 115.379 42.2348C115.2 42.8435 115.186 43.324 115.328 43.8869C115.681 45.2736 116.859 46.2576 117.716 46.9761C117.964 47.182 117.863 47.6763 117.666 48.047C117.45 48.4497 117.019 48.7426 116.566 48.7884C116.314 48.8158 116.121 49.0264 116.117 49.2781C116.112 49.5298 116.3 49.7494 116.552 49.7815C117.074 49.8547 117.711 50.2941 117.936 50.7425C118.17 51.2048 118.161 51.7951 117.913 52.2482C117.803 52.4496 117.643 52.6418 117.473 52.8432C117.326 53.0171 117.175 53.2001 117.038 53.4061C116.474 54.2665 116.355 55.3969 116.726 56.3579C116.836 56.6371 116.946 56.9209 117.065 57.2046C117.826 59.0901 118.61 61.0397 118.165 62.8475C117.734 64.6003 116.277 66.1838 114.164 67.1952C112.624 67.932 110.892 68.3301 109.224 68.7191C108.811 68.8153 108.399 68.9114 107.986 69.012C107.088 69.2317 106.391 69.3827 105.773 69.5155C103.577 69.9914 102.757 70.1653 99.8651 71.9914C97.2344 73.6481 95.2912 76.2841 94.0812 79.831C93.3617 81.9499 92.9126 84.4029 92.7888 86.9383C92.7888 86.9475 92.7888 86.9566 92.7888 86.9612V90H92.7934Z" fill="#8C8F92"/>
<path d="M61.4609 4.24707C50.7135 8.77726 42.8698 20.0627 42.0652 32.162C41.8225 35.8172 42.2135 39.6418 43.989 42.803C45.7645 45.9596 49.1492 48.3023 52.6373 47.9683C55.3658 47.7048 57.7211 45.9407 59.9237 44.2378C68.554 37.5625 77.1843 30.8872 85.8146 24.2072C88.0756 22.4572 90.3815 20.6602 91.9952 18.2469C93.3212 16.2617 94.7596 12.5359 93.537 10.1462C92.4942 8.10455 89.1454 6.53334 87.2485 5.54544C82.1962 2.90637 76.4651 1.69738 70.8329 2.06431C67.619 2.26659 64.4411 2.99104 61.4609 4.24707Z" fill="#C1E3DE"/>
<circle cx="61" cy="26.9998" r="11.4805" transform="rotate(-67.4996 61 26.9998)" fill="#FBB000"/>
<path d="M67.1269 25.2666H62.8937V20.9166C62.8937 20.5312 62.593 20.2222 62.2179 20.2222H59.7635C59.3884 20.2222 59.0876 20.5312 59.0876 20.9166V25.2666H54.8545C54.4795 25.2666 54.1787 25.5757 54.1787 25.9611V28.4833C54.1787 28.8687 54.4795 29.1777 54.8545 29.1777H59.0876V33.5277C59.0876 33.9131 59.3884 34.2222 59.7635 34.2222H62.2179C62.5893 34.2222 62.8937 33.9131 62.8937 33.5277V29.1777H67.1269C67.5019 29.1777 67.8027 28.8687 67.8027 28.4833V25.9611C67.8027 25.5795 67.5019 25.2666 67.1269 25.2666Z" fill="white"/>
<path d="M25.7979 36C24.4315 36 23.0651 35.7416 21.7927 35.2206C19.3228 34.213 17.2287 32.2237 16.0501 29.7693C15.9186 29.4937 16.0548 29.1708 16.3553 29.0459C16.6558 28.9254 17.008 29.0502 17.1441 29.3258C18.2053 31.5348 20.0741 33.3174 22.2763 34.2173C24.4597 35.1087 26.9718 35.1302 29.1693 34.2733C29.4745 34.1528 29.8219 34.2862 29.9534 34.5618C30.0802 34.8417 29.9393 35.1603 29.6388 35.2809C28.418 35.7632 27.1079 36 25.7979 36Z" fill="#8C8F92"/>
<path d="M97.2954 37.5534C98.6488 37.5534 100.002 37.2377 101.262 36.6011C103.709 35.3699 105.783 32.9391 106.95 29.9401C107.081 29.6033 106.946 29.2087 106.648 29.0561C106.35 28.9088 106.002 29.0614 105.867 29.3981C104.816 32.0973 102.965 34.2755 100.783 35.3752C98.6209 36.4643 96.1327 36.4906 93.9561 35.4436C93.6538 35.2962 93.3097 35.4593 93.1795 35.7961C93.0492 36.1381 93.1934 36.5274 93.4911 36.6747C94.7003 37.264 95.9978 37.5534 97.2954 37.5534Z" fill="#8C8F92"/>
<path d="M93.3795 39.1002C93.2213 39.1002 93.0725 38.9897 93.0213 38.8108C92.9516 38.5845 93.0586 38.3425 93.2585 38.2636C94.1701 37.9111 94.9793 37.2323 95.5374 36.3484C95.6583 36.1537 95.8955 36.1117 96.0676 36.2485C96.2397 36.3852 96.2769 36.6536 96.156 36.8483C95.5049 37.8742 94.5607 38.6687 93.505 39.0739C93.4585 39.0896 93.4167 39.1002 93.3795 39.1002Z" fill="#8C8F92"/>
<path d="M95.7837 40C95.6581 40 95.5372 39.9316 95.4628 39.8054C95.3512 39.6054 95.4023 39.3423 95.5791 39.2108C96.4209 38.6005 97.1278 37.7639 97.6254 36.7853C97.7277 36.5801 97.9603 36.5117 98.1416 36.6274C98.323 36.7432 98.3835 37.0063 98.2812 37.2114C97.7231 38.3058 96.9324 39.2476 95.9883 39.9316C95.9232 39.979 95.8535 40 95.7837 40Z" fill="#8C8F92"/>
<path d="M82.9686 32.398C82.7486 27.5013 81.3599 22.5543 78.9536 18.1016C76.5474 13.6488 73.1695 9.77267 69.1912 6.89875C63.5216 2.80295 56.225 0.382081 48.6442 0.0800446C42.0488 -0.185381 35.9851 -0.0343633 28.5052 4.45958C27.0477 5.33823 22.084 8.4547 19.4394 11.7588C17.079 14.7059 14.6407 17.7538 13.1236 21.3279C12.8211 22.0463 12.5507 22.7877 12.2894 23.5108C11.6478 25.2818 11.0428 26.9567 9.93362 28.3479C8.53571 30.1007 6.67947 31.2813 4.71324 32.5352C4.00741 32.9837 3.27866 33.4459 2.57741 33.9402C1.72492 34.5351 0.661593 35.2765 0.212429 36.4526C-0.241319 37.6378 0.0428462 39.1297 0.959507 40.347C1.33534 40.8504 1.71117 41.2302 2.28867 41.6787V41.6787C2.29783 41.6833 2.307 41.6924 2.31617 41.697C2.60491 41.9167 2.9395 42.1547 3.35658 42.4338C4.71324 43.4543 6.06531 44.7632 6.12489 46.2733C6.17989 47.6417 5.59323 49.0237 5.07532 50.2456C4.39699 51.8427 3.85616 52.9593 3.32908 54.0393C3.23741 54.227 3.15033 54.41 3.05866 54.6022C3.05866 54.6022 3.05866 54.6022 3.05866 54.5976C3.05866 54.6022 3.05408 54.6114 3.04949 54.616C2.9395 54.8493 2.8295 55.0827 2.71491 55.3299C2.56366 55.6456 2.41242 55.9477 2.39408 55.998C2.28867 56.2726 2.10992 56.5563 1.99992 56.84C1.22076 58.7804 0.336178 60.977 0.854091 63.0959C1.35826 65.1415 3.01283 66.9674 5.40073 68.1115C7.04155 68.8986 8.82446 69.3105 10.5524 69.7086C10.9603 69.8047 11.3682 69.8963 11.7761 69.9969C12.6882 70.2212 13.4261 70.3768 14.0173 70.5049C16.144 70.9625 16.859 71.1181 19.6044 72.848C21.8823 74.2804 25.7644 78.0238 26.2089 86.9796V90H27.2127V86.9659C27.2127 86.9568 27.2127 86.9476 27.2127 86.943C27.0889 84.4123 26.6398 81.9548 25.9202 79.836C24.7148 76.2939 22.7669 73.6534 20.1361 71.9968C17.2394 70.1754 16.419 69.9969 14.2282 69.521C13.6094 69.3883 12.9128 69.2373 12.0144 69.0176C11.6019 68.9169 11.1894 68.8208 10.7769 68.7247C9.10404 68.3403 7.37614 67.9376 5.83615 67.2008C3.72324 66.1894 2.26117 64.606 1.83492 62.8533C1.43159 61.2013 2.05033 59.4348 2.73783 57.7004C3.30616 56.3961 3.78282 55.4168 4.24115 54.4695C4.77282 53.3758 5.31823 52.25 6.01031 50.63C6.56947 49.312 7.20655 47.8201 7.14239 46.223C7.04614 43.8525 4.64449 42.1043 2.83408 40.8321C2.43992 40.498 2.07783 40.1411 1.77534 39.7384C1.22076 38.997 0.767009 37.8392 1.16117 36.8049C1.47742 35.9812 2.25658 35.3909 3.16408 34.7548C3.85157 34.2742 4.57115 33.8166 5.26782 33.3727C7.21572 32.1325 9.23238 30.8512 10.7357 28.9657C11.9457 27.4464 12.6103 25.6159 13.2474 23.8403C13.504 23.1355 13.7653 22.4033 14.0586 21.7123C15.5207 18.2617 17.9177 15.2688 20.2323 12.3766C22.776 9.20063 27.6114 6.16654 29.0323 5.31077C35.6506 1.32938 40.8159 0.761915 48.6121 1.0731C55.9958 1.36599 63.0954 3.72279 68.6091 7.70418C72.4683 10.4912 75.7407 14.2483 78.0736 18.5683C80.4111 22.893 81.754 27.6844 81.9694 32.4346C82.1803 37.1848 81.2682 42.0814 79.3295 46.5937C77.3907 51.1059 74.4666 55.1422 70.8733 58.2587C67.6604 61.0503 65.7216 62.9769 62.8937 66.194C57.7283 72.0746 56.5596 81.0716 60.0475 88.0734L60.9458 87.6249C57.6367 80.9801 58.7458 72.4361 63.65 66.8576C66.4412 63.6816 68.357 61.7733 71.5333 59.0184C75.2412 55.8012 78.257 51.6414 80.2553 46.9918C82.249 42.3469 83.1886 37.2992 82.9686 32.398Z" fill="#8C8F92"/>
</svg>
