<svg width="230" height="319" viewBox="0 0 230 319" fill="none" xmlns="http://www.w3.org/2000/svg">
<path d="M211.47 14.7427L211.7 13.7695L211.7 13.7695L211.47 14.7427ZM104.134 2.403L104.047 1.40682L104.047 1.40683L104.134 2.403ZM56.572 15.0511L56.9951 15.9572L56.9951 15.9572L56.572 15.0511ZM15.3856 48.9729L14.5479 48.4267L14.5479 48.4268L15.3856 48.9729ZM-2.92974 101.641L-1.93472 101.741L-1.93472 101.741L-2.92974 101.641ZM13.2213 135.807L12.6321 134.999L12.632 134.999L13.2213 135.807ZM151.594 73.4321L151.04 72.5994L151.04 72.5994L151.594 73.4321ZM138.905 82.3769L138.28 81.5967L138.279 81.5971L138.905 82.3769ZM127.628 90.7612L127.046 89.9476L127.046 89.9476L127.628 90.7612ZM56.6928 150.838L55.9523 150.166L55.9521 150.166L56.6928 150.838ZM54.9446 156.429L54.9509 155.429L54.9508 155.429L54.9446 156.429ZM63.0816 154.522L63.4521 155.451L63.4527 155.451L63.0816 154.522ZM81.7452 153.577L81.8161 152.579L81.816 152.579L81.7452 153.577ZM135.726 178.237L135.059 178.982L135.059 178.982L135.726 178.237ZM155.892 182.866L156.557 183.612L156.557 183.612L155.892 182.866ZM200.14 122.071L201.052 122.482L201.052 122.482L200.14 122.071ZM223.376 53.1835L222.383 53.0647L222.383 53.065L223.376 53.1835ZM224.761 45.9875L225.627 46.4873L225.627 46.4868L224.761 45.9875ZM155.062 241.966L155.914 241.444L155.914 241.444L155.062 241.966ZM123.098 201.574L122.419 202.309L122.419 202.309L123.098 201.574ZM44.7126 186.447L45.0954 187.371L45.0954 187.371L44.7126 186.447ZM12.4602 206.122L13.3719 206.532L13.3723 206.531L12.4602 206.122ZM29.5113 215.452L29.1084 216.367L29.1085 216.367L29.5113 215.452ZM89.0007 250.495L88.391 251.288L88.391 251.288L89.0007 250.495ZM85.7244 259.673L85.3182 260.587L85.3183 260.587L85.7244 259.673ZM36.0499 243.592L36.2109 242.606L36.2108 242.606L36.0499 243.592ZM5.63824 239.393L5.65514 240.393L5.65572 240.393L5.63824 239.393ZM8.30509 256.674L9.26107 256.381L9.26105 256.381L8.30509 256.674ZM33.5605 298.752L32.8778 299.482L32.8779 299.482L33.5605 298.752ZM79.1398 317.385L79.2264 316.389L79.2264 316.389L79.1398 317.385ZM161.599 300.869L161.99 301.789L161.99 301.789L161.599 300.869ZM179.272 293.355L179.663 294.275L180.589 293.882L180.19 292.958L179.272 293.355ZM170.544 273.175L169.626 273.572L169.626 273.572L170.544 273.175ZM211.7 13.7695C165.058 2.75566 132.055 -1.05081 104.047 1.40682L104.222 3.39917C131.918 0.968859 164.681 4.72149 211.24 15.7159L211.7 13.7695ZM104.047 1.40683C93.8399 2.30296 86.3975 3.36399 79.2288 5.27033C72.0589 7.17696 65.1994 9.91942 56.149 14.145L56.9951 15.9572C65.9979 11.7539 72.7364 9.06631 79.7427 7.20315C86.7502 5.3397 94.0623 4.29113 104.222 3.39916L104.047 1.40683ZM56.149 14.145C36.4331 23.3498 24.5045 33.1564 14.5479 48.4267L16.2232 49.5191C25.9385 34.6189 37.5493 25.0359 56.9951 15.9572L56.149 14.145ZM14.5479 48.4268C10.5255 54.5964 6.28887 64.119 2.87472 73.9366C-0.540062 83.7561 -3.16652 93.9701 -3.92476 101.541L-1.93472 101.741C-1.1985 94.3893 1.37389 84.3414 4.76376 74.5936C8.15424 64.8439 12.328 55.4937 16.2233 49.5191L14.5479 48.4268ZM-3.92475 101.541C-4.57725 108.053 -4.8185 117.72 -4.70968 126.192C-4.65525 130.431 -4.51298 134.387 -4.28876 137.512C-4.1767 139.074 -4.04341 140.44 -3.88836 141.536C-3.73797 142.599 -3.55497 143.505 -3.31005 144.082L-1.46904 143.301C-1.60062 142.991 -1.75735 142.321 -1.90809 141.256C-2.05424 140.223 -2.18356 138.907 -2.29388 137.369C-2.51436 134.296 -2.65572 130.382 -2.70986 126.166C-2.81822 117.729 -2.57654 108.145 -1.93472 101.741L-3.92475 101.541ZM-3.31005 144.082C-3.14199 144.478 -2.87851 144.852 -2.47423 145.117C-2.07038 145.382 -1.61095 145.482 -1.14656 145.479C-0.270641 145.472 0.780155 145.092 1.99897 144.477C4.47778 143.225 8.22571 140.688 13.8105 136.615L12.632 134.999C7.02598 139.087 3.40697 141.525 1.09733 142.692C-0.0780749 143.285 -0.776883 143.476 -1.16162 143.479C-1.32759 143.48 -1.37624 143.445 -1.37775 143.444C-1.37877 143.443 -1.41785 143.421 -1.46904 143.301L-3.31005 144.082ZM13.8105 136.615C44.6134 114.153 91.0071 89.056 140.979 67.8441L140.198 66.0031C90.1388 87.2519 43.5978 112.418 12.6321 134.999L13.8105 136.615ZM140.979 67.8441C153.617 62.4795 161.306 59.3239 165.921 57.7173C168.243 56.9089 169.71 56.5208 170.612 56.4195C171.066 56.3685 171.28 56.4028 171.357 56.4271C171.382 56.4352 171.303 56.4022 171.265 56.3141L173.106 55.5327C172.891 55.0247 172.48 54.6855 171.962 54.5211C171.496 54.3728 170.957 54.3682 170.388 54.4321C169.245 54.5605 167.594 55.0171 165.263 55.8284C160.573 57.4613 152.819 60.6456 140.198 66.0031L140.979 67.8441ZM171.265 56.3141C171.275 56.3365 171.376 56.6392 170.757 57.5107C170.176 58.3298 169.129 59.4029 167.503 60.7857C164.264 63.5404 158.931 67.3521 151.04 72.5994L152.147 74.2649C160.041 69.0162 165.461 65.1478 168.799 62.3093C170.462 60.8954 171.66 59.6937 172.388 58.6684C173.079 57.6956 173.553 56.5846 173.106 55.5327L171.265 56.3141ZM151.04 72.5994C146.088 75.892 140.347 79.9394 138.28 81.5967L139.531 83.1571C141.523 81.5601 147.2 77.555 152.147 74.2648L151.04 72.5994ZM138.279 81.5971C136.273 83.2076 131.217 86.9672 127.046 89.9476L128.209 91.5748C132.387 88.5893 137.48 84.8034 139.531 83.1567L138.279 81.5971ZM127.046 89.9476C100.642 108.821 69.6817 135.038 55.9523 150.166L57.4333 151.51C71.028 136.53 101.861 110.408 128.209 91.5747L127.046 89.9476ZM55.9521 150.166C54.8513 151.38 53.9926 152.356 53.3753 153.134C52.7847 153.879 52.3204 154.555 52.1353 155.147C52.0369 155.462 51.978 155.874 52.141 156.293C52.3122 156.734 52.652 156.992 52.9643 157.137C53.2609 157.275 53.5912 157.339 53.8953 157.376C54.2095 157.413 54.5629 157.427 54.9385 157.429L54.9508 155.429C54.607 155.427 54.338 155.414 54.1309 155.389C53.9138 155.364 53.824 155.331 53.8059 155.323C53.8034 155.322 53.9339 155.386 54.0052 155.569C54.0684 155.731 54.0191 155.824 54.0441 155.744C54.1057 155.547 54.343 155.133 54.9423 154.377C55.5149 153.655 56.3344 152.722 57.4335 151.51L55.9521 150.166ZM54.9384 157.429C55.9673 157.435 57.429 157.202 58.9266 156.851C60.4412 156.496 62.0696 156.002 63.4521 155.451L62.7111 153.593C61.4362 154.102 59.9052 154.567 58.4702 154.904C57.0182 155.244 55.7402 155.434 54.9509 155.429L54.9384 157.429ZM63.4527 155.451C64.0017 155.231 64.9276 155.019 66.1884 154.841C67.4306 154.665 68.9361 154.532 70.6072 154.447C73.9494 154.278 77.9105 154.307 81.6744 154.574L81.816 152.579C77.9719 152.306 73.9297 152.277 70.5062 152.45C68.7945 152.537 67.2267 152.674 65.909 152.86C64.6101 153.044 63.4899 153.282 62.7105 153.593L63.4527 155.451ZM81.6743 154.574C99.9974 155.877 118.877 164.482 135.059 178.982L136.393 177.492C119.942 162.75 100.657 153.918 81.8161 152.579L81.6743 154.574ZM135.059 178.982C138.097 181.704 140.457 183.788 142.389 185.266C144.308 186.733 145.912 187.688 147.438 188.039C149.04 188.406 150.447 188.086 151.891 187.271C153.28 186.488 154.764 185.211 156.557 183.612L155.226 182.119C153.4 183.748 152.076 184.87 150.909 185.529C149.796 186.157 148.898 186.322 147.885 186.089C146.797 185.839 145.477 185.109 143.604 183.677C141.745 182.255 139.445 180.226 136.393 177.492L135.059 178.982ZM156.557 183.612C174.197 167.879 191.052 144.719 201.052 122.482L199.228 121.661C189.339 143.651 172.649 166.579 155.226 182.119L156.557 183.612ZM201.052 122.482C204.716 114.336 210.288 99.1628 215.063 85.0053C217.453 77.9209 219.647 71.077 221.308 65.4773C222.958 59.9117 224.107 55.49 224.369 53.3019L222.383 53.065C222.145 55.0529 221.052 59.3056 219.39 64.9087C217.739 70.4779 215.552 77.2971 213.168 84.3661C208.396 98.5156 202.849 113.61 199.228 121.661L201.052 122.482ZM224.368 53.3022C224.565 51.6608 224.816 50.0439 225.062 48.7656C225.185 48.1255 225.305 47.5804 225.413 47.1642C225.468 46.9557 225.517 46.7889 225.559 46.6634C225.606 46.5258 225.631 46.4801 225.627 46.4873L223.894 45.4878C223.726 45.7797 223.591 46.2282 223.478 46.6596C223.355 47.1327 223.226 47.7237 223.098 48.3878C222.842 49.7181 222.584 51.3822 222.383 53.0647L224.368 53.3022ZM225.627 46.4868C225.857 46.088 226.069 45.3739 226.267 44.5924C226.479 43.7587 226.711 42.6943 226.95 41.4853C227.43 39.065 227.948 36.0252 228.409 33.0083C228.869 29.9917 229.273 26.9854 229.522 24.6322C229.647 23.4574 229.734 22.4323 229.769 21.6448C229.786 21.2526 229.792 20.903 229.78 20.6157C229.77 20.379 229.746 20.0316 229.626 19.7488L227.785 20.5303C227.746 20.4368 227.771 20.4409 227.781 20.6978C227.79 20.9041 227.787 21.1903 227.771 21.5559C227.738 22.2843 227.656 23.2635 227.533 24.4217C227.289 26.7345 226.889 29.7085 226.432 32.7065C225.974 35.7043 225.46 38.7135 224.988 41.0966C224.752 42.2893 224.528 43.3151 224.329 44.1003C224.116 44.9377 223.962 45.3711 223.894 45.4883L225.627 46.4868ZM229.626 19.7488C229.506 19.466 229.297 19.282 229.184 19.1906C229.046 19.0799 228.889 18.9806 228.732 18.8922C228.416 18.7142 228.006 18.5261 227.531 18.3319C226.574 17.941 225.256 17.4844 223.683 16.9918C220.531 16.0049 216.284 14.8524 211.7 13.7695L211.24 15.7159C215.79 16.7907 219.99 17.9311 223.086 18.9005C224.637 19.386 225.893 19.8233 226.774 20.1832C227.217 20.3644 227.54 20.516 227.75 20.6344C227.856 20.6942 227.91 20.7324 227.928 20.7474C227.971 20.7817 227.862 20.7117 227.785 20.5303L229.626 19.7488ZM155.914 241.444C144.581 222.942 136.096 212.21 123.776 200.839L122.419 202.309C134.571 213.524 142.945 224.099 154.209 242.489L155.914 241.444ZM123.776 200.839C111.718 189.709 99.1438 182.843 85.9067 180.289C72.6661 177.734 58.8465 179.509 44.3299 185.523L45.0954 187.371C59.3165 181.479 72.7367 179.784 85.5278 182.253C98.3224 184.722 110.571 191.372 122.419 202.309L123.776 200.839ZM44.3299 185.523C38.2856 188.027 30.537 192.167 24.1233 196.08C20.9146 198.037 18.0216 199.949 15.8311 201.582C14.7371 202.398 13.8034 203.156 13.0889 203.823C12.4067 204.46 11.8186 205.11 11.5481 205.712L13.3723 206.531C13.4641 206.327 13.7818 205.912 14.4541 205.285C15.094 204.687 15.9636 203.978 17.0266 203.186C19.1502 201.602 21.9869 199.726 25.1648 197.787C31.5245 193.908 39.1776 189.823 45.0954 187.371L44.3299 185.523ZM11.5485 205.711C11.3493 206.153 11.4862 206.555 11.583 206.755C11.6852 206.965 11.8315 207.141 11.9585 207.275C12.2197 207.55 12.5903 207.845 13.0162 208.146C13.8815 208.757 15.1492 209.516 16.7058 210.368C19.8284 212.076 24.2128 214.212 29.1084 216.367L29.9141 214.537C25.0542 212.397 20.7242 210.287 17.6658 208.613C16.1319 207.774 14.9425 207.058 14.1704 206.512C13.7776 206.235 13.5345 206.03 13.4102 205.899C13.3445 205.83 13.3551 205.825 13.3816 205.88C13.4027 205.923 13.524 206.195 13.3719 206.532L11.5485 205.711ZM29.1085 216.367C48.2794 224.805 72.5489 239.102 88.391 251.288L89.6103 249.702C73.6349 237.414 49.2254 223.036 29.9141 214.537L29.1085 216.367ZM88.391 251.288C93.1591 254.955 97.2269 258.694 99.8145 261.61C101.119 263.079 101.998 264.286 102.42 265.137C102.638 265.577 102.677 265.812 102.676 265.887C102.676 265.907 102.673 265.854 102.722 265.776C102.775 265.691 102.843 265.651 102.868 265.64L103.65 267.481C103.952 267.353 104.225 267.143 104.417 266.838C104.603 266.539 104.671 266.216 104.676 265.921C104.685 265.364 104.476 264.782 104.212 264.249C103.669 263.154 102.647 261.788 101.31 260.282C98.617 257.248 94.4485 253.424 89.6103 249.702L88.391 251.288ZM102.868 265.64C103.013 265.579 103.128 265.575 103.148 265.575C103.182 265.573 103.195 265.576 103.179 265.574C103.146 265.57 103.072 265.558 102.946 265.528C102.698 265.468 102.339 265.362 101.867 265.205C100.93 264.894 99.6257 264.411 98.0432 263.789C94.882 262.547 90.6558 260.77 86.1306 258.759L85.3183 260.587C89.8628 262.607 94.1168 264.396 97.3119 265.651C98.9075 266.277 100.25 266.776 101.237 267.103C101.728 267.266 102.15 267.393 102.479 267.472C102.641 267.511 102.805 267.545 102.955 267.562C103.03 267.57 103.122 267.577 103.22 267.573C103.304 267.57 103.469 267.558 103.65 267.481L102.868 265.64ZM86.1307 258.759C70.3691 251.752 48.1426 244.552 36.2109 242.606L35.8889 244.579C47.5958 246.489 69.6515 253.621 85.3182 260.587L86.1307 258.759ZM36.2108 242.606C28.8464 241.405 21.8254 240.344 16.3474 239.587C13.609 239.209 11.2519 238.907 9.42838 238.701C7.63213 238.498 6.28818 238.382 5.62078 238.393L5.65572 240.393C6.16839 240.384 7.37639 240.482 9.20425 240.688C11.0048 240.891 13.3439 241.191 16.0739 241.568C21.5327 242.322 28.5374 243.381 35.889 244.579L36.2108 242.606ZM5.62137 238.393C5.26123 238.399 4.85172 238.453 4.46766 238.649C4.05654 238.857 3.74866 239.19 3.55551 239.619C3.21311 240.38 3.2468 241.42 3.43739 242.655C3.83163 245.21 5.08805 249.601 7.34912 256.967L9.26105 256.381C6.98306 248.959 5.78101 244.729 5.41403 242.35C5.22403 241.119 5.30142 240.613 5.37918 240.44C5.39138 240.413 5.39702 240.411 5.38981 240.418C5.38673 240.422 5.38286 240.425 5.37884 240.428C5.37488 240.431 5.37271 240.432 5.3736 240.432C5.38184 240.427 5.45273 240.396 5.65514 240.393L5.62137 238.393ZM7.3491 256.967C10.5112 267.27 13.4236 274.675 17.2956 281.126C21.172 287.584 25.9813 293.039 32.8778 299.482L34.2432 298.021C27.4216 291.648 22.7559 286.337 19.0105 280.096C15.2606 273.849 12.4044 266.622 9.26107 256.381L7.3491 256.967ZM32.8779 299.482C39.4469 305.619 45.6342 309.893 52.8886 312.859C60.1326 315.82 68.3855 317.454 79.0532 318.381L79.2264 316.389C68.6629 315.47 60.6308 313.863 53.6454 311.007C46.6703 308.156 40.6835 304.037 34.2431 298.021L32.8779 299.482ZM79.0531 318.381C104.905 320.63 129.133 315.757 161.99 301.789L161.207 299.949C128.542 313.835 104.652 318.6 79.2264 316.389L79.0531 318.381ZM161.99 301.789L179.663 294.275L178.881 292.435L161.207 299.949L161.99 301.789ZM180.19 292.958L171.462 272.778L169.626 273.572L178.354 293.752L180.19 292.958ZM171.462 272.778C166.655 261.662 159.666 247.568 155.914 241.444L154.209 242.489C157.888 248.496 164.835 262.492 169.626 273.572L171.462 272.778Z" fill="#C1E3DE" fill-opacity="0.4"/>
</svg>
