<svg width="364" height="464" viewBox="0 0 364 464" fill="none" xmlns="http://www.w3.org/2000/svg">
<path d="M335.433 11.649L335.579 10.6598L335.579 10.6597L335.433 11.649ZM169.291 5.89568L169.139 4.90731L169.139 4.90732L169.291 5.89568ZM95.5325 29.4513L95.9837 30.3437L95.9837 30.3437L95.5325 29.4513ZM31.4852 82.9476L30.6552 82.3898L30.6552 82.3899L31.4852 82.9476ZM2.71621 160.894L3.70999 161.006L3.70999 161.005L2.71621 160.894ZM27.4686 208.317L26.8695 207.516L26.8695 207.516L27.4686 208.317ZM242.25 102.93L241.683 102.106L241.683 102.106L242.25 102.93ZM222.531 117.241L221.899 116.466L221.899 116.466L222.531 117.241ZM205.001 130.586L204.409 129.78L204.409 129.78L205.001 130.586ZM94.6801 225.105L93.9427 224.43L93.9426 224.43L94.6801 225.105ZM91.9299 233.357L91.8635 232.36L91.8634 232.36L91.9299 233.357ZM104.547 229.698L104.951 230.612L104.952 230.612L104.547 229.698ZM133.459 226.244L133.453 225.244L133.453 225.244L133.459 226.244ZM216.873 255.731L216.266 256.525L216.266 256.525L216.873 255.731ZM248.069 260.14L248.738 260.884L248.738 260.884L248.069 260.14ZM317.065 167.578L317.969 168.005L317.969 168.005L317.065 167.578ZM353.578 65.7077L352.587 65.5762L352.586 65.5765L353.578 65.7077ZM355.778 55.1832L356.636 55.6968L356.636 55.6963L355.778 55.1832ZM248.241 345.573L249.066 345.007L249.066 345.007L248.241 345.573ZM198.987 290.877L198.367 291.662L198.367 291.662L198.987 290.877ZM77.5684 277.836L77.984 278.746L77.984 278.746L77.5684 277.836ZM27.4143 309.837L28.3183 310.264L28.3187 310.263L27.4143 309.837ZM53.7808 321.388L53.4606 322.335L53.4606 322.335L53.7808 321.388ZM145.752 365.281L145.21 366.121L145.21 366.121L145.752 365.281ZM167.738 386.863L168.16 387.769L167.738 386.863ZM140.603 378.89L140.28 379.837L140.28 379.837L140.603 378.89ZM63.7065 361.256L63.7858 360.259L63.7858 360.259L63.7065 361.256ZM16.5863 358.606L16.674 359.602L16.6745 359.602L16.5863 358.606ZM20.5909 383.239L21.5398 382.924L21.5398 382.924L20.5909 383.239ZM59.4311 441.119L58.8061 441.899L58.8062 441.899L59.4311 441.119ZM129.959 462.895L129.968 461.895L129.968 461.895L129.959 462.895ZM257.932 429.825L258.355 430.731L258.355 430.731L257.932 429.825ZM285.391 417.003L285.814 417.909L286.726 417.483L286.294 416.574L285.391 417.003ZM272.011 388.866L271.108 389.295L271.108 389.296L272.011 388.866ZM335.579 10.6597C263.449 0.0187441 212.437 -1.75752 169.139 4.90731L169.444 6.88405C212.456 0.263158 263.241 2.0098 335.287 12.6383L335.579 10.6597ZM169.139 4.90732C137.481 9.78197 123.201 14.3415 95.0813 28.5588L95.9837 30.3437C123.913 16.223 137.99 11.7272 169.444 6.88404L169.139 4.90732ZM95.0813 28.5588C64.5685 43.9853 46.1199 59.3777 30.6552 82.3898L32.3152 83.5054C47.5484 60.8376 65.7047 45.6519 95.9837 30.3437L95.0813 28.5588ZM30.6552 82.3899C24.4148 91.6768 17.7974 105.828 12.4401 120.343C7.08314 134.857 2.94965 149.833 1.72243 160.783L3.70999 161.005C4.91151 150.285 8.98486 135.481 14.3164 121.036C19.6476 106.592 26.2003 92.6054 32.3152 83.5053L30.6552 82.3899ZM1.72244 160.783C0.664393 170.218 0.216735 184.16 0.320343 196.349C0.372169 202.447 0.562087 208.124 0.884795 212.593C1.04606 214.827 1.24136 216.772 1.47154 218.323C1.69623 219.838 1.96835 221.086 2.32467 221.85L4.13728 221.005C3.91727 220.533 3.67529 219.549 3.44985 218.03C3.22989 216.547 3.03897 214.657 2.87959 212.449C2.56096 208.036 2.37189 202.405 2.32025 196.332C2.21696 184.18 2.66459 170.328 3.70999 161.006L1.72244 160.783ZM2.32467 221.85C2.56476 222.365 2.93209 222.815 3.46971 223.105C3.99801 223.39 4.59695 223.47 5.21743 223.421C6.4158 223.326 7.92947 222.727 9.80608 221.712C13.5984 219.66 19.3797 215.618 28.0676 209.117L26.8695 207.516C18.1631 214.03 12.4968 217.982 8.85454 219.953C7.0138 220.948 5.81342 221.367 5.05922 221.427C4.70343 221.455 4.51649 221.397 4.41908 221.344C4.33097 221.297 4.23277 221.21 4.13728 221.005L2.32467 221.85ZM28.0676 209.117C75.9993 173.258 148.093 131.87 225.678 95.6905L224.833 93.8779C147.171 130.093 74.9469 171.548 26.8695 207.516L28.0676 209.117ZM225.678 95.6905C245.288 86.5464 257.241 81.1272 264.426 78.285C268.032 76.8586 270.368 76.1097 271.844 75.8488C272.588 75.7172 273.018 75.7283 273.247 75.7795C273.298 75.7911 273.333 75.8033 273.353 75.8123C273.374 75.8211 273.382 75.827 273.382 75.827C273.382 75.8272 273.381 75.8264 273.379 75.8246C273.377 75.8228 273.375 75.8207 273.373 75.8184C273.369 75.8132 273.369 75.8108 273.37 75.8148L275.183 74.9696C274.891 74.3444 274.346 73.976 273.683 73.8278C273.073 73.6912 272.336 73.7307 271.496 73.8793C269.803 74.1785 267.303 74.9961 263.691 76.4252C256.439 79.2937 244.428 84.7407 224.833 93.8779L225.678 95.6905ZM273.37 75.8148C273.414 75.9084 273.458 76.0915 273.349 76.4566C273.236 76.8343 272.978 77.3404 272.502 77.9937C271.551 79.3002 269.875 81.0046 267.333 83.1903C262.262 87.5505 253.946 93.6599 241.683 102.106L242.818 103.753C255.082 95.306 263.477 89.1436 268.637 84.7068C271.21 82.4941 273.029 80.6688 274.119 79.1709C274.664 78.422 275.063 77.7073 275.266 77.0276C275.472 76.3352 275.488 75.6244 275.183 74.9696L273.37 75.8148ZM241.683 102.106C233.991 107.405 225.089 113.866 221.899 116.466L223.163 118.016C226.284 115.471 235.128 109.05 242.818 103.753L241.683 102.106ZM221.899 116.466C218.765 119.024 210.893 125.016 204.409 129.78L205.593 131.392C212.083 126.624 219.989 120.606 223.163 118.016L221.899 116.466ZM204.409 129.78C163.39 159.922 115.28 201.138 93.9427 224.43L95.4175 225.781C116.629 202.625 164.623 161.497 205.593 131.392L204.409 129.78ZM93.9426 224.43C92.229 226.302 90.9038 227.791 89.9554 228.965C89.0357 230.103 88.3743 231.057 88.1158 231.833C87.9821 232.234 87.9027 232.742 88.1149 233.241C88.3381 233.766 88.7798 234.043 89.1773 234.186C89.563 234.325 90.0074 234.377 90.4495 234.394C90.9034 234.412 91.4248 234.393 91.9964 234.355L91.8634 232.36C91.3208 232.396 90.8784 232.409 90.5256 232.396C90.1609 232.382 89.9554 232.341 89.8548 232.305C89.766 232.273 89.8849 232.293 89.9554 232.459C90.0149 232.598 89.9529 232.646 90.0132 232.465C90.1429 232.076 90.5765 231.379 91.5111 230.222C92.4171 229.1 93.7055 227.651 95.4176 225.781L93.9426 224.43ZM91.9963 234.355C94.9775 234.157 100.777 232.46 104.951 230.612L104.142 228.783C100.069 230.586 94.5138 232.183 91.8635 232.36L91.9963 234.355ZM104.952 230.612C106.858 229.767 110.999 228.934 116.25 228.307C121.454 227.685 127.614 227.281 133.465 227.244L133.453 225.244C127.526 225.282 121.291 225.691 116.013 226.321C110.784 226.945 106.358 227.801 104.141 228.784L104.952 230.612ZM133.465 227.244C161.99 227.067 191.265 237.404 216.266 256.525L217.481 254.936C192.166 235.575 162.466 225.064 133.453 225.244L133.465 227.244ZM216.266 256.525C220.953 260.109 224.58 262.838 227.546 264.741C230.502 266.637 232.909 267.786 235.151 268.103C237.453 268.428 239.469 267.864 241.597 266.596C243.681 265.355 245.937 263.4 248.738 260.884L247.401 259.396C244.572 261.938 242.461 263.754 240.574 264.878C238.731 265.975 237.173 266.369 235.431 266.122C233.628 265.867 231.52 264.914 228.626 263.058C225.742 261.207 222.182 258.531 217.481 254.936L216.266 256.525ZM248.738 260.884C276.107 236.299 302.34 201.106 317.969 168.005L316.161 167.151C300.646 200.01 274.574 234.988 247.401 259.396L248.738 260.884ZM317.969 168.005C323.694 155.881 332.434 133.411 339.937 112.477C343.691 102.004 347.14 91.9024 349.752 83.6544C352.353 75.4422 354.154 68.9791 354.569 65.8388L352.586 65.5765C352.198 68.5096 350.459 74.7975 347.845 83.0505C345.243 91.2678 341.802 101.345 338.054 111.802C330.554 132.728 321.841 155.12 316.161 167.151L317.969 168.005ZM354.569 65.8391C354.887 63.4435 355.29 61.0756 355.683 59.1949C355.879 58.2537 356.071 57.4446 356.246 56.8199C356.432 56.156 356.571 55.805 356.636 55.6968L354.92 54.6696C354.699 55.0385 354.5 55.6374 354.32 56.2809C354.129 56.9637 353.927 57.8196 353.725 58.7859C353.321 60.7204 352.91 63.1375 352.587 65.5762L354.569 65.8391ZM356.636 55.6963C356.951 55.17 357.27 54.1858 357.587 53.0212C357.919 51.807 358.284 50.2557 358.663 48.4901C359.423 44.9567 360.248 40.5248 360.984 36.1298C361.719 31.7352 362.367 27.3645 362.77 23.9538C362.971 22.2505 363.113 20.7724 363.172 19.6452C363.202 19.0832 363.213 18.5905 363.197 18.1924C363.189 17.9936 363.175 17.8031 363.149 17.631C363.125 17.4733 363.083 17.2668 362.992 17.0718L361.18 17.917C361.15 17.8539 361.158 17.8386 361.171 17.9278C361.182 18.0026 361.193 18.1145 361.199 18.2702C361.211 18.5811 361.203 19.0055 361.175 19.5394C361.119 20.6039 360.983 22.0332 360.784 23.7193C360.386 27.0875 359.744 31.4243 359.011 35.7997C358.279 40.1746 357.459 44.575 356.708 48.0698C356.332 49.8184 355.976 51.3303 355.658 52.4949C355.327 53.7091 355.069 54.4194 354.92 54.6701L356.636 55.6963ZM362.992 17.0718C362.841 16.7473 362.574 16.5448 362.418 16.4388C362.232 16.312 362.012 16.1977 361.782 16.0936C361.32 15.884 360.707 15.666 359.981 15.4421C358.523 14.9921 356.502 14.4853 354.076 13.9533C349.217 12.8878 342.662 11.705 335.579 10.6598L335.287 12.6383C342.336 13.6787 348.844 14.8536 353.647 15.9068C356.052 16.4341 358.011 16.9271 359.392 17.3531C360.085 17.5672 360.606 17.7564 360.956 17.9151C361.133 17.9951 361.238 18.0552 361.293 18.0921C361.377 18.1498 361.265 18.1002 361.18 17.917L362.992 17.0718ZM249.066 345.007C231.645 319.599 218.589 305.091 199.607 290.093L198.367 291.662C217.155 306.507 230.079 320.852 247.416 346.138L249.066 345.007ZM199.607 290.093C181.035 275.416 161.668 266.967 141.29 264.778C120.915 262.59 99.6039 266.668 77.1529 276.926L77.984 278.746C100.179 268.604 121.129 264.624 141.076 266.767C161.021 268.909 180.041 277.18 198.367 291.662L199.607 290.093ZM77.1529 276.926C67.8049 281.198 55.7918 288.02 45.8361 294.372C40.8567 297.549 36.3754 300.619 32.9888 303.205C31.2967 304.497 29.8642 305.678 28.7754 306.698C27.7195 307.688 26.8829 308.619 26.5099 309.41L28.3187 310.263C28.5134 309.851 29.0892 309.145 30.143 308.157C31.1637 307.201 32.538 306.065 34.2024 304.795C37.5289 302.255 41.9597 299.218 46.9119 296.058C56.8194 289.737 68.7478 282.966 77.984 278.746L77.1529 276.926ZM26.5103 309.409C26.2838 309.888 26.4294 310.336 26.5663 310.59C26.7017 310.842 26.9001 311.053 27.0835 311.221C27.4594 311.565 28.0057 311.932 28.6555 312.314C29.9715 313.087 31.9133 314.032 34.3144 315.084C39.1274 317.192 45.8956 319.778 53.4606 322.335L54.1011 320.44C46.5728 317.895 39.8618 315.331 35.117 313.252C32.7392 312.21 30.8823 311.302 29.6684 310.589C29.0532 310.228 28.6517 309.945 28.433 309.745C28.3192 309.641 28.3085 309.607 28.3278 309.643C28.3485 309.681 28.4707 309.942 28.3183 310.264L26.5103 309.409ZM53.4606 322.335C83.1568 332.372 120.71 350.297 145.21 366.121L146.295 364.441C121.647 348.521 83.9423 330.527 54.1011 320.44L53.4606 322.335ZM145.21 366.121C152.59 370.888 158.889 375.842 162.899 379.778C164.917 381.759 166.296 383.425 166.964 384.643C167.305 385.265 167.394 385.652 167.39 385.845C167.388 385.922 167.372 385.933 167.381 385.918C167.391 385.903 167.388 385.923 167.315 385.957L168.16 387.769C168.518 387.603 168.835 387.354 169.06 387.005C169.285 386.657 169.38 386.271 169.389 385.892C169.406 385.171 169.117 384.409 168.717 383.681C167.904 382.199 166.354 380.367 164.3 378.351C160.167 374.294 153.753 369.258 146.295 364.441L145.21 366.121ZM167.315 385.957C167.497 385.872 167.616 385.9 167.473 385.895C167.387 385.893 167.247 385.879 167.041 385.848C166.635 385.786 166.06 385.669 165.326 385.495C163.861 385.148 161.832 384.594 159.38 383.873C154.479 382.433 147.933 380.341 140.927 377.944L140.28 379.837C147.306 382.24 153.881 384.342 158.816 385.792C161.282 386.517 163.35 387.082 164.864 387.441C165.619 387.62 166.255 387.752 166.742 387.825C166.983 387.862 167.21 387.888 167.408 387.894C167.548 387.899 167.867 387.906 168.16 387.769L167.315 385.957ZM140.927 377.944C116.565 369.608 82.2055 361.725 63.7858 360.259L63.6272 362.253C81.829 363.701 116.019 371.535 140.28 379.837L140.927 377.944ZM63.7858 360.259C52.3805 359.353 41.5075 358.609 33.0256 358.132C24.5915 357.657 18.419 357.439 16.4982 357.609L16.6745 359.602C18.4133 359.448 24.4017 359.65 32.9132 360.128C41.377 360.605 52.2343 361.348 63.6273 362.253L63.7858 360.259ZM16.4987 357.609C15.4578 357.701 14.4084 358.072 13.862 359.228C13.3909 360.225 13.4078 361.615 13.6959 363.388C14.2832 367.002 16.1889 373.172 19.642 383.555L21.5398 382.924C18.0668 372.481 16.2256 366.487 15.67 363.067C15.3865 361.323 15.4829 360.479 15.6702 360.083C15.7822 359.846 15.9704 359.664 16.674 359.602L16.4987 357.609ZM19.642 383.555C24.4639 398.056 28.9145 408.386 34.8489 417.23C40.788 426.08 48.1777 433.389 58.8061 441.899L60.0562 440.338C49.5119 431.895 42.2922 424.732 36.5097 416.115C30.7225 407.491 26.3394 397.358 21.5398 382.924L19.642 383.555ZM58.8062 441.899C68.9207 449.997 78.4365 455.44 89.5908 458.884C100.731 462.324 113.451 463.753 129.951 463.895L129.968 461.895C113.563 461.753 101.059 460.332 90.1808 456.973C79.3168 453.619 70.0205 448.316 60.0561 440.338L58.8062 441.899ZM129.951 463.895C169.883 464.241 207.373 454.536 258.355 430.731L257.509 428.919C206.692 452.646 169.505 462.238 129.968 461.895L129.951 463.895ZM258.355 430.731L285.814 417.909L284.968 416.097L257.509 428.919L258.355 430.731ZM286.294 416.574L272.914 388.437L271.108 389.296L284.488 417.433L286.294 416.574ZM272.914 388.437C265.547 372.942 254.824 353.406 249.066 345.007L247.416 346.138C253.088 354.411 263.76 373.84 271.108 389.295L272.914 388.437Z" fill="#C1E3DE" fill-opacity="0.4"/>
</svg>
