<svg width="278" height="391" viewBox="0 0 278 391" fill="none" xmlns="http://www.w3.org/2000/svg">
<path d="M23.2741 13.9303L23.0791 12.9495L23.0792 12.9495L23.2741 13.9303ZM154.898 3.53167L155.02 2.53922L155.021 2.53922L154.898 3.53167ZM212.464 21.0273L212.01 21.9181L212.01 21.9181L212.464 21.0273ZM261.352 64.2025L262.207 63.6853L262.207 63.6853L261.352 64.2025ZM281.518 129.258L280.52 129.323L280.52 129.323L281.518 129.258ZM260.359 170.243L260.976 169.456L260.976 169.456L260.359 170.243ZM93.9536 88.1356L94.5358 87.3225L94.5358 87.3226L93.9536 88.1356ZM109.077 99.5997L109.729 98.8415L109.73 98.8419L109.077 99.5997ZM122.501 110.319L123.11 109.526L123.11 109.526L122.501 110.319ZM206.631 186.697L207.394 186.05L207.394 186.051L206.631 186.697ZM208.532 193.594L208.561 192.594L208.561 192.594L208.532 193.594ZM198.673 190.914L198.27 191.83L198.269 191.829L198.673 190.914ZM175.915 188.951L175.88 187.952L175.88 187.952L175.915 188.951ZM108.947 216.697L109.587 217.465L109.587 217.465L108.947 216.697ZM84.1211 221.469L83.4303 222.192L83.4302 222.192L84.1211 221.469ZM32.6184 145.374L31.693 145.753L31.693 145.753L32.6184 145.374ZM7.12199 60.3156L8.1184 60.2309L8.11842 60.2311L7.12199 60.3156ZM5.73163 51.4757L4.84892 51.9456L4.84865 51.9451L5.73163 51.4757ZM81.829 293.944L80.9953 293.392L80.9953 293.392L81.829 293.944ZM122.533 246.142L123.184 246.901L123.184 246.901L122.533 246.142ZM218.926 231.19L218.511 232.1L218.926 231.19ZM257.531 256.598L256.606 256.979L256.606 256.978L257.531 256.598ZM236.316 267.211L236.685 268.14L236.685 268.14L236.316 267.211ZM162.198 307.272L162.779 308.087L162.779 308.087L162.198 307.272ZM165.827 318.602L166.199 319.53L166.199 319.53L165.827 318.602ZM227.179 301.213L227.054 300.221L227.054 300.221L227.179 301.213ZM264.509 297.446L264.456 298.445L264.455 298.445L264.509 297.446ZM260.545 318.386L259.6 318.06L259.6 318.06L260.545 318.386ZM227.97 368.54L228.625 369.296L228.625 369.296L227.97 368.54ZM171.518 389.223L171.468 388.224L171.468 388.224L171.518 389.223ZM71.4384 365.433L71.0153 366.34L71.0153 366.34L71.4384 365.433ZM50.1504 355.492L49.7272 356.398L48.8155 355.972L49.247 355.063L50.1504 355.492ZM61.6379 331.288L62.5414 331.717L62.5413 331.717L61.6379 331.288ZM23.0792 12.9495C80.5022 1.53702 120.947 -1.67028 155.02 2.53922L154.775 4.52413C121.012 0.35291 80.8094 3.51509 23.4691 14.9112L23.0792 12.9495ZM155.021 2.53922C179.935 5.61847 191.113 9.01471 212.918 20.1365L212.01 21.9181C190.418 10.905 179.465 7.57554 154.775 4.52412L155.021 2.53922ZM212.918 20.1365C236.586 32.2075 250.711 44.664 262.207 63.6853L260.496 64.7198C249.227 46.0763 235.412 33.854 212.01 21.9181L212.918 20.1365ZM262.207 63.6853C266.849 71.3653 271.619 83.1483 275.376 95.2674C279.133 107.388 281.908 119.946 282.516 129.192L280.52 129.323C279.927 120.298 277.2 107.908 273.465 95.8596C269.73 83.8093 265.017 72.2006 260.496 64.7198L262.207 63.6853ZM282.516 129.192C283.039 137.153 282.929 148.95 282.442 159.278C282.198 164.445 281.859 169.261 281.455 173.059C281.253 174.957 281.033 176.612 280.799 177.935C280.571 179.226 280.313 180.298 280.003 180.963L278.191 180.118C278.378 179.716 278.601 178.88 278.83 177.587C279.053 176.326 279.267 174.721 279.466 172.847C279.865 169.101 280.201 164.327 280.444 159.184C280.93 148.89 281.037 137.178 280.52 129.323L282.516 129.192ZM280.003 180.963C279.795 181.409 279.484 181.816 279.024 182.094C278.565 182.372 278.046 182.469 277.512 182.446C276.497 182.403 275.268 181.916 273.81 181.115C270.854 179.49 266.396 176.243 259.742 171.03L260.976 169.456C267.65 174.685 271.983 177.829 274.773 179.362C276.189 180.14 277.073 180.426 277.598 180.448C277.834 180.458 277.941 180.412 277.988 180.384C278.035 180.355 278.109 180.292 278.191 180.118L280.003 180.963ZM259.742 171.03C223.04 142.274 167.407 109.632 107.246 81.5783L108.091 79.7657C168.337 107.859 224.116 140.575 260.976 169.456L259.742 171.03ZM107.246 81.5783C92.0351 74.4854 82.7688 70.2981 77.1906 68.1344C74.3872 67.047 72.5908 66.5015 71.467 66.3348C70.902 66.251 70.6025 66.2789 70.4644 66.3174C70.4056 66.3338 70.3981 66.3462 70.4125 66.3345C70.419 66.3293 70.4262 66.3221 70.4324 66.314C70.4385 66.3061 70.4407 66.3012 70.4402 66.3022L68.6276 65.457C68.8824 64.9107 69.3434 64.5538 69.9269 64.391C70.4589 64.2426 71.0817 64.2558 71.7605 64.3565C73.1244 64.5588 75.1019 65.1791 77.9139 66.2698C83.5663 68.4623 92.8968 72.6804 108.091 79.7657L107.246 81.5783ZM70.4402 66.3022C70.3759 66.4402 70.2997 66.8963 71.0268 67.9985C71.7181 69.0466 72.968 70.4163 74.9004 72.1776C78.753 75.689 85.1162 80.5777 94.5358 87.3225L93.3715 88.9487C83.9499 82.2024 77.5012 77.2541 73.5532 73.6557C71.5853 71.8622 70.1878 70.3588 69.3573 69.0998C68.5625 67.895 68.0899 66.61 68.6276 65.457L70.4402 66.3022ZM94.5358 87.3226C100.446 91.5544 107.282 96.7368 109.729 98.8415L108.425 100.358C106.051 98.3159 99.2776 93.1779 93.3714 88.9486L94.5358 87.3226ZM109.73 98.8419C112.118 100.898 118.141 105.708 123.11 109.526L121.892 111.112C116.915 107.288 110.856 102.451 108.425 100.357L109.73 98.8419ZM123.11 109.526C154.566 133.694 191.272 167.013 207.394 186.05L205.868 187.343C189.875 168.459 153.293 135.238 121.892 111.112L123.11 109.526ZM207.394 186.051C208.688 187.579 209.691 188.802 210.408 189.772C211.099 190.707 211.614 191.523 211.803 192.209C211.903 192.571 211.947 193.02 211.758 193.462C211.559 193.925 211.186 194.192 210.833 194.34C210.497 194.482 210.117 194.544 209.754 194.574C209.381 194.605 208.958 194.607 208.502 194.593L208.561 192.594C208.985 192.607 209.323 192.603 209.589 192.581C209.865 192.558 210.003 192.52 210.057 192.497C210.095 192.481 209.986 192.52 209.92 192.673C209.863 192.806 209.909 192.865 209.875 192.741C209.796 192.453 209.499 191.907 208.799 190.96C208.126 190.048 207.159 188.869 205.867 187.343L207.394 186.051ZM208.503 194.593C207.272 194.557 205.517 194.215 203.708 193.723C201.881 193.226 199.924 192.557 198.27 191.83L199.075 189.999C200.623 190.68 202.485 191.318 204.232 191.793C205.997 192.272 207.57 192.565 208.561 192.594L208.503 194.593ZM198.269 191.829C197.582 191.527 196.439 191.223 194.902 190.951C193.384 190.682 191.543 190.453 189.501 190.277C185.417 189.925 180.568 189.787 175.951 189.951L175.88 187.952C180.578 187.786 185.508 187.925 189.673 188.284C191.755 188.464 193.658 188.699 195.251 188.982C196.826 189.261 198.162 189.597 199.076 189.999L198.269 191.829ZM175.951 189.951C153.457 190.746 129.99 200.45 109.587 217.465L108.306 215.929C128.988 198.681 152.868 188.766 175.88 187.952L175.951 189.951ZM109.587 217.465C105.761 220.656 102.797 223.09 100.383 224.804C97.9833 226.507 96.0169 227.579 94.1871 227.931C92.2811 228.297 90.6319 227.865 88.9385 226.83C87.2991 225.829 85.557 224.225 83.4303 222.192L84.812 220.747C86.9707 222.809 88.5579 224.254 89.9811 225.124C91.3503 225.96 92.497 226.219 93.8095 225.967C95.1982 225.7 96.8729 224.842 99.2258 223.173C101.565 221.513 104.466 219.131 108.306 215.929L109.587 217.465ZM83.4302 222.192C62.5666 202.253 42.9661 173.292 31.693 145.753L33.5439 144.995C44.7141 172.282 64.1578 201.007 84.8121 220.747L83.4302 222.192ZM31.693 145.753C27.5639 135.666 21.3951 116.92 16.1555 99.4406C13.534 90.6949 11.141 82.2521 9.34809 75.3513C7.56417 68.4849 6.35092 63.0589 6.12556 60.4001L8.11842 60.2311C8.32674 62.689 9.49004 67.944 11.2838 74.8484C13.0687 81.7184 15.4545 90.1362 18.0713 98.8663C23.3085 116.338 29.4542 135.005 33.5439 144.995L31.693 145.753ZM6.12558 60.4003C5.95419 58.3846 5.7143 56.3956 5.46662 54.8195C5.34264 54.0306 5.21827 53.3551 5.10173 52.8363C5.04339 52.5766 4.98908 52.3654 4.94034 52.2037C4.91607 52.1231 4.89482 52.0604 4.8771 52.0134C4.85853 51.9642 4.84847 51.9448 4.84892 51.9456L6.61434 51.0058C6.79174 51.339 6.93311 51.8637 7.05311 52.398C7.18254 52.9742 7.31458 53.6958 7.44238 54.5091C7.69827 56.1374 7.94349 58.1738 8.1184 60.2309L6.12558 60.4003ZM4.84865 51.9451C4.60158 51.4804 4.37788 50.6312 4.1669 49.6629C3.94443 48.6419 3.70668 47.3374 3.465 45.8537C2.98128 42.884 2.47537 39.156 2.03949 35.4572C1.60365 31.7587 1.23633 28.0767 1.03108 25.1992C0.92859 23.7623 0.865532 22.5128 0.855755 21.5571C0.850883 21.0806 0.859018 20.6608 0.884773 20.3197C0.906716 20.0291 0.948976 19.6439 1.08852 19.3447L2.90114 20.1899C2.9346 20.1181 2.90256 20.1596 2.87909 20.4703C2.85944 20.7306 2.85105 21.0869 2.85565 21.5366C2.86482 22.4332 2.9247 23.6366 3.02601 25.0569C3.22836 27.8938 3.5921 31.5433 4.02575 35.2231C4.45935 38.9027 4.96137 42.5999 5.43899 45.5321C5.67798 46.9994 5.90926 48.2651 6.12105 49.2371C6.34431 50.2618 6.52009 50.8285 6.61461 51.0063L4.84865 51.9451ZM1.08852 19.3447C1.22368 19.0548 1.4512 18.866 1.58548 18.7654C1.7443 18.6464 1.92904 18.5384 2.11854 18.4403C2.49981 18.2429 2.99966 18.035 3.58451 17.82C4.76038 17.3877 6.38238 16.8896 8.32208 16.3576C12.2073 15.292 17.4375 14.0711 23.0791 12.9495L23.4691 14.9111C17.862 16.0259 12.6797 17.2362 8.8511 18.2863C6.93389 18.8122 5.37363 19.2931 4.27466 19.6971C3.72209 19.9003 3.31137 20.0749 3.03802 20.2164C2.90021 20.2878 2.82163 20.3383 2.78476 20.3659C2.72334 20.412 2.82279 20.3579 2.90114 20.1899L1.08852 19.3447ZM80.9953 293.392C95.5902 271.361 106.383 258.676 121.882 245.383L123.184 246.901C107.86 260.044 97.1842 272.576 82.6627 294.497L80.9953 293.392ZM121.882 245.383C137.045 232.376 152.653 224.59 168.882 222.073C185.113 219.555 201.882 222.321 219.34 230.28L218.511 232.1C201.342 224.273 184.968 221.601 169.188 224.049C153.404 226.497 138.13 234.08 123.184 246.901L121.882 245.383ZM219.34 230.28C226.609 233.594 235.897 238.977 243.568 244.025C247.406 246.551 250.856 249.005 253.459 251.087C254.759 252.127 255.862 253.085 256.699 253.922C257.506 254.728 258.168 255.518 258.456 256.219L256.606 256.978C256.483 256.68 256.083 256.133 255.286 255.337C254.52 254.572 253.479 253.664 252.21 252.649C249.672 250.619 246.276 248.202 242.469 245.696C234.851 240.682 225.656 235.357 218.511 232.1L219.34 230.28ZM258.456 256.218C258.645 256.679 258.492 257.091 258.379 257.304C258.261 257.528 258.092 257.718 257.938 257.869C257.623 258.178 257.173 258.511 256.644 258.857C255.572 259.556 254.001 260.421 252.067 261.388C248.189 263.328 242.751 265.733 236.685 268.14L235.947 266.281C241.977 263.889 247.36 261.507 251.172 259.6C253.083 258.644 254.574 257.819 255.55 257.182C256.045 256.859 256.365 256.611 256.538 256.442C256.627 256.353 256.632 256.33 256.612 256.367C256.598 256.394 256.47 256.648 256.606 256.979L258.456 256.218ZM236.685 268.14C212.901 277.577 182.648 293.931 162.779 308.087L161.618 306.458C181.624 292.204 212.02 275.775 235.947 266.281L236.685 268.14ZM162.779 308.087C156.795 312.35 151.661 316.734 148.368 320.185C146.711 321.921 145.572 323.369 145.007 324.413C144.718 324.95 144.641 325.27 144.638 325.414C144.637 325.468 144.649 325.445 144.617 325.39C144.581 325.329 144.538 325.307 144.544 325.31L143.699 327.123C143.371 326.97 143.083 326.731 142.888 326.396C142.697 326.067 142.633 325.711 142.639 325.381C142.649 324.754 142.908 324.091 143.248 323.463C143.942 322.178 145.231 320.576 146.922 318.804C150.324 315.238 155.563 310.772 161.618 306.458L162.779 308.087ZM144.544 325.31C144.406 325.246 144.297 325.239 144.285 325.238C144.258 325.237 144.253 325.239 144.28 325.237C144.334 325.233 144.434 325.219 144.593 325.187C144.908 325.123 145.359 325.007 145.943 324.837C147.107 324.498 148.724 323.965 150.685 323.278C154.602 321.903 159.841 319.925 165.455 317.674L166.199 319.53C160.566 321.789 155.298 323.779 151.347 325.165C149.373 325.857 147.717 326.403 146.503 326.757C145.899 326.933 145.385 327.067 144.989 327.147C144.793 327.187 144.602 327.218 144.431 327.231C144.345 327.237 144.245 327.241 144.14 327.233C144.049 327.227 143.88 327.207 143.699 327.123L144.544 325.31ZM165.455 317.674C184.989 309.839 212.421 302.059 227.054 300.221L227.303 302.205C212.896 304.015 185.637 311.734 166.199 319.53L165.455 317.674ZM227.054 300.221C236.1 299.085 244.72 298.104 251.442 297.425C254.803 297.086 257.693 296.823 259.927 296.653C262.133 296.486 263.765 296.405 264.562 296.448L264.455 298.445C263.812 298.41 262.316 298.478 260.078 298.647C257.867 298.815 254.995 299.077 251.643 299.415C244.94 300.092 236.336 301.071 227.303 302.205L227.054 300.221ZM264.562 296.448C264.984 296.47 265.444 296.55 265.863 296.782C266.309 297.028 266.638 297.407 266.838 297.894C267.199 298.77 267.129 299.978 266.846 301.475C266.264 304.553 264.556 309.831 261.49 318.713L259.6 318.06C262.684 309.124 264.332 304.005 264.881 301.103C265.163 299.611 265.103 298.934 264.989 298.655C264.951 298.564 264.921 298.547 264.896 298.533C264.844 298.504 264.72 298.459 264.456 298.445L264.562 296.448ZM261.49 318.713C257.209 331.121 253.355 339.995 248.374 347.663C243.389 355.339 237.306 361.758 228.625 369.296L227.314 367.785C235.917 360.315 241.851 354.035 246.697 346.574C251.548 339.106 255.339 330.408 259.6 318.06L261.49 318.713ZM228.625 369.296C220.363 376.469 212.651 381.387 203.697 384.667C194.754 387.944 184.628 389.565 171.568 390.221L171.468 388.224C184.424 387.573 194.328 385.97 203.009 382.789C211.679 379.613 219.185 374.843 227.314 367.785L228.625 369.296ZM171.568 390.221C139.936 391.811 110.571 384.81 71.0153 366.34L71.8615 364.527C111.229 382.91 140.263 389.792 171.468 388.224L171.568 390.221ZM71.0153 366.34L49.7272 356.398L50.5735 354.586L71.8616 364.527L71.0153 366.34ZM49.247 355.063L60.7345 330.859L62.5413 331.717L51.0538 355.92L49.247 355.063ZM60.7345 330.859C67.0599 317.53 76.1702 300.677 80.9953 293.392L82.6627 294.497C77.9135 301.666 68.85 318.423 62.5414 331.717L60.7345 330.859Z" fill="#C1E3DE" fill-opacity="0.4"/>
</svg>
