<svg width="414" height="574" viewBox="0 0 414 574" fill="none" xmlns="http://www.w3.org/2000/svg">
<path d="M299.671 2.99534L299.588 1.99837L299.588 1.99837L299.671 2.99534ZM120.478 39.74L120.08 38.822L120.08 38.822L120.478 39.74ZM51.636 85.5321L52.3316 86.2505L52.3316 86.2505L51.636 85.5321ZM5.41433 162.601L4.44107 162.373L4.44106 162.373L5.41433 162.601ZM6.7719 258.094L7.74132 257.85L7.74131 257.85L6.7719 258.094ZM32.1539 326.306L31.411 326.975L32.1539 326.306ZM52.5724 305.194L51.7481 304.629L51.7481 304.629L52.5724 305.194ZM216.51 125.534L215.841 124.791L216.51 125.534ZM260.73 90.8812L261.473 90.2118L260.73 90.8812ZM237.94 130.308L237.142 129.705L237.142 129.706L237.94 130.308ZM222.823 151.598L221.973 151.071L221.973 151.072L222.823 151.598ZM209.64 171.228L208.821 170.654L208.821 170.654L209.64 171.228ZM130.997 306.657L130.073 306.275L130.073 306.275L130.997 306.657ZM131.455 316.69L131.147 315.738L131.147 315.738L131.455 316.69ZM143.382 309.274L144.034 310.033L144.034 310.032L143.382 309.274ZM172.738 297.85L172.495 296.88L172.494 296.88L172.738 297.85ZM273.617 309.432L273.216 310.349L273.216 310.349L273.617 309.432ZM308.63 306.292L309.507 306.772L309.507 306.771L308.63 306.292ZM344.091 183.828L345.088 183.901L345.088 183.901L344.091 183.828ZM341.161 59.3078L340.187 59.5335L340.187 59.5337L341.161 59.3078ZM339.185 46.8525L340.169 47.0265L340.169 47.026L339.185 46.8525ZM343.598 403.219L344.238 402.45L344.238 402.45L343.598 403.219ZM268.625 354.315L268.212 355.226L268.212 355.226L268.625 354.315ZM133.64 371.493L134.302 372.243L134.302 372.243L133.64 371.493ZM93.1802 420.87L94.1769 420.947L94.177 420.946L93.1802 420.87ZM126.061 427L125.962 427.996L125.962 427.996L126.061 427ZM242.227 452.456L241.896 453.4L241.896 453.4L242.227 452.456ZM274.533 471.081L273.865 470.338L274.533 471.081ZM242.297 469.2L242.195 470.195L242.195 470.195L242.297 469.2ZM152.973 469.477L152.818 468.489L152.818 468.489L152.973 469.477ZM101.574 478.87L101.905 479.814L101.905 479.814L101.574 478.87ZM115.93 505.675L116.736 505.083L116.736 505.083L115.93 505.675ZM181.086 560.917L180.668 561.826L180.668 561.826L181.086 560.917ZM265.305 566.999L265.076 566.025L265.076 566.025L265.305 566.999ZM388.421 495.951L389.09 496.694L389.09 496.694L388.421 495.951ZM412.494 474.23L413.164 474.973L413.911 474.299L413.233 473.556L412.494 474.23ZM386.694 445.928L385.956 446.603L385.956 446.603L386.694 445.928ZM299.588 1.99837C218.456 8.75652 163.434 20.0265 120.08 38.822L120.875 40.658C163.935 21.9898 218.705 10.7435 299.753 3.99231L299.588 1.99837ZM120.08 38.822C104.261 45.6811 92.9927 51.3337 82.6616 58.2057C72.3294 65.0784 62.9675 73.1491 50.9404 84.8137L52.3316 86.2505C64.3196 74.6238 73.5817 66.6478 83.7681 59.872C93.9557 53.0955 105.1 47.4977 120.875 40.6579L120.08 38.822ZM50.9404 84.8137C24.7815 110.183 11.4588 132.372 4.44107 162.373L6.3876 162.829C13.3028 133.266 26.3958 111.404 52.3316 86.2505L50.9404 84.8137ZM4.44106 162.373C1.61077 174.475 0.373844 192.166 0.626446 209.941C0.879089 227.718 2.62327 245.683 5.80248 258.338L7.74131 257.85C4.61511 245.406 2.87697 227.613 2.62541 209.912C2.37381 192.208 3.61081 174.703 6.38761 162.829L4.44106 162.373ZM5.80247 258.338C8.54345 269.252 13.7826 285.098 18.8916 298.828C21.4472 305.696 23.9757 312.049 26.1492 317.003C27.2356 319.48 28.2378 321.617 29.114 323.298C29.9755 324.951 30.7571 326.248 31.411 326.975L32.8968 325.636C32.4303 325.118 31.7489 324.028 30.8866 322.373C30.039 320.746 29.0567 318.653 27.9797 316.199C25.8266 311.291 23.3127 304.976 20.7651 298.129C15.6677 284.431 10.4567 268.662 7.74132 257.85L5.80247 258.338ZM31.411 326.975C31.8331 327.444 32.3486 327.814 32.9787 327.985C33.6109 328.157 34.2634 328.102 34.9133 327.881C36.1605 327.458 37.5359 326.379 39.1196 324.742C42.3193 321.433 46.8172 315.36 53.3966 305.76L51.7481 304.629C45.1531 314.25 40.7467 320.183 37.6832 323.35C36.1353 324.95 35.0394 325.726 34.272 325.986C33.9146 326.107 33.6739 326.101 33.5017 326.054C33.3274 326.007 33.1272 325.892 32.8968 325.636L31.411 326.975ZM53.3966 305.76C89.6975 252.804 149.446 187.316 217.179 126.277L215.841 124.791C148.036 185.895 88.1668 251.5 51.7481 304.629L53.3966 305.76ZM217.179 126.277C234.299 110.849 244.796 101.622 251.275 96.5445C254.527 93.9963 256.701 92.5468 258.159 91.8711C258.889 91.5324 259.353 91.4302 259.631 91.4284C259.856 91.4269 259.929 91.4868 259.987 91.5507L261.473 90.2118C261 89.686 260.363 89.4227 259.618 89.4276C258.926 89.4322 258.159 89.6659 257.318 90.0557C255.633 90.8369 253.303 92.4149 250.043 94.9692C243.499 100.097 232.947 109.375 215.841 124.791L217.179 126.277ZM259.987 91.5507C260.303 91.9017 260.538 92.6909 260.047 94.4677C259.57 96.1921 258.485 98.5516 256.678 101.678C253.071 107.918 246.728 116.978 237.142 129.705L238.738 130.91C248.326 118.18 254.735 109.035 258.408 102.68C260.241 99.5097 261.428 96.9744 261.974 95.0012C262.505 93.0804 262.514 91.3692 261.473 90.2118L259.987 91.5507ZM237.142 129.706C231.128 137.69 224.302 147.304 221.973 151.071L223.673 152.124C225.95 148.441 232.727 138.891 238.738 130.91L237.142 129.706ZM221.973 151.072C219.687 154.774 213.768 163.588 208.821 170.654L210.458 171.802C215.41 164.729 221.356 155.876 223.673 152.124L221.973 151.072ZM208.821 170.654C177.526 215.363 143.228 274.422 130.073 306.275L131.92 307.039C144.997 275.376 179.205 216.452 210.458 171.802L208.821 170.654ZM130.073 306.275C129.017 308.835 128.217 310.861 127.689 312.433C127.175 313.965 126.869 315.201 126.911 316.117C126.933 316.595 127.053 317.104 127.403 317.517C127.766 317.946 128.255 318.129 128.72 318.185C129.559 318.286 130.632 318.007 131.762 317.642L131.147 315.738C129.967 316.12 129.299 316.24 128.96 316.199C128.835 316.184 128.875 316.16 128.928 316.223C128.968 316.271 128.918 316.255 128.908 316.025C128.885 315.525 129.067 314.612 129.584 313.07C130.089 311.568 130.865 309.596 131.92 307.039L130.073 306.275ZM131.762 317.642C133.339 317.132 135.493 316.01 137.676 314.653C139.873 313.287 142.168 311.639 144.034 310.033L142.73 308.516C140.956 310.044 138.747 311.632 136.621 312.954C134.48 314.285 132.49 315.304 131.147 315.738L131.762 317.642ZM144.034 310.032C144.847 309.332 146.263 308.467 148.192 307.504C150.102 306.55 152.456 305.527 155.097 304.5C160.379 302.445 166.769 300.385 172.982 298.821L172.494 296.88C166.202 298.465 159.733 300.549 154.373 302.635C151.693 303.678 149.28 304.725 147.299 305.714C145.336 306.695 143.737 307.649 142.73 308.516L144.034 310.032ZM172.982 298.821C203.273 291.195 238.707 295.243 273.216 310.349L274.018 308.516C239.187 293.269 203.296 289.126 172.495 296.88L172.982 298.821ZM273.216 310.349C279.678 313.176 284.647 315.309 288.573 316.681C292.481 318.047 295.485 318.709 297.978 318.486C300.555 318.255 302.483 317.091 304.243 315.089C305.958 313.139 307.559 310.338 309.507 306.772L307.753 305.812C305.783 309.42 304.284 312.014 302.742 313.768C301.246 315.47 299.762 316.317 297.8 316.493C295.754 316.676 293.091 316.141 289.232 314.792C285.392 313.45 280.495 311.35 274.018 308.516L273.216 310.349ZM309.507 306.771C328.554 271.885 342.034 225.326 345.088 183.901L343.094 183.754C340.061 224.907 326.657 271.187 307.753 305.812L309.507 306.771ZM345.088 183.901C346.206 168.729 346.291 141.091 345.688 115.503C345.387 102.704 344.914 90.4025 344.311 80.4131C343.709 70.4584 342.975 62.7118 342.135 59.0818L340.187 59.5337C340.983 62.97 341.712 70.5414 342.315 80.534C342.916 90.4918 343.389 102.767 343.69 115.551C344.292 141.13 344.205 168.685 343.094 183.754L345.088 183.901ZM342.135 59.0821C341.489 56.2894 340.945 53.5051 340.591 51.2735C340.414 50.1567 340.285 49.1884 340.214 48.4316C340.14 47.6314 340.142 47.181 340.169 47.0265L338.2 46.6786C338.119 47.1371 338.152 47.8471 338.224 48.6182C338.3 49.4329 338.435 50.447 338.616 51.5877C338.979 53.8709 339.532 56.7012 340.187 59.5335L342.135 59.0821ZM340.169 47.026C340.232 46.6678 340.24 46.1976 340.222 45.6873C340.204 45.1587 340.156 44.5204 340.084 43.7949C339.938 42.3429 339.691 40.5005 339.371 38.4103C338.731 34.2276 337.792 29.0124 336.772 23.8612C335.753 18.7103 334.65 13.611 333.68 9.66063C333.196 7.68721 332.742 5.98789 332.346 4.70782C332.148 4.0691 331.96 3.51959 331.785 3.08635C331.628 2.69802 331.431 2.26859 331.18 1.98883L329.694 3.32771C329.682 3.31376 329.768 3.43099 329.931 3.83599C330.077 4.19607 330.246 4.68653 330.436 5.30025C330.815 6.52504 331.259 8.18044 331.739 10.138C332.699 14.0496 333.795 19.1174 334.811 24.2502C335.827 29.3827 336.76 34.5679 337.395 38.7136C337.713 40.7876 337.954 42.5915 338.094 43.9942C338.164 44.696 338.208 45.2872 338.224 45.756C338.241 46.2432 338.225 46.5382 338.2 46.6791L340.169 47.026ZM331.18 1.98883C330.953 1.73646 330.655 1.60141 330.451 1.52404C330.219 1.43647 329.952 1.36759 329.67 1.31075C329.103 1.19662 328.369 1.11059 327.507 1.04673C325.776 0.918551 323.42 0.872455 320.62 0.903195C315.014 0.964742 307.554 1.3353 299.588 1.99837L299.753 3.99232C307.684 3.3322 315.095 2.96481 320.642 2.90391C323.418 2.87343 325.71 2.91998 327.359 3.04211C328.187 3.10341 328.827 3.18195 329.276 3.27228C329.501 3.31767 329.652 3.36099 329.744 3.39566C329.862 3.44052 329.793 3.43773 329.694 3.32771L331.18 1.98883ZM344.238 402.45C315.259 378.313 295.411 365.359 269.037 353.404L268.212 355.226C294.381 367.089 314.079 379.933 342.959 403.988L344.238 402.45ZM269.037 353.404C243.246 341.71 219.144 337.25 196.504 340.131C173.859 343.013 152.765 353.229 132.978 370.744L134.302 372.243C153.84 354.948 174.573 344.939 196.756 342.116C218.946 339.292 242.673 343.647 268.212 355.226L269.037 353.404ZM132.978 370.744C124.74 378.035 114.702 388.912 106.669 398.715C102.652 403.619 99.1217 408.27 96.5622 412.086C95.2833 413.993 94.2362 415.707 93.4904 417.149C92.7646 418.551 92.2569 419.82 92.1835 420.795L94.177 420.946C94.2173 420.41 94.5478 419.456 95.2657 418.068C95.9635 416.72 96.9654 415.075 98.2221 413.202C100.734 409.457 104.221 404.859 108.215 399.984C116.206 390.231 126.17 379.44 134.302 372.243L132.978 370.744ZM92.1836 420.794C92.1439 421.314 92.4255 421.687 92.621 421.884C92.8278 422.092 93.0879 422.258 93.3409 422.393C93.8553 422.668 94.5675 422.934 95.4143 423.194C97.1228 423.718 99.5733 424.274 102.566 424.832C108.561 425.95 116.841 427.093 125.962 427.996L126.159 426.005C117.076 425.106 108.856 423.97 102.932 422.865C99.9649 422.312 97.6011 421.772 96.0002 421.281C95.1923 421.033 94.626 420.812 94.2831 420.628C94.2009 420.584 94.1402 420.547 94.0971 420.517C94.0527 420.487 94.037 420.471 94.0385 420.473C94.0399 420.474 94.0485 420.483 94.061 420.5C94.0734 420.516 94.0918 420.544 94.1106 420.582C94.1498 420.662 94.1889 420.789 94.1769 420.947L92.1836 420.794ZM125.962 427.996C161.79 431.54 209.24 441.939 241.896 453.4L242.558 451.512C209.745 439.996 162.139 429.564 126.159 426.005L125.962 427.996ZM241.896 453.4C251.738 456.854 260.509 460.806 266.425 464.217C269.395 465.93 271.585 467.471 272.834 468.71C273.471 469.341 273.775 469.809 273.875 470.105C273.898 470.172 273.906 470.218 273.908 470.247C273.911 470.276 273.908 470.288 273.908 470.288C273.908 470.289 273.908 470.289 273.908 470.289C273.908 470.288 273.908 470.289 273.907 470.291C273.904 470.296 273.893 470.312 273.865 470.338L275.202 471.825C275.528 471.531 275.765 471.157 275.862 470.712C275.956 470.277 275.899 469.85 275.769 469.464C275.519 468.723 274.948 467.99 274.241 467.289C272.805 465.864 270.435 464.22 267.423 462.483C261.372 458.995 252.482 454.994 242.558 451.512L241.896 453.4ZM273.865 470.338C273.926 470.283 273.98 470.25 274.01 470.234C274.041 470.217 274.064 470.208 274.071 470.206C274.083 470.201 274.072 470.206 274.024 470.216C273.929 470.236 273.772 470.258 273.538 470.277C273.076 470.314 272.411 470.332 271.554 470.329C269.846 470.321 267.45 470.228 264.536 470.058C258.711 469.718 250.862 469.073 242.399 468.205L242.195 470.195C250.679 471.065 258.558 471.713 264.419 472.055C267.347 472.226 269.784 472.322 271.545 472.329C272.423 472.333 273.153 472.315 273.699 472.271C273.97 472.249 274.221 472.219 274.433 472.175C274.539 472.152 274.656 472.123 274.77 472.08C274.87 472.043 275.042 471.969 275.202 471.825L273.865 470.338ZM242.4 468.205C212.985 465.184 173.079 465.304 152.818 468.489L153.128 470.466C173.162 467.316 212.883 467.185 242.195 470.195L242.4 468.205ZM152.818 468.489C140.269 470.463 128.354 472.48 119.103 474.171C114.477 475.016 110.513 475.78 107.466 476.417C104.446 477.048 102.26 477.568 101.242 477.926L101.905 479.814C102.775 479.508 104.822 479.014 107.874 478.376C110.899 477.744 114.845 476.983 119.461 476.139C128.694 474.452 140.592 472.437 153.128 470.466L152.818 468.489ZM101.243 477.926C100.717 478.11 100.193 478.375 99.7845 478.799C99.3536 479.247 99.1126 479.808 99.0631 480.46C98.9725 481.653 99.5276 483.158 100.552 485.07C102.642 488.973 107.181 495.424 115.123 506.266L116.736 505.083C108.761 494.195 104.322 487.875 102.314 484.125C101.289 482.21 101.014 481.168 101.056 480.611C101.073 480.389 101.139 480.275 101.224 480.187C101.331 480.077 101.53 479.945 101.905 479.814L101.243 477.926ZM115.123 506.266C126.198 521.388 135.155 531.869 145.075 540.28C155.001 548.695 165.85 555.002 180.668 561.826L181.504 560.008C166.777 553.227 156.105 547.009 146.367 538.753C136.623 530.491 127.774 520.155 116.736 505.083L115.123 506.266ZM180.668 561.826C194.755 568.312 207.115 571.957 220.411 572.917C233.697 573.876 247.857 572.15 265.535 567.973L265.076 566.025C247.503 570.178 233.562 571.861 220.555 570.921C207.559 569.983 195.435 566.422 181.504 560.008L180.668 561.826ZM265.535 567.973C308.317 557.863 344.384 537.026 389.09 496.694L387.752 495.208C343.207 535.395 307.432 556.017 265.076 566.025L265.535 567.973ZM389.09 496.694L413.164 474.973L411.825 473.487L387.752 495.208L389.09 496.694ZM413.233 473.556L387.433 445.254L385.956 446.603L411.756 474.905L413.233 473.556ZM387.433 445.254C373.232 429.674 353.802 410.416 344.238 402.45L342.959 403.988C352.421 411.869 371.78 431.051 385.956 446.603L387.433 445.254Z" fill="#C1E3DE" fill-opacity="0.4"/>
</svg>
