<svg width="415" height="598" viewBox="0 0 415 598" fill="none" xmlns="http://www.w3.org/2000/svg">
<path d="M85.1388 593.65L85.2913 594.639L85.2914 594.639L85.1388 593.65ZM275.603 541.964L276.039 542.865L276.039 542.865L275.603 541.964ZM351.211 489.452L350.519 488.73L350.519 488.73L351.211 489.452ZM405.538 406.437L406.494 406.73L406.494 406.73L405.538 406.437ZM411.46 308.092L410.477 308.274L410.477 308.274L411.46 308.092ZM367.123 263.063L367.929 263.654L367.929 263.654L367.123 263.063ZM132.674 500.044L133.417 499.375L132.674 500.044ZM159.57 457.642L160.352 458.265L160.352 458.265L159.57 457.642ZM177.037 434.528L177.866 435.086L177.867 435.086L177.037 434.528ZM192.351 413.275L193.152 413.874L193.152 413.874L192.351 413.275ZM285.115 267.596L286.017 268.028L286.017 268.028L285.115 267.596ZM285.407 257.288L285.764 258.222L285.764 258.222L285.407 257.288ZM272.348 265.852L271.693 265.095L271.693 265.096L272.348 265.852ZM240.729 279.891L241.03 280.845L241.03 280.845L240.729 279.891ZM135.987 275.722L136.333 274.783L136.333 274.783L135.987 275.722ZM99.0822 281.656L98.2269 281.139L98.2269 281.139L99.0822 281.656ZM52.5315 410.643L51.5428 410.496L51.5428 410.496L52.5315 410.643ZM46.0239 538.791L47.0104 538.63L47.0104 538.629L46.0239 538.791ZM47.1353 551.48L46.1657 551.236L46.1656 551.237L47.1353 551.48ZM68.2524 184.451L67.6304 185.235L67.6304 185.235L68.2524 184.451ZM142.997 229.133L143.357 228.199L143.357 228.199L142.997 229.133ZM285.581 201.134L284.917 200.385L284.917 200.385L285.581 201.134ZM331.685 147.16L330.697 147.011L330.697 147.012L331.685 147.16ZM297.739 143.351L297.764 142.351L297.764 142.351L297.739 143.351ZM178.097 125.977L178.367 125.013L178.367 125.013L178.097 125.977ZM145.703 109.245L146.372 109.989L145.703 109.245ZM179.298 108.726L179.327 107.726L179.326 107.726L179.298 108.726ZM272.807 101.627L273.027 102.603L273.027 102.603L272.807 101.627ZM327.317 88.0272L326.939 87.1009L326.939 87.1011L327.317 88.0272ZM314.333 61.497L313.517 62.0756L313.517 62.0756L314.333 61.497ZM250.346 9.53445L250.712 8.60349L250.712 8.60347L250.346 9.53445ZM162.664 9.68993L162.952 10.6481L162.952 10.6481L162.664 9.68993ZM28.401 92.3014L27.7318 91.5583L27.7318 91.5583L28.401 92.3014ZM1.55184 116.522L0.882638 115.779L0.134834 116.454L0.814097 117.197L1.55184 116.522ZM26.3997 143.722L27.1375 143.047L27.1374 143.047L26.3997 143.722ZM85.2914 594.639C170.765 581.422 229.226 565.567 276.039 542.865L275.168 541.064C228.613 563.641 170.375 579.458 84.9863 592.662L85.2914 594.639ZM276.039 542.865C310.268 526.263 324.888 516.109 351.903 490.174L350.519 488.73C323.658 514.518 309.211 524.552 275.168 541.064L276.039 542.865ZM351.903 490.174C381.215 462.034 396.848 438.168 406.494 406.73L404.583 406.143C395.058 437.186 379.643 460.77 350.519 488.73L351.903 490.174ZM406.494 406.73C410.384 394.048 413.04 375.721 414.142 357.415C415.245 339.11 414.801 320.72 412.443 307.911L410.477 308.274C412.793 320.855 413.245 339.063 412.147 357.295C411.049 375.526 408.407 393.676 404.583 406.143L406.494 406.73ZM412.443 307.911C410.412 296.866 406.143 280.929 401.848 267.165C399.7 260.28 397.54 253.923 395.644 248.979C394.696 246.509 393.81 244.379 393.019 242.709C392.245 241.072 391.518 239.775 390.871 239.056L389.385 240.394C389.815 240.873 390.436 241.924 391.213 243.565C391.973 245.172 392.839 247.25 393.778 249.697C395.653 254.587 397.799 260.901 399.94 267.762C404.224 281.49 408.466 297.341 410.477 308.274L412.443 307.911ZM390.871 239.056C390.442 238.579 389.903 238.222 389.239 238.091C388.586 237.962 387.916 238.072 387.254 238.336C385.967 238.847 384.479 240.03 382.7 241.834C379.113 245.473 373.948 252.065 366.318 262.471L367.929 263.654C375.573 253.23 380.655 246.758 384.124 243.239C385.874 241.463 387.116 240.543 387.991 240.195C388.409 240.029 388.679 240.02 388.852 240.054C389.013 240.086 389.187 240.174 389.385 240.394L390.871 239.056ZM366.318 262.471C324.218 319.883 256.602 392.015 180.974 460.169L182.311 461.656C258.002 393.446 325.723 321.212 367.929 263.654L366.318 262.471ZM180.974 460.169C161.862 477.392 150.153 487.72 142.97 493.46C139.368 496.339 136.961 498.017 135.357 498.839C134.549 499.253 134.031 499.404 133.717 499.429C133.456 499.45 133.424 499.384 133.417 499.375L131.931 500.714C132.433 501.272 133.121 501.484 133.876 501.424C134.579 501.367 135.374 501.078 136.268 500.62C138.067 499.698 140.61 497.907 144.218 495.024C151.456 489.24 163.212 478.868 182.311 461.656L180.974 460.169ZM133.417 499.375C133.299 499.244 133.178 499.006 133.176 498.523C133.174 498.026 133.301 497.34 133.62 496.423C134.259 494.589 135.587 492.056 137.723 488.687C141.988 481.964 149.334 472.125 160.352 458.265L158.788 457.019C147.769 470.881 140.363 480.793 136.036 487.615C133.877 491.019 132.449 493.708 131.733 495.764C131.374 496.792 131.174 497.719 131.177 498.53C131.18 499.355 131.396 500.119 131.931 500.714L133.417 499.375ZM160.352 458.265C167.263 449.57 175.144 439.141 177.866 435.086L176.207 433.97C173.533 437.952 165.696 448.328 158.788 457.019L160.352 458.265ZM177.867 435.086C180.548 431.088 187.428 421.54 193.152 413.874L191.55 412.676C185.822 420.349 178.918 429.929 176.207 433.971L177.867 435.086ZM193.152 413.874C229.354 365.377 269.801 301.863 286.017 268.028L284.214 267.163C268.078 300.832 227.716 364.229 191.55 412.676L193.152 413.874ZM286.017 268.028C287.319 265.309 288.31 263.163 288.981 261.507C289.635 259.894 290.045 258.612 290.071 257.681C290.085 257.202 290.003 256.649 289.631 256.205C289.24 255.739 288.699 255.591 288.23 255.57C287.773 255.549 287.273 255.64 286.773 255.774C286.261 255.911 285.683 256.111 285.05 256.354L285.764 258.222C286.37 257.99 286.875 257.818 287.289 257.707C287.715 257.593 287.984 257.561 288.138 257.568C288.281 257.575 288.195 257.605 288.1 257.492C288.024 257.401 288.08 257.376 288.073 257.625C288.058 258.149 287.792 259.12 287.129 260.755C286.483 262.348 285.516 264.446 284.214 267.163L286.017 268.028ZM285.05 256.354C281.766 257.611 275.788 261.548 271.693 265.095L273.002 266.608C277.013 263.132 282.788 259.362 285.764 258.222L285.05 256.354ZM271.693 265.096C269.795 266.742 265.357 269.147 259.616 271.696C253.919 274.225 247.062 276.843 240.429 278.937L241.03 280.845C247.734 278.728 254.661 276.084 260.426 273.525C266.147 270.985 270.849 268.475 273.002 266.608L271.693 265.096ZM240.429 278.937C208.083 289.144 171.283 287.689 136.333 274.783L135.641 276.66C170.964 289.704 208.22 291.199 241.03 280.845L240.429 278.937ZM136.333 274.783C129.785 272.366 124.742 270.549 120.733 269.436C116.735 268.325 113.643 267.877 111.032 268.297C108.361 268.726 106.305 270.043 104.347 272.199C102.424 274.318 100.544 277.306 98.2269 281.139L99.9374 282.174C102.274 278.309 104.056 275.495 105.827 273.545C107.563 271.632 109.235 270.612 111.349 270.273C113.522 269.923 116.272 270.273 120.198 271.364C124.113 272.451 129.076 274.237 135.641 276.66L136.333 274.783ZM98.2269 281.139C75.6157 318.545 57.9246 367.562 51.5428 410.496L53.5202 410.79C59.8628 368.121 77.4623 319.355 99.9374 282.174L98.2269 281.139ZM51.5428 410.496C49.2054 426.221 46.9917 454.719 45.6545 481.053C44.9856 494.225 44.5353 506.871 44.3987 517.123C44.2626 527.337 44.4355 535.27 45.0374 538.953L47.0104 538.629C46.4422 535.153 46.2611 527.407 46.3977 517.149C46.5338 506.929 46.983 494.31 47.6511 481.154C48.9878 454.83 51.1979 426.413 53.5202 410.79L51.5428 410.496ZM45.0374 538.952C45.4987 541.78 45.8535 544.607 46.0528 546.88C46.1526 548.017 46.2125 549.004 46.2284 549.779C46.2451 550.593 46.2091 551.063 46.1657 551.236L48.1048 551.723C48.222 551.255 48.2434 550.531 48.2271 549.737C48.21 548.903 48.1463 547.867 48.0443 546.704C47.8402 544.377 47.4788 541.501 47.0104 538.63L45.0374 538.952ZM46.1656 551.237C45.9963 551.914 45.97 553.114 46.0088 554.549C46.0491 556.035 46.1662 557.916 46.3407 560.047C46.6898 564.31 47.272 569.615 47.9437 574.848C48.6152 580.08 49.378 585.254 50.0896 589.253C50.445 591.251 50.7901 592.97 51.1074 594.262C51.2657 594.906 51.4212 595.462 51.5727 595.9C51.6483 596.119 51.728 596.323 51.8125 596.501C51.8908 596.665 52.0004 596.867 52.1537 597.037L53.6395 595.698C53.6778 595.741 53.6664 595.743 53.618 595.641C53.5759 595.553 53.5234 595.423 53.4619 595.245C53.339 594.89 53.2003 594.401 53.0488 593.784C52.7465 592.553 52.4102 590.883 52.0578 588.902C51.3537 584.945 50.5956 579.806 49.9265 574.593C49.2575 569.381 48.6791 564.107 48.3332 559.883C48.1601 557.77 48.0461 555.929 48.0073 554.494C47.967 553.008 48.0136 552.088 48.105 551.722L46.1656 551.237ZM52.1537 597.037C52.4038 597.315 52.7382 597.439 52.9435 597.503C53.1845 597.577 53.4617 597.627 53.7525 597.664C54.3374 597.738 55.0987 597.77 55.9955 597.77C57.7965 597.768 60.2575 597.635 63.1906 597.387C69.063 596.892 76.9008 595.936 85.2913 594.639L84.9864 592.662C76.6291 593.953 68.8384 594.903 63.023 595.394C60.1121 595.639 57.7143 595.768 55.9944 595.769C55.1308 595.769 54.466 595.738 54.0035 595.679C53.7705 595.65 53.6186 595.617 53.5306 595.59C53.407 595.552 53.5125 595.557 53.6395 595.698L52.1537 597.037ZM67.6304 185.235C96.1316 207.907 115.931 219.751 142.637 230.066L143.357 228.199C116.884 217.974 97.2585 206.248 68.8744 183.668L67.6304 185.235ZM142.637 230.066C168.759 240.158 193.645 242.91 217.534 238.218C241.42 233.528 264.235 221.411 286.244 201.882L284.917 200.385C263.117 219.729 240.616 231.647 217.149 236.255C193.687 240.863 169.185 238.177 143.357 228.199L142.637 230.066ZM286.244 201.882C295.407 193.751 306.732 181.787 315.88 171.077C320.455 165.721 324.499 160.664 327.462 156.544C328.943 154.486 330.164 152.647 331.049 151.114C331.911 149.62 332.526 148.297 332.674 147.308L330.697 147.012C330.611 147.589 330.179 148.621 329.318 150.113C328.479 151.566 327.3 153.345 325.84 155.375C322.92 159.434 318.915 164.445 314.36 169.777C305.249 180.444 293.99 192.335 284.917 200.385L286.244 201.882ZM332.674 147.309C332.755 146.768 332.479 146.365 332.256 146.144C332.036 145.926 331.758 145.766 331.499 145.644C330.971 145.395 330.239 145.173 329.373 144.97C327.622 144.56 325.098 144.173 322.009 143.827C315.819 143.132 307.241 142.585 297.764 142.351L297.715 144.351C307.153 144.585 315.67 145.129 321.786 145.815C324.85 146.159 327.281 146.535 328.917 146.919C329.744 147.112 330.312 147.296 330.647 147.454C330.819 147.535 330.863 147.58 330.849 147.566C330.832 147.549 330.646 147.349 330.697 147.011L332.674 147.309ZM297.764 142.351C260.534 141.431 211.666 134.332 178.367 125.013L177.828 126.94C211.298 136.307 260.332 143.427 297.715 144.351L297.764 142.351ZM178.367 125.013C168.332 122.205 159.46 118.802 153.537 115.744C150.56 114.206 148.403 112.792 147.207 111.628C146.599 111.036 146.339 110.602 146.266 110.337C146.234 110.223 146.245 110.169 146.251 110.149C146.257 110.129 146.277 110.074 146.372 109.989L145.034 108.502C144.709 108.795 144.456 109.159 144.331 109.593C144.205 110.027 144.226 110.462 144.339 110.87C144.553 111.648 145.117 112.385 145.813 113.063C147.226 114.438 149.598 115.961 152.62 117.522C158.697 120.66 167.704 124.107 177.828 126.94L178.367 125.013ZM146.372 109.989C146.233 110.114 146.131 110.114 146.295 110.069C146.404 110.039 146.577 110.004 146.825 109.966C147.316 109.891 148.016 109.822 148.913 109.76C150.702 109.638 153.204 109.551 156.241 109.504C162.312 109.41 170.478 109.476 179.27 109.726L179.326 107.726C170.514 107.476 162.318 107.409 156.211 107.503C153.159 107.55 150.617 107.638 148.776 107.764C147.858 107.827 147.096 107.901 146.525 107.988C146.241 108.031 145.983 108.08 145.766 108.14C145.604 108.184 145.282 108.279 145.034 108.502L146.372 109.989ZM179.27 109.726C209.825 110.595 251.592 107.428 273.027 102.603L272.588 100.651C251.366 105.428 209.776 108.592 179.327 107.726L179.27 109.726ZM273.027 102.603C286.31 99.6119 298.932 96.6245 308.742 94.1769C318.506 91.7409 325.585 89.8162 327.695 88.9533L326.939 87.1011C324.997 87.8953 318.098 89.7808 308.259 92.2355C298.466 94.6787 285.859 97.6626 272.588 100.651L273.027 102.603ZM327.694 88.9535C328.815 88.4958 329.805 87.7496 330.017 86.3435C330.202 85.1081 329.732 83.5813 328.798 81.6735C326.901 77.7965 322.632 71.4832 315.148 60.9183L313.517 62.0756C321.038 72.6925 325.193 78.8555 327.003 82.5537C327.923 84.4334 328.126 85.469 328.04 86.0463C327.979 86.4529 327.75 86.7697 326.939 87.1009L327.694 88.9535ZM315.148 60.9183C304.705 46.1745 296.118 36.0407 286.359 28.1157C276.594 20.1854 265.705 14.5071 250.712 8.60349L249.98 10.4654C264.873 16.3294 275.554 21.9177 285.1 29.6694C294.652 37.4264 303.115 47.3901 313.517 62.0756L315.148 60.9183ZM250.712 8.60347C236.451 2.98916 223.787 0.175402 209.948 0.200046C196.125 0.224662 181.186 3.08151 162.377 8.73175L162.952 10.6481C181.671 5.02472 196.402 2.22501 209.952 2.20088C223.487 2.17677 235.899 4.92209 249.98 10.4654L250.712 8.60347ZM162.377 8.73174C116.87 22.4013 77.5696 46.6027 27.7318 91.5583L29.0702 93.0445C78.7735 48.2102 117.82 24.2048 162.952 10.6481L162.377 8.73174ZM27.7318 91.5583L0.882638 115.779L2.22105 117.265L29.0702 93.0444L27.7318 91.5583ZM0.814097 117.197L25.6619 144.397L27.1374 143.047L2.28959 115.847L0.814097 117.197ZM25.6619 144.397C39.3412 159.373 58.2173 177.746 67.6304 185.235L68.8744 183.668C59.5815 176.275 40.7871 157.991 27.1375 143.047L25.6619 144.397Z" fill="#C1E3DE" fill-opacity="0.4"/>
</svg>
