<svg width="27" height="30" viewBox="0 0 27 30" fill="none" xmlns="http://www.w3.org/2000/svg">
<path fill-rule="evenodd" clip-rule="evenodd" d="M5.36116 1.39048C2.84628 5.29152 1.39727 8.20162 0.631103 10.8895C0.0709465 12.8549 -0.0474826 13.8016 0.015073 15.8141C0.082889 17.9969 0.466753 19.4748 1.35803 20.9857C2.07557 22.2019 3.85826 24.0413 5.02549 24.7697C6.03576 25.4002 8.13735 26.3801 8.47941 26.3801C8.67859 26.3801 8.65528 25.9798 8.37662 24.6163C7.60776 20.8535 7.16603 15.5377 7.16603 10.0459C7.16603 7.27233 7.20114 6.67172 7.36308 6.67172C7.57022 6.67172 7.76926 7.39595 8.07934 9.27906C8.17658 9.86955 8.30753 10.5597 8.37008 10.8128C8.43278 11.0659 8.565 11.687 8.66395 12.1931C9.28951 15.3917 10.3559 19.2998 11.112 21.1654C11.3557 21.7663 11.4069 21.8159 11.5081 21.5489C11.5721 21.3801 11.6289 21.0056 11.6345 20.7165C11.6399 20.4274 11.8965 19.6292 12.2045 18.9427C12.9567 17.2661 14.3306 15.8349 16.0909 14.8943C17.4045 14.1922 17.4446 14.1293 17.1682 13.201C16.4988 10.9524 15.1979 8.48183 13.7362 6.68323C12.6657 5.36591 9.56205 2.22345 8.91431 1.80091C8.65656 1.63266 8.41358 1.44692 8.37449 1.38787C8.2471 1.19569 6.54573 0 6.39972 0C6.32153 0 5.85421 0.625761 5.36116 1.39048ZM21.9519 15.5619C20.0496 15.8871 18.8848 16.2533 17.5355 16.9509C14.8989 18.3136 13.598 20.5288 13.5741 23.6961C13.5642 25.0145 13.8504 27.2378 14.0639 27.5019C14.1194 27.5706 14.7296 27.0184 15.42 26.2749C16.7815 24.8083 18.8007 23.0975 20.3549 22.0932C21.2934 21.4867 22.1652 21.151 22.1652 21.3959C22.1652 21.4594 21.6373 22.0757 20.9922 22.7654C19.8745 23.9603 18.5187 25.7505 17.9503 26.7816C17.2427 28.0655 16.6287 29.2422 16.5501 29.465C16.475 29.6775 16.6891 29.7397 18.0571 29.9026C19.9577 30.129 20.8529 29.9854 22.3784 29.2095C23.825 28.4736 24.5983 27.5953 25.487 25.6787C26.5603 23.3643 27.0017 20.9176 27 17.2928L26.999 15.3373L25.0441 15.3524C23.969 15.3607 22.5775 15.455 21.9519 15.5619Z" fill="#26ABA3"/>
</svg>
