<svg width="213" height="37" viewBox="0 0 213 37" fill="none" xmlns="http://www.w3.org/2000/svg">
<path d="M42.1943 29H37.1797V14.54H32.6475V10.4395H46.7139V14.54H42.1943V29ZM58.457 29L57.5049 27.0957H57.4033C56.7347 27.9251 56.0534 28.4922 55.3594 28.7969C54.6654 29.1016 53.7682 29.2539 52.668 29.2539C51.3138 29.2539 50.2474 28.8477 49.4688 28.0352C48.6901 27.2227 48.3008 26.0801 48.3008 24.6074C48.3008 23.0755 48.834 21.9372 49.9004 21.1924C50.9668 20.4391 52.5114 20.016 54.5342 19.9229L56.9336 19.8467V19.6436C56.9336 18.4587 56.3496 17.8662 55.1816 17.8662C54.1322 17.8662 52.7992 18.2217 51.1826 18.9326L49.748 15.6572C51.4238 14.7939 53.5397 14.3623 56.0957 14.3623C57.9408 14.3623 59.3669 14.8193 60.374 15.7334C61.3896 16.6475 61.8975 17.9255 61.8975 19.5674V29H58.457ZM54.7754 25.75C55.3763 25.75 55.8883 25.5596 56.3115 25.1787C56.7432 24.7979 56.959 24.3027 56.959 23.6934V22.5762L55.8164 22.627C54.1829 22.6862 53.3662 23.2871 53.3662 24.4297C53.3662 25.3099 53.8359 25.75 54.7754 25.75ZM70.2383 29H65.2744V9.24609H70.2383V29ZM78.4902 20.9131C79.0911 19.9567 79.6032 19.2119 80.0264 18.6787L83.251 14.6162H88.7861L83.7969 20.7354L89.1035 29H83.4287L80.2803 23.8457L78.668 25.0771V29H73.6787V9.24609H78.668V17.0156C78.668 18.3444 78.5749 19.6436 78.3887 20.9131H78.4902ZM95.8066 29H90.8428V14.6162H95.8066V29ZM90.7158 11.0361C90.7158 10.2913 90.9232 9.73698 91.3379 9.37305C91.7526 9.00911 92.4212 8.82715 93.3438 8.82715C94.2663 8.82715 94.9391 9.01335 95.3623 9.38574C95.7855 9.75814 95.9971 10.3083 95.9971 11.0361C95.9971 12.4919 95.1126 13.2197 93.3438 13.2197C91.5918 13.2197 90.7158 12.4919 90.7158 11.0361ZM108.35 29V21.1543C108.35 20.1979 108.21 19.4785 107.931 18.9961C107.66 18.5052 107.22 18.2598 106.61 18.2598C105.772 18.2598 105.167 18.5941 104.795 19.2627C104.423 19.9313 104.236 21.0781 104.236 22.7031V29H99.2725V14.6162H103.018L103.64 16.3936H103.932C104.355 15.7165 104.939 15.2087 105.684 14.8701C106.437 14.5316 107.3 14.3623 108.273 14.3623C109.865 14.3623 111.1 14.8236 111.98 15.7461C112.869 16.6686 113.313 17.9678 113.313 19.6436V29H108.35ZM130.262 14.6162V17.0156L128.294 17.7393C128.565 18.2301 128.7 18.8014 128.7 19.4531C128.7 21.002 128.154 22.2038 127.062 23.0586C125.979 23.9134 124.358 24.3408 122.2 24.3408C121.667 24.3408 121.244 24.307 120.931 24.2393C120.812 24.4593 120.753 24.6667 120.753 24.8613C120.753 25.1068 120.952 25.2972 121.35 25.4326C121.747 25.5596 122.268 25.623 122.911 25.623H125.298C128.522 25.623 130.135 26.9814 130.135 29.6982C130.135 31.4502 129.386 32.8128 127.888 33.7861C126.398 34.7594 124.303 35.2461 121.604 35.2461C119.564 35.2461 117.99 34.9033 116.881 34.2178C115.781 33.5407 115.23 32.5632 115.23 31.2852C115.23 29.5671 116.297 28.4583 118.43 27.959C117.99 27.7728 117.604 27.4723 117.274 27.0576C116.953 26.6429 116.792 26.2324 116.792 25.8262C116.792 25.3776 116.915 24.984 117.16 24.6455C117.406 24.2985 117.918 23.888 118.696 23.4141C117.951 23.084 117.363 22.5677 116.932 21.8652C116.508 21.1628 116.297 20.3079 116.297 19.3008C116.297 17.735 116.83 16.5205 117.896 15.6572C118.963 14.7939 120.486 14.3623 122.467 14.3623C122.729 14.3623 123.182 14.3919 123.825 14.4512C124.468 14.5104 124.942 14.5654 125.247 14.6162H130.262ZM119.42 30.79C119.42 31.1963 119.64 31.5221 120.08 31.7676C120.52 32.0215 121.108 32.1484 121.845 32.1484C123.047 32.1484 124.007 31.9961 124.727 31.6914C125.454 31.3952 125.818 31.0101 125.818 30.5361C125.818 30.1553 125.598 29.8844 125.158 29.7236C124.718 29.5713 124.088 29.4951 123.267 29.4951H121.324C120.791 29.4951 120.338 29.6178 119.966 29.8633C119.602 30.1172 119.42 30.4261 119.42 30.79ZM120.981 19.3262C120.981 20.7988 121.493 21.5352 122.518 21.5352C122.992 21.5352 123.355 21.3532 123.609 20.9893C123.872 20.6253 124.003 20.0794 124.003 19.3516C124.003 17.862 123.508 17.1172 122.518 17.1172C121.493 17.1172 120.981 17.8535 120.981 19.3262ZM140.837 29L137.041 15.6318H136.927C137.104 17.9085 137.193 19.6774 137.193 20.9385V29H132.75V10.4395H139.428L143.3 23.6172H143.401L147.197 10.4395H153.888V29H149.279V20.8623C149.279 20.4391 149.284 19.9694 149.292 19.4531C149.309 18.9368 149.368 17.6715 149.47 15.6572H149.355L145.61 29H140.837ZM162.584 29H157.62V14.6162H162.584V29ZM157.493 11.0361C157.493 10.2913 157.701 9.73698 158.115 9.37305C158.53 9.00911 159.199 8.82715 160.121 8.82715C161.044 8.82715 161.716 9.01335 162.14 9.38574C162.563 9.75814 162.774 10.3083 162.774 11.0361C162.774 12.4919 161.89 13.2197 160.121 13.2197C158.369 13.2197 157.493 12.4919 157.493 11.0361ZM175.127 29V21.1543C175.127 20.1979 174.987 19.4785 174.708 18.9961C174.437 18.5052 173.997 18.2598 173.388 18.2598C172.55 18.2598 171.945 18.5941 171.572 19.2627C171.2 19.9313 171.014 21.0781 171.014 22.7031V29H166.05V14.6162H169.795L170.417 16.3936H170.709C171.132 15.7165 171.716 15.2087 172.461 14.8701C173.214 14.5316 174.077 14.3623 175.051 14.3623C176.642 14.3623 177.878 14.8236 178.758 15.7461C179.646 16.6686 180.091 17.9678 180.091 19.6436V29H175.127ZM187.937 29.2539C186.912 29.2539 186.015 28.9619 185.245 28.3779C184.483 27.7939 183.891 26.9349 183.468 25.8008C183.053 24.6667 182.846 23.3421 182.846 21.8271C182.846 19.4912 183.315 17.6631 184.255 16.3428C185.194 15.0225 186.485 14.3623 188.127 14.3623C188.931 14.3623 189.633 14.5231 190.234 14.8447C190.844 15.1663 191.398 15.708 191.897 16.4697H191.999C191.838 15.3441 191.758 14.2184 191.758 13.0928V9.24609H196.76V29H193.015L191.948 27.1846H191.758C190.903 28.5641 189.629 29.2539 187.937 29.2539ZM189.968 25.3311C190.763 25.3311 191.322 25.0814 191.644 24.582C191.974 24.0827 192.151 23.3125 192.177 22.2715V21.8779C192.177 20.6084 191.995 19.707 191.631 19.1738C191.267 18.6322 190.696 18.3613 189.917 18.3613C189.265 18.3613 188.757 18.6702 188.394 19.2881C188.038 19.8975 187.86 20.7692 187.86 21.9033C187.86 23.0205 188.042 23.8711 188.406 24.4551C188.77 25.0391 189.291 25.3311 189.968 25.3311ZM211.309 24.582C211.309 26.1224 210.784 27.2861 209.734 28.0732C208.685 28.8604 207.178 29.2539 205.215 29.2539C204.148 29.2539 203.222 29.1947 202.435 29.0762C201.647 28.9661 200.843 28.7588 200.022 28.4541V24.4805C200.793 24.819 201.635 25.0983 202.549 25.3184C203.471 25.5384 204.292 25.6484 205.012 25.6484C206.087 25.6484 206.624 25.403 206.624 24.9121C206.624 24.6582 206.472 24.4339 206.167 24.2393C205.871 24.0361 204.999 23.6468 203.552 23.0713C202.231 22.5296 201.309 21.916 200.784 21.2305C200.259 20.5365 199.997 19.6605 199.997 18.6025C199.997 17.2653 200.513 16.2243 201.546 15.4795C202.578 14.7347 204.038 14.3623 205.926 14.3623C206.874 14.3623 207.762 14.4681 208.592 14.6797C209.43 14.8828 210.297 15.1833 211.194 15.5811L209.849 18.7803C209.188 18.484 208.49 18.2344 207.754 18.0312C207.018 17.8197 206.417 17.7139 205.951 17.7139C205.139 17.7139 204.732 17.9128 204.732 18.3105C204.732 18.556 204.872 18.7676 205.151 18.9453C205.439 19.1146 206.26 19.4658 207.614 19.999C208.621 20.4137 209.37 20.82 209.861 21.2178C210.361 21.6156 210.725 22.0853 210.953 22.627C211.19 23.1602 211.309 23.8118 211.309 24.582Z" fill="white"/>
<g clip-path="url(#clip0_1004_2178)">
<path fill-rule="evenodd" clip-rule="evenodd" d="M5.36116 1.34413C2.84628 5.11514 1.39727 7.92823 0.631103 10.5265C0.0709465 12.4264 -0.0474826 13.3415 0.015073 15.287C0.082889 17.397 0.466753 18.8256 1.35803 20.2861C2.07557 21.4619 3.85826 23.2399 5.02549 23.944C6.03576 24.5535 8.13735 25.5008 8.47941 25.5008C8.67859 25.5008 8.65528 25.1138 8.37662 23.7958C7.60776 20.1583 7.16603 15.0198 7.16603 9.71106C7.16603 7.02992 7.20114 6.44933 7.36308 6.44933C7.57022 6.44933 7.76926 7.14942 8.07934 8.96976C8.17658 9.54056 8.30753 10.2077 8.37008 10.4524C8.43278 10.697 8.565 11.2974 8.66395 11.7867C9.28951 14.8786 10.3559 18.6565 11.112 20.4599C11.3557 21.0408 11.4069 21.0887 11.5081 20.8306C11.5721 20.6675 11.6289 20.3054 11.6345 20.0259C11.6399 19.7465 11.8965 18.9749 12.2045 18.3113C12.9567 16.6905 14.3306 15.3071 16.0909 14.3979C17.4045 13.7191 17.4446 13.6583 17.1682 12.7609C16.4988 10.5873 15.1979 8.1991 13.7362 6.46045C12.6657 5.18704 9.56205 2.14934 8.91431 1.74088C8.65656 1.57824 8.41358 1.39869 8.37449 1.34161C8.2471 1.15584 6.54573 0 6.39972 0C6.32153 0 5.85421 0.604902 5.36116 1.34413ZM21.9519 15.0432C20.0496 15.3575 18.8848 15.7116 17.5355 16.3859C14.8989 17.7032 13.598 19.8445 13.5741 22.9062C13.5642 24.1806 13.8504 26.3298 14.0639 26.5851C14.1194 26.6516 14.7296 26.1178 15.42 25.3991C16.7815 23.9814 18.8007 22.3275 20.3549 21.3567C21.2934 20.7705 22.1652 20.446 22.1652 20.6827C22.1652 20.7441 21.6373 21.3398 20.9922 22.0066C19.8745 23.1617 18.5187 24.8922 17.9503 25.8889C17.2427 27.13 16.6287 28.2674 16.5501 28.4829C16.475 28.6882 16.6891 28.7484 18.0571 28.9059C19.9577 29.1247 20.8529 28.9859 22.3784 28.2359C23.825 27.5245 24.5983 26.6754 25.487 24.8228C26.5603 22.5855 27.0017 20.2203 27 16.7163L26.999 14.826L25.0441 14.8407C23.969 14.8487 22.5775 14.9399 21.9519 15.0432Z" fill="white"/>
</g>
<defs>
<clipPath id="clip0_1004_2178">
<rect width="27" height="29" fill="white"/>
</clipPath>
</defs>
</svg>
