<svg width="213" height="38" viewBox="0 0 213 38" fill="none" xmlns="http://www.w3.org/2000/svg">
<path d="M42.1943 30H37.1797V15.54H32.6475V11.4395H46.7139V15.54H42.1943V30ZM58.457 30L57.5049 28.0957H57.4033C56.7347 28.9251 56.0534 29.4922 55.3594 29.7969C54.6654 30.1016 53.7682 30.2539 52.668 30.2539C51.3138 30.2539 50.2474 29.8477 49.4688 29.0352C48.6901 28.2227 48.3008 27.0801 48.3008 25.6074C48.3008 24.0755 48.834 22.9372 49.9004 22.1924C50.9668 21.4391 52.5114 21.016 54.5342 20.9229L56.9336 20.8467V20.6436C56.9336 19.4587 56.3496 18.8662 55.1816 18.8662C54.1322 18.8662 52.7992 19.2217 51.1826 19.9326L49.748 16.6572C51.4238 15.7939 53.5397 15.3623 56.0957 15.3623C57.9408 15.3623 59.3669 15.8193 60.374 16.7334C61.3896 17.6475 61.8975 18.9255 61.8975 20.5674V30H58.457ZM54.7754 26.75C55.3763 26.75 55.8883 26.5596 56.3115 26.1787C56.7432 25.7979 56.959 25.3027 56.959 24.6934V23.5762L55.8164 23.627C54.1829 23.6862 53.3662 24.2871 53.3662 25.4297C53.3662 26.3099 53.8359 26.75 54.7754 26.75ZM70.2383 30H65.2744V10.2461H70.2383V30ZM78.4902 21.9131C79.0911 20.9567 79.6032 20.2119 80.0264 19.6787L83.251 15.6162H88.7861L83.7969 21.7354L89.1035 30H83.4287L80.2803 24.8457L78.668 26.0771V30H73.6787V10.2461H78.668V18.0156C78.668 19.3444 78.5749 20.6436 78.3887 21.9131H78.4902ZM95.8066 30H90.8428V15.6162H95.8066V30ZM90.7158 12.0361C90.7158 11.2913 90.9232 10.737 91.3379 10.373C91.7526 10.0091 92.4212 9.82715 93.3438 9.82715C94.2663 9.82715 94.9391 10.0133 95.3623 10.3857C95.7855 10.7581 95.9971 11.3083 95.9971 12.0361C95.9971 13.4919 95.1126 14.2197 93.3438 14.2197C91.5918 14.2197 90.7158 13.4919 90.7158 12.0361ZM108.35 30V22.1543C108.35 21.1979 108.21 20.4785 107.931 19.9961C107.66 19.5052 107.22 19.2598 106.61 19.2598C105.772 19.2598 105.167 19.5941 104.795 20.2627C104.423 20.9313 104.236 22.0781 104.236 23.7031V30H99.2725V15.6162H103.018L103.64 17.3936H103.932C104.355 16.7165 104.939 16.2087 105.684 15.8701C106.437 15.5316 107.3 15.3623 108.273 15.3623C109.865 15.3623 111.1 15.8236 111.98 16.7461C112.869 17.6686 113.313 18.9678 113.313 20.6436V30H108.35ZM130.262 15.6162V18.0156L128.294 18.7393C128.565 19.2301 128.7 19.8014 128.7 20.4531C128.7 22.002 128.154 23.2038 127.062 24.0586C125.979 24.9134 124.358 25.3408 122.2 25.3408C121.667 25.3408 121.244 25.307 120.931 25.2393C120.812 25.4593 120.753 25.6667 120.753 25.8613C120.753 26.1068 120.952 26.2972 121.35 26.4326C121.747 26.5596 122.268 26.623 122.911 26.623H125.298C128.522 26.623 130.135 27.9814 130.135 30.6982C130.135 32.4502 129.386 33.8128 127.888 34.7861C126.398 35.7594 124.303 36.2461 121.604 36.2461C119.564 36.2461 117.99 35.9033 116.881 35.2178C115.781 34.5407 115.23 33.5632 115.23 32.2852C115.23 30.5671 116.297 29.4583 118.43 28.959C117.99 28.7728 117.604 28.4723 117.274 28.0576C116.953 27.6429 116.792 27.2324 116.792 26.8262C116.792 26.3776 116.915 25.984 117.16 25.6455C117.406 25.2985 117.918 24.888 118.696 24.4141C117.951 24.084 117.363 23.5677 116.932 22.8652C116.508 22.1628 116.297 21.3079 116.297 20.3008C116.297 18.735 116.83 17.5205 117.896 16.6572C118.963 15.7939 120.486 15.3623 122.467 15.3623C122.729 15.3623 123.182 15.3919 123.825 15.4512C124.468 15.5104 124.942 15.5654 125.247 15.6162H130.262ZM119.42 31.79C119.42 32.1963 119.64 32.5221 120.08 32.7676C120.52 33.0215 121.108 33.1484 121.845 33.1484C123.047 33.1484 124.007 32.9961 124.727 32.6914C125.454 32.3952 125.818 32.0101 125.818 31.5361C125.818 31.1553 125.598 30.8844 125.158 30.7236C124.718 30.5713 124.088 30.4951 123.267 30.4951H121.324C120.791 30.4951 120.338 30.6178 119.966 30.8633C119.602 31.1172 119.42 31.4261 119.42 31.79ZM120.981 20.3262C120.981 21.7988 121.493 22.5352 122.518 22.5352C122.992 22.5352 123.355 22.3532 123.609 21.9893C123.872 21.6253 124.003 21.0794 124.003 20.3516C124.003 18.862 123.508 18.1172 122.518 18.1172C121.493 18.1172 120.981 18.8535 120.981 20.3262ZM140.837 30L137.041 16.6318H136.927C137.104 18.9085 137.193 20.6774 137.193 21.9385V30H132.75V11.4395H139.428L143.3 24.6172H143.401L147.197 11.4395H153.888V30H149.279V21.8623C149.279 21.4391 149.284 20.9694 149.292 20.4531C149.309 19.9368 149.368 18.6715 149.47 16.6572H149.355L145.61 30H140.837ZM162.584 30H157.62V15.6162H162.584V30ZM157.493 12.0361C157.493 11.2913 157.701 10.737 158.115 10.373C158.53 10.0091 159.199 9.82715 160.121 9.82715C161.044 9.82715 161.716 10.0133 162.14 10.3857C162.563 10.7581 162.774 11.3083 162.774 12.0361C162.774 13.4919 161.89 14.2197 160.121 14.2197C158.369 14.2197 157.493 13.4919 157.493 12.0361ZM175.127 30V22.1543C175.127 21.1979 174.987 20.4785 174.708 19.9961C174.437 19.5052 173.997 19.2598 173.388 19.2598C172.55 19.2598 171.945 19.5941 171.572 20.2627C171.2 20.9313 171.014 22.0781 171.014 23.7031V30H166.05V15.6162H169.795L170.417 17.3936H170.709C171.132 16.7165 171.716 16.2087 172.461 15.8701C173.214 15.5316 174.077 15.3623 175.051 15.3623C176.642 15.3623 177.878 15.8236 178.758 16.7461C179.646 17.6686 180.091 18.9678 180.091 20.6436V30H175.127ZM187.937 30.2539C186.912 30.2539 186.015 29.9619 185.245 29.3779C184.483 28.7939 183.891 27.9349 183.468 26.8008C183.053 25.6667 182.846 24.3421 182.846 22.8271C182.846 20.4912 183.315 18.6631 184.255 17.3428C185.194 16.0225 186.485 15.3623 188.127 15.3623C188.931 15.3623 189.633 15.5231 190.234 15.8447C190.844 16.1663 191.398 16.708 191.897 17.4697H191.999C191.838 16.3441 191.758 15.2184 191.758 14.0928V10.2461H196.76V30H193.015L191.948 28.1846H191.758C190.903 29.5641 189.629 30.2539 187.937 30.2539ZM189.968 26.3311C190.763 26.3311 191.322 26.0814 191.644 25.582C191.974 25.0827 192.151 24.3125 192.177 23.2715V22.8779C192.177 21.6084 191.995 20.707 191.631 20.1738C191.267 19.6322 190.696 19.3613 189.917 19.3613C189.265 19.3613 188.757 19.6702 188.394 20.2881C188.038 20.8975 187.86 21.7692 187.86 22.9033C187.86 24.0205 188.042 24.8711 188.406 25.4551C188.77 26.0391 189.291 26.3311 189.968 26.3311ZM211.309 25.582C211.309 27.1224 210.784 28.2861 209.734 29.0732C208.685 29.8604 207.178 30.2539 205.215 30.2539C204.148 30.2539 203.222 30.1947 202.435 30.0762C201.647 29.9661 200.843 29.7588 200.022 29.4541V25.4805C200.793 25.819 201.635 26.0983 202.549 26.3184C203.471 26.5384 204.292 26.6484 205.012 26.6484C206.087 26.6484 206.624 26.403 206.624 25.9121C206.624 25.6582 206.472 25.4339 206.167 25.2393C205.871 25.0361 204.999 24.6468 203.552 24.0713C202.231 23.5296 201.309 22.916 200.784 22.2305C200.259 21.5365 199.997 20.6605 199.997 19.6025C199.997 18.2653 200.513 17.2243 201.546 16.4795C202.578 15.7347 204.038 15.3623 205.926 15.3623C206.874 15.3623 207.762 15.4681 208.592 15.6797C209.43 15.8828 210.297 16.1833 211.194 16.5811L209.849 19.7803C209.188 19.484 208.49 19.2344 207.754 19.0312C207.018 18.8197 206.417 18.7139 205.951 18.7139C205.139 18.7139 204.732 18.9128 204.732 19.3105C204.732 19.556 204.872 19.7676 205.151 19.9453C205.439 20.1146 206.26 20.4658 207.614 20.999C208.621 21.4137 209.37 21.82 209.861 22.2178C210.361 22.6156 210.725 23.0853 210.953 23.627C211.19 24.1602 211.309 24.8118 211.309 25.582Z" fill="#26ABA3"/>
<path fill-rule="evenodd" clip-rule="evenodd" d="M5.36116 1.39048C2.84628 5.29152 1.39727 8.20162 0.631103 10.8895C0.0709465 12.8549 -0.0474826 13.8016 0.015073 15.8141C0.082889 17.9969 0.466753 19.4748 1.35803 20.9857C2.07557 22.2019 3.85826 24.0413 5.02549 24.7697C6.03576 25.4002 8.13735 26.3801 8.47941 26.3801C8.67859 26.3801 8.65528 25.9798 8.37662 24.6163C7.60776 20.8535 7.16603 15.5377 7.16603 10.0459C7.16603 7.27233 7.20114 6.67172 7.36308 6.67172C7.57022 6.67172 7.76926 7.39595 8.07934 9.27906C8.17658 9.86955 8.30753 10.5597 8.37008 10.8128C8.43278 11.0659 8.565 11.687 8.66395 12.1931C9.28951 15.3917 10.3559 19.2998 11.112 21.1654C11.3557 21.7663 11.4069 21.8159 11.5081 21.5489C11.5721 21.3801 11.6289 21.0056 11.6345 20.7165C11.6399 20.4274 11.8965 19.6292 12.2045 18.9427C12.9567 17.2661 14.3306 15.8349 16.0909 14.8943C17.4045 14.1922 17.4446 14.1293 17.1682 13.201C16.4988 10.9524 15.1979 8.48183 13.7362 6.68323C12.6657 5.36591 9.56205 2.22345 8.91431 1.80091C8.65656 1.63266 8.41358 1.44692 8.37449 1.38787C8.2471 1.19569 6.54573 0 6.39972 0C6.32153 0 5.85421 0.625761 5.36116 1.39048ZM21.9519 15.5619C20.0496 15.8871 18.8848 16.2533 17.5355 16.9509C14.8989 18.3136 13.598 20.5288 13.5741 23.6961C13.5642 25.0145 13.8504 27.2378 14.0639 27.5019C14.1194 27.5706 14.7296 27.0184 15.42 26.2749C16.7815 24.8083 18.8007 23.0975 20.3549 22.0932C21.2934 21.4867 22.1652 21.151 22.1652 21.3959C22.1652 21.4594 21.6373 22.0757 20.9922 22.7654C19.8745 23.9603 18.5187 25.7505 17.9503 26.7816C17.2427 28.0655 16.6287 29.2422 16.5501 29.465C16.475 29.6775 16.6891 29.7397 18.0571 29.9026C19.9577 30.129 20.8529 29.9854 22.3784 29.2095C23.825 28.4736 24.5983 27.5953 25.487 25.6787C26.5603 23.3643 27.0017 20.9176 27 17.2928L26.999 15.3373L25.0441 15.3524C23.969 15.3607 22.5775 15.455 21.9519 15.5619Z" fill="#26ABA3"/>
</svg>
